<?xml version="1.0" encoding="UTF-8" standalone="no"?><svg xmlns="http://www.w3.org/2000/svg" xmlns:xlink="http://www.w3.org/1999/xlink" contentScriptType="application/ecmascript" contentStyleType="text/css" height="314.4px" preserveAspectRatio="none" style="width:334px;height:314px;" version="1.1" viewBox="0 0 334 314" width="334.8px" zoomAndPan="magnify"><defs><filter height="300%" id="flwjn1yv47pa0" width="300%" x="-1" y="-1"><feGaussianBlur result="blurOut" stdDeviation="0.8"/><feColorMatrix in="blurOut" result="blurOut2" type="matrix" values="0 0 0 0 0 0 0 0 0 0 0 0 0 0 0 0 0 0 .4 0"/><feOffset dx="1.6" dy="1.6" in="blurOut2" result="blurOut3"/><feBlend in="SourceGraphic" in2="blurOut3" mode="normal"/></filter></defs><g><text fill="#000000" font-family="sans-serif" font-size="7.2" lengthAdjust="spacingAndGlyphs" text-decoration="underline" textLength="92" x="123.8" y="7.4742">COMMONS's Class Diagram</text><text fill="#000000" font-family="sans-serif" font-size="7.2" lengthAdjust="spacingAndGlyphs" textLength="0" x="170.8" y="16.5305"/><!--MD5=[d020d26c406ab368c8fabd3ef6a21587]
cluster it.polimi.ingswPSP35.commons--><polygon fill="#FFFFFF" filter="url(#flwjn1yv47pa0)" points="8.8,80.9125,96.8,80.9125,99.6,90.3563,326,90.3563,326,309.7125,8.8,309.7125,8.8,80.9125" style="stroke: #000000; stroke-width: 0.6000000000000001;"/><line style="stroke: #000000; stroke-width: 0.6000000000000001;" x1="8.8" x2="99.6" y1="90.3563" y2="90.3563"/><text fill="#000000" font-family="sans-serif" font-size="5.6" font-weight="bold" lengthAdjust="spacingAndGlyphs" textLength="85.6" x="10.4" y="87.5258">it.polimi.ingswPSP35.commons</text><!--MD5=[aa8f7b917213fcc1c2766e2d59b49067]
cluster java.lang--><polygon fill="#FFFFFF" filter="url(#flwjn1yv47pa0)" points="173.2,27.7125,200.8,27.7125,203.6,37.1563,220.4,37.1563,220.4,67.7125,173.2,67.7125,173.2,27.7125" style="stroke: #000000; stroke-width: 0.6000000000000001;"/><line style="stroke: #000000; stroke-width: 0.6000000000000001;" x1="173.2" x2="203.6" y1="37.1563" y2="37.1563"/><text fill="#000000" font-family="sans-serif" font-size="5.6" font-weight="bold" lengthAdjust="spacingAndGlyphs" textLength="25.2" x="174.8" y="34.3258">java.lang</text><!--MD5=[c63524eb69af73663e82e4838e614223]
class it.polimi.ingswPSP35.commons.Action--><rect fill="#FEFECE" filter="url(#flwjn1yv47pa0)" height="46.8719" id="it.polimi.ingswPSP35.commons.Action" style="stroke: #A80036; stroke-width: 0.6000000000000001;" width="28.8" x="15.2" y="245.3125"/><ellipse cx="22.46" cy="251.7125" fill="#EB937F" rx="4.4" ry="4.4" style="stroke: #A80036; stroke-width: 0.4;"/><path d="M21.86,252.1125 L21.86,252.9125 L23.46,252.9125 L23.46,252.5125 L23.46,252.3188 L23.71,252.1125 L23.86,252.1125 L24.01,252.1125 L24.26,252.3188 L24.26,252.5125 L24.26,253.7125 L21.06,253.7125 L20.8663,253.7125 L20.66,253.4625 L20.66,253.3125 L20.66,253.1625 L20.8663,252.9125 L21.06,252.9125 L21.06,252.9125 L21.06,250.5125 L21.06,250.5125 L20.8663,250.5125 L20.66,250.2625 L20.66,250.1125 L20.66,249.9625 L20.8663,249.7125 L21.06,249.7125 L24.26,249.7125 L24.26,250.9125 L24.26,251.1063 L24.01,251.3125 L23.86,251.3125 L23.71,251.3125 L23.46,251.1063 L23.46,250.9125 L23.46,250.5125 L21.86,250.5125 L21.86,251.3125 L22.26,251.3125 L22.26,251.1188 L22.26,251.1188 L22.51,250.9125 L22.66,250.9125 L22.81,250.9125 L23.06,251.1188 L23.06,251.3125 L23.06,252.1125 L23.06,252.3063 L22.81,252.5125 L22.81,252.5125 L22.66,252.5125 L22.51,252.5125 L22.26,252.3063 L22.26,252.3063 L22.26,252.1125 L21.86,252.1125 Z "/><text fill="#000000" font-family="sans-serif" font-size="4.8" lengthAdjust="spacingAndGlyphs" textLength="13.2" x="28.34" y="253.6766">Action</text><line style="stroke: #A80036; stroke-width: 0.6000000000000001;" x1="15.6" x2="43.6" y1="258.1125" y2="258.1125"/><text fill="#000000" font-family="sans-serif" font-size="4.4" lengthAdjust="spacingAndGlyphs" textLength="11.6" x="17.6" y="264.2801">BUILD</text><text fill="#000000" font-family="sans-serif" font-size="4.4" lengthAdjust="spacingAndGlyphs" textLength="18.8" x="17.6" y="269.8145">ENDTURN</text><text fill="#000000" font-family="sans-serif" font-size="4.4" lengthAdjust="spacingAndGlyphs" textLength="24" x="17.6" y="275.3488">GODPOWER</text><text fill="#000000" font-family="sans-serif" font-size="4.4" lengthAdjust="spacingAndGlyphs" textLength="12" x="17.6" y="280.8832">MOVE</text><text fill="#000000" font-family="sans-serif" font-size="4.4" lengthAdjust="spacingAndGlyphs" textLength="9.2" x="17.6" y="286.4176">QUIT</text><line style="stroke: #A80036; stroke-width: 0.6000000000000001;" x1="15.6" x2="43.6" y1="288.9844" y2="288.9844"/><!--MD5=[d5e7fb9330a51fbc965abab1f65e6394]
class it.polimi.ingswPSP35.commons.Coordinates--><rect fill="#FEFECE" filter="url(#flwjn1yv47pa0)" height="69.0094" id="it.polimi.ingswPSP35.commons.Coordinates" style="stroke: #A80036; stroke-width: 0.6000000000000001;" width="40" x="58" y="234.1125"/><ellipse cx="64" cy="240.5125" fill="#ADD1B2" rx="4.4" ry="4.4" style="stroke: #A80036; stroke-width: 0.4;"/><path d="M64.8,239.1125 Q64.8813,238.9125 64.975,238.8125 Q65.0688,238.7125 65.175,238.7125 Q65.3625,238.7125 65.4813,238.825 Q65.6,238.9375 65.6,239.2 L65.6,239.825 Q65.6,240.0875 65.4875,240.2 Q65.375,240.3125 65.2,240.3125 Q65.0438,240.3125 64.9438,240.2438 Q64.8438,240.175 64.8,239.9938 Q64.7813,239.8688 64.7125,239.8 Q64.5875,239.6688 64.3625,239.5938 Q64.1375,239.5125 63.9125,239.5125 Q63.6313,239.5125 63.3938,239.625 Q63.1625,239.7375 62.9813,239.9875 Q62.8,240.2375 62.8,240.5813 L62.8,240.95 Q62.8,241.3625 63.1375,241.6375 Q63.475,241.9125 64.075,241.9125 Q64.4313,241.9125 64.6813,241.8313 Q64.825,241.7875 64.9875,241.6438 Q65.0938,241.5625 65.15,241.5375 Q65.2063,241.5125 65.275,241.5125 Q65.4063,241.5125 65.5,241.6188 Q65.6,241.7188 65.6,241.8625 Q65.6,242 65.4625,242.1625 Q65.2625,242.4 64.9438,242.5313 Q64.525,242.7125 64.0125,242.7125 Q63.4125,242.7125 62.9313,242.475 Q62.5438,242.2875 62.2688,241.8813 Q62,241.475 62,240.9938 L62,240.5563 Q62,240.0563 62.2375,239.6188 Q62.4813,239.1813 62.9,238.95 Q63.325,238.7125 63.8,238.7125 Q64.0875,238.7125 64.3375,238.8125 Q64.5875,238.9125 64.8,239.1125 Z "/><text fill="#000000" font-family="sans-serif" font-size="4.8" lengthAdjust="spacingAndGlyphs" textLength="27.2" x="69.6" y="242.4766">Coordinates</text><line style="stroke: #A80036; stroke-width: 0.6000000000000001;" x1="58.4" x2="97.6" y1="246.9125" y2="246.9125"/><rect fill="none" height="2.4" style="stroke: #C82930; stroke-width: 0.4;" width="2.4" x="61.2" y="250.1125"/><text fill="#000000" font-family="sans-serif" font-size="4.4" lengthAdjust="spacingAndGlyphs" textLength="10.4" x="66" y="253.0801">c : int</text><rect fill="none" height="2.4" style="stroke: #C82930; stroke-width: 0.4;" width="2.4" x="61.2" y="255.6469"/><text fill="#000000" font-family="sans-serif" font-size="4.4" lengthAdjust="spacingAndGlyphs" textLength="9.6" x="66" y="258.6145">r : int</text><line style="stroke: #A80036; stroke-width: 0.6000000000000001;" x1="58.4" x2="97.6" y1="261.1813" y2="261.1813"/><ellipse cx="62.4" cy="265.5813" fill="#84BE84" rx="1.2" ry="1.2" style="stroke: #038048; stroke-width: 0.4;"/><text fill="#000000" font-family="sans-serif" font-size="4.4" lengthAdjust="spacingAndGlyphs" textLength="26.4" x="66" y="267.3488">Coordinates()</text><ellipse cx="62.4" cy="271.1156" fill="#84BE84" rx="1.2" ry="1.2" style="stroke: #038048; stroke-width: 0.4;"/><text fill="#000000" font-family="sans-serif" font-size="4.4" lengthAdjust="spacingAndGlyphs" textLength="26.4" x="66" y="272.8832">Coordinates()</text><ellipse cx="62.4" cy="276.65" fill="#84BE84" rx="1.2" ry="1.2" style="stroke: #038048; stroke-width: 0.4;"/><text fill="#000000" font-family="sans-serif" font-size="4.4" lengthAdjust="spacingAndGlyphs" textLength="12.8" x="66" y="278.4176">copy()</text><ellipse cx="62.4" cy="282.1844" fill="#84BE84" rx="1.2" ry="1.2" style="stroke: #038048; stroke-width: 0.4;"/><text fill="#000000" font-family="sans-serif" font-size="4.4" lengthAdjust="spacingAndGlyphs" textLength="16" x="66" y="283.952">equals()</text><ellipse cx="62.4" cy="287.7188" fill="#84BE84" rx="1.2" ry="1.2" style="stroke: #038048; stroke-width: 0.4;"/><text fill="#000000" font-family="sans-serif" font-size="4.4" lengthAdjust="spacingAndGlyphs" textLength="12" x="66" y="289.4863">getC()</text><ellipse cx="62.4" cy="293.2531" fill="#84BE84" rx="1.2" ry="1.2" style="stroke: #038048; stroke-width: 0.4;"/><text fill="#000000" font-family="sans-serif" font-size="4.4" lengthAdjust="spacingAndGlyphs" textLength="13.6" x="66" y="295.0207">getInt()</text><ellipse cx="62.4" cy="298.7875" fill="#84BE84" rx="1.2" ry="1.2" style="stroke: #038048; stroke-width: 0.4;"/><text fill="#000000" font-family="sans-serif" font-size="4.4" lengthAdjust="spacingAndGlyphs" textLength="12" x="66" y="300.5551">getR()</text><!--MD5=[9d7b65ae320d17e8a07edba3e920dae5]
class it.polimi.ingswPSP35.commons.MessageID--><rect fill="#FEFECE" filter="url(#flwjn1yv47pa0)" height="107.75" id="it.polimi.ingswPSP35.commons.MessageID" style="stroke: #A80036; stroke-width: 0.6000000000000001;" width="54.4" x="265.2" y="95.3125"/><ellipse cx="278.58" cy="101.7125" fill="#EB937F" rx="4.4" ry="4.4" style="stroke: #A80036; stroke-width: 0.4;"/><path d="M277.98,102.1125 L277.98,102.9125 L279.58,102.9125 L279.58,102.5125 L279.58,102.3188 L279.83,102.1125 L279.98,102.1125 L280.13,102.1125 L280.38,102.3188 L280.38,102.5125 L280.38,103.7125 L277.18,103.7125 L276.9863,103.7125 L276.78,103.4625 L276.78,103.3125 L276.78,103.1625 L276.9863,102.9125 L277.18,102.9125 L277.18,102.9125 L277.18,100.5125 L277.18,100.5125 L276.9863,100.5125 L276.78,100.2625 L276.78,100.1125 L276.78,99.9625 L276.9863,99.7125 L277.18,99.7125 L280.38,99.7125 L280.38,100.9125 L280.38,101.1063 L280.13,101.3125 L279.98,101.3125 L279.83,101.3125 L279.58,101.1063 L279.58,100.9125 L279.58,100.5125 L277.98,100.5125 L277.98,101.3125 L278.38,101.3125 L278.38,101.1188 L278.38,101.1188 L278.63,100.9125 L278.78,100.9125 L278.93,100.9125 L279.18,101.1188 L279.18,101.3125 L279.18,102.1125 L279.18,102.3063 L278.93,102.5125 L278.93,102.5125 L278.78,102.5125 L278.63,102.5125 L278.38,102.3063 L278.38,102.3063 L278.38,102.1125 L277.98,102.1125 Z "/><text fill="#000000" font-family="sans-serif" font-size="4.8" lengthAdjust="spacingAndGlyphs" textLength="25.2" x="285.82" y="103.6766">MessageID</text><line style="stroke: #A80036; stroke-width: 0.6000000000000001;" x1="265.6" x2="319.2" y1="108.1125" y2="108.1125"/><text fill="#000000" font-family="sans-serif" font-size="4.4" lengthAdjust="spacingAndGlyphs" textLength="39.2" x="267.6" y="114.2801">CHOOSE2DIVINITIES</text><text fill="#000000" font-family="sans-serif" font-size="4.4" lengthAdjust="spacingAndGlyphs" textLength="39.2" x="267.6" y="119.8145">CHOOSE3DIVINITIES</text><text fill="#000000" font-family="sans-serif" font-size="4.4" lengthAdjust="spacingAndGlyphs" textLength="34.4" x="267.6" y="125.3488">CHOOSECOLOUR</text><text fill="#000000" font-family="sans-serif" font-size="4.4" lengthAdjust="spacingAndGlyphs" textLength="44.8" x="267.6" y="130.8832">CHOOSEFIRSTPLAYER</text><text fill="#000000" font-family="sans-serif" font-size="4.4" lengthAdjust="spacingAndGlyphs" textLength="34" x="267.6" y="136.4176">CHOSENCOLORS</text><text fill="#000000" font-family="sans-serif" font-size="4.4" lengthAdjust="spacingAndGlyphs" textLength="30.8" x="267.6" y="141.952">DISCONNECTED</text><text fill="#000000" font-family="sans-serif" font-size="4.4" lengthAdjust="spacingAndGlyphs" textLength="36.4" x="267.6" y="147.4863">DIVINITIESCHOSEN</text><text fill="#000000" font-family="sans-serif" font-size="4.4" lengthAdjust="spacingAndGlyphs" textLength="30.4" x="267.6" y="153.0207">FINISHEDSETUP</text><text fill="#000000" font-family="sans-serif" font-size="4.4" lengthAdjust="spacingAndGlyphs" textLength="49.6" x="267.6" y="158.5551">GETNUMBEROFPLAYERS</text><text fill="#000000" font-family="sans-serif" font-size="4.4" lengthAdjust="spacingAndGlyphs" textLength="27.6" x="267.6" y="164.0895">NOTIFICATION</text><text fill="#000000" font-family="sans-serif" font-size="4.4" lengthAdjust="spacingAndGlyphs" textLength="34.4" x="267.6" y="169.6238">PERFORMACTION</text><text fill="#000000" font-family="sans-serif" font-size="4.4" lengthAdjust="spacingAndGlyphs" textLength="25.6" x="267.6" y="175.1582">PICKDIVINITY</text><text fill="#000000" font-family="sans-serif" font-size="4.4" lengthAdjust="spacingAndGlyphs" textLength="31.2" x="267.6" y="180.6926">PLACEWORKER</text><text fill="#000000" font-family="sans-serif" font-size="4.4" lengthAdjust="spacingAndGlyphs" textLength="24" x="267.6" y="186.227">TURNENDED</text><text fill="#000000" font-family="sans-serif" font-size="4.4" lengthAdjust="spacingAndGlyphs" textLength="16" x="267.6" y="191.7613">UPDATE</text><text fill="#000000" font-family="sans-serif" font-size="4.4" lengthAdjust="spacingAndGlyphs" textLength="20" x="267.6" y="197.2957">USERINFO</text><line style="stroke: #A80036; stroke-width: 0.6000000000000001;" x1="265.6" x2="319.2" y1="199.8625" y2="199.8625"/><!--MD5=[5e6982932c999caf242292670628e1fe]
class it.polimi.ingswPSP35.commons.Pinger--><rect fill="#FEFECE" filter="url(#flwjn1yv47pa0)" height="41.3375" id="it.polimi.ingswPSP35.commons.Pinger" style="stroke: #A80036; stroke-width: 0.6000000000000001;" width="108.8" x="142.4" y="128.5125"/><ellipse cx="187.9" cy="134.9125" fill="#ADD1B2" rx="4.4" ry="4.4" style="stroke: #A80036; stroke-width: 0.4;"/><path d="M188.7,133.5125 Q188.7813,133.3125 188.875,133.2125 Q188.9688,133.1125 189.075,133.1125 Q189.2625,133.1125 189.3813,133.225 Q189.5,133.3375 189.5,133.6 L189.5,134.225 Q189.5,134.4875 189.3875,134.6 Q189.275,134.7125 189.1,134.7125 Q188.9438,134.7125 188.8438,134.6438 Q188.7438,134.575 188.7,134.3938 Q188.6813,134.2688 188.6125,134.2 Q188.4875,134.0688 188.2625,133.9938 Q188.0375,133.9125 187.8125,133.9125 Q187.5313,133.9125 187.2938,134.025 Q187.0625,134.1375 186.8813,134.3875 Q186.7,134.6375 186.7,134.9813 L186.7,135.35 Q186.7,135.7625 187.0375,136.0375 Q187.375,136.3125 187.975,136.3125 Q188.3313,136.3125 188.5813,136.2313 Q188.725,136.1875 188.8875,136.0438 Q188.9938,135.9625 189.05,135.9375 Q189.1063,135.9125 189.175,135.9125 Q189.3063,135.9125 189.4,136.0188 Q189.5,136.1188 189.5,136.2625 Q189.5,136.4 189.3625,136.5625 Q189.1625,136.8 188.8438,136.9313 Q188.425,137.1125 187.9125,137.1125 Q187.3125,137.1125 186.8313,136.875 Q186.4438,136.6875 186.1688,136.2813 Q185.9,135.875 185.9,135.3938 L185.9,134.9563 Q185.9,134.4563 186.1375,134.0188 Q186.3813,133.5813 186.8,133.35 Q187.225,133.1125 187.7,133.1125 Q187.9875,133.1125 188.2375,133.2125 Q188.4875,133.3125 188.7,133.5125 Z "/><text fill="#000000" font-family="sans-serif" font-size="4.8" lengthAdjust="spacingAndGlyphs" textLength="14.4" x="196.1" y="136.8766">Pinger</text><line style="stroke: #A80036; stroke-width: 0.6000000000000001;" x1="142.8" x2="250.8" y1="141.3125" y2="141.3125"/><rect fill="none" height="2.4" style="stroke: #C82930; stroke-width: 0.4;" width="2.4" x="145.6" y="144.5125"/><text fill="#000000" font-family="sans-serif" font-size="4.4" lengthAdjust="spacingAndGlyphs" text-decoration="underline" textLength="24" x="150.4" y="147.4801">PING : String</text><rect fill="none" height="2.4" style="stroke: #C82930; stroke-width: 0.4;" width="2.4" x="145.6" y="150.0469"/><text fill="#000000" font-family="sans-serif" font-size="4.4" lengthAdjust="spacingAndGlyphs" textLength="98.4" x="150.4" y="153.0145">outgoingMessages : LinkedBlockingQueue&lt;Object&gt;</text><line style="stroke: #A80036; stroke-width: 0.6000000000000001;" x1="142.8" x2="250.8" y1="155.5813" y2="155.5813"/><ellipse cx="146.8" cy="159.9813" fill="#84BE84" rx="1.2" ry="1.2" style="stroke: #038048; stroke-width: 0.4;"/><text fill="#000000" font-family="sans-serif" font-size="4.4" lengthAdjust="spacingAndGlyphs" textLength="15.2" x="150.4" y="161.7488">Pinger()</text><ellipse cx="146.8" cy="165.5156" fill="#84BE84" rx="1.2" ry="1.2" style="stroke: #038048; stroke-width: 0.4;"/><text fill="#000000" font-family="sans-serif" font-size="4.4" lengthAdjust="spacingAndGlyphs" textLength="9.6" x="150.4" y="167.2832">run()</text><!--MD5=[614d64de829f573a7d79c8300ae2c0f3]
class it.polimi.ingswPSP35.commons.ReducedSquare--><rect fill="#FEFECE" filter="url(#flwjn1yv47pa0)" height="63.475" id="it.polimi.ingswPSP35.commons.ReducedSquare" style="stroke: #A80036; stroke-width: 0.6000000000000001;" width="48.8" x="79.6" y="117.3125"/><ellipse cx="85.6" cy="123.7125" fill="#ADD1B2" rx="4.4" ry="4.4" style="stroke: #A80036; stroke-width: 0.4;"/><path d="M86.4,122.3125 Q86.4813,122.1125 86.575,122.0125 Q86.6688,121.9125 86.775,121.9125 Q86.9625,121.9125 87.0813,122.025 Q87.2,122.1375 87.2,122.4 L87.2,123.025 Q87.2,123.2875 87.0875,123.4 Q86.975,123.5125 86.8,123.5125 Q86.6438,123.5125 86.5438,123.4438 Q86.4438,123.375 86.4,123.1938 Q86.3813,123.0688 86.3125,123 Q86.1875,122.8688 85.9625,122.7938 Q85.7375,122.7125 85.5125,122.7125 Q85.2313,122.7125 84.9938,122.825 Q84.7625,122.9375 84.5813,123.1875 Q84.4,123.4375 84.4,123.7813 L84.4,124.15 Q84.4,124.5625 84.7375,124.8375 Q85.075,125.1125 85.675,125.1125 Q86.0313,125.1125 86.2813,125.0313 Q86.425,124.9875 86.5875,124.8438 Q86.6938,124.7625 86.75,124.7375 Q86.8063,124.7125 86.875,124.7125 Q87.0063,124.7125 87.1,124.8188 Q87.2,124.9188 87.2,125.0625 Q87.2,125.2 87.0625,125.3625 Q86.8625,125.6 86.5438,125.7313 Q86.125,125.9125 85.6125,125.9125 Q85.0125,125.9125 84.5313,125.675 Q84.1438,125.4875 83.8688,125.0813 Q83.6,124.675 83.6,124.1938 L83.6,123.7563 Q83.6,123.2563 83.8375,122.8188 Q84.0813,122.3813 84.5,122.15 Q84.925,121.9125 85.4,121.9125 Q85.6875,121.9125 85.9375,122.0125 Q86.1875,122.1125 86.4,122.3125 Z "/><text fill="#000000" font-family="sans-serif" font-size="4.8" lengthAdjust="spacingAndGlyphs" textLength="36" x="91.2" y="125.6766">ReducedSquare</text><line style="stroke: #A80036; stroke-width: 0.6000000000000001;" x1="80" x2="128" y1="130.1125" y2="130.1125"/><rect fill="none" height="2.4" style="stroke: #C82930; stroke-width: 0.4;" width="2.4" x="82.8" y="133.3125"/><text fill="#000000" font-family="sans-serif" font-size="4.4" lengthAdjust="spacingAndGlyphs" textLength="36.8" x="87.6" y="136.2801">hasDome : boolean</text><rect fill="none" height="2.4" style="stroke: #C82930; stroke-width: 0.4;" width="2.4" x="82.8" y="138.8469"/><text fill="#000000" font-family="sans-serif" font-size="4.4" lengthAdjust="spacingAndGlyphs" textLength="19.6" x="87.6" y="141.8145">height : int</text><line style="stroke: #A80036; stroke-width: 0.6000000000000001;" x1="80" x2="128" y1="144.3813" y2="144.3813"/><ellipse cx="84" cy="148.7813" fill="#84BE84" rx="1.2" ry="1.2" style="stroke: #038048; stroke-width: 0.4;"/><text fill="#000000" font-family="sans-serif" font-size="4.4" lengthAdjust="spacingAndGlyphs" textLength="21.6" x="87.6" y="150.5488">HasDome()</text><ellipse cx="84" cy="154.3156" fill="#84BE84" rx="1.2" ry="1.2" style="stroke: #038048; stroke-width: 0.4;"/><text fill="#000000" font-family="sans-serif" font-size="4.4" lengthAdjust="spacingAndGlyphs" textLength="34.4" x="87.6" y="156.0832">ReducedSquare()</text><ellipse cx="84" cy="159.85" fill="#84BE84" rx="1.2" ry="1.2" style="stroke: #038048; stroke-width: 0.4;"/><text fill="#000000" font-family="sans-serif" font-size="4.4" lengthAdjust="spacingAndGlyphs" textLength="34.4" x="87.6" y="161.6176">ReducedSquare()</text><ellipse cx="84" cy="165.3844" fill="#84BE84" rx="1.2" ry="1.2" style="stroke: #038048; stroke-width: 0.4;"/><text fill="#000000" font-family="sans-serif" font-size="4.4" lengthAdjust="spacingAndGlyphs" textLength="32.4" x="87.6" y="167.152">getCoordinates()</text><ellipse cx="84" cy="170.9188" fill="#84BE84" rx="1.2" ry="1.2" style="stroke: #038048; stroke-width: 0.4;"/><text fill="#000000" font-family="sans-serif" font-size="4.4" lengthAdjust="spacingAndGlyphs" textLength="21.2" x="87.6" y="172.6863">getHeight()</text><ellipse cx="84" cy="176.4531" fill="#84BE84" rx="1.2" ry="1.2" style="stroke: #038048; stroke-width: 0.4;"/><text fill="#000000" font-family="sans-serif" font-size="4.4" lengthAdjust="spacingAndGlyphs" textLength="23.2" x="87.6" y="178.2207">getWorker()</text><!--MD5=[9785c8a46d8c02c43aa561dc7b7f81b0]
class it.polimi.ingswPSP35.commons.ReducedWorker--><rect fill="#FEFECE" filter="url(#flwjn1yv47pa0)" height="35.8031" id="it.polimi.ingswPSP35.commons.ReducedWorker" style="stroke: #A80036; stroke-width: 0.6000000000000001;" width="48.4" x="112.2" y="250.7125"/><ellipse cx="118.2" cy="257.1125" fill="#ADD1B2" rx="4.4" ry="4.4" style="stroke: #A80036; stroke-width: 0.4;"/><path d="M119,255.7125 Q119.0813,255.5125 119.175,255.4125 Q119.2688,255.3125 119.375,255.3125 Q119.5625,255.3125 119.6813,255.425 Q119.8,255.5375 119.8,255.8 L119.8,256.425 Q119.8,256.6875 119.6875,256.8 Q119.575,256.9125 119.4,256.9125 Q119.2438,256.9125 119.1438,256.8438 Q119.0438,256.775 119,256.5938 Q118.9813,256.4688 118.9125,256.4 Q118.7875,256.2688 118.5625,256.1938 Q118.3375,256.1125 118.1125,256.1125 Q117.8313,256.1125 117.5938,256.225 Q117.3625,256.3375 117.1813,256.5875 Q117,256.8375 117,257.1813 L117,257.55 Q117,257.9625 117.3375,258.2375 Q117.675,258.5125 118.275,258.5125 Q118.6313,258.5125 118.8813,258.4313 Q119.025,258.3875 119.1875,258.2438 Q119.2938,258.1625 119.35,258.1375 Q119.4063,258.1125 119.475,258.1125 Q119.6063,258.1125 119.7,258.2188 Q119.8,258.3188 119.8,258.4625 Q119.8,258.6 119.6625,258.7625 Q119.4625,259 119.1438,259.1313 Q118.725,259.3125 118.2125,259.3125 Q117.6125,259.3125 117.1313,259.075 Q116.7438,258.8875 116.4688,258.4813 Q116.2,258.075 116.2,257.5938 L116.2,257.1563 Q116.2,256.6563 116.4375,256.2188 Q116.6813,255.7813 117.1,255.55 Q117.525,255.3125 118,255.3125 Q118.2875,255.3125 118.5375,255.4125 Q118.7875,255.5125 119,255.7125 Z "/><text fill="#000000" font-family="sans-serif" font-size="4.8" lengthAdjust="spacingAndGlyphs" textLength="35.6" x="123.8" y="259.0766">ReducedWorker</text><line style="stroke: #A80036; stroke-width: 0.6000000000000001;" x1="112.6" x2="160.2" y1="263.5125" y2="263.5125"/><rect fill="none" height="2.4" style="stroke: #C82930; stroke-width: 0.4;" width="2.4" x="115.4" y="266.7125"/><text fill="#000000" font-family="sans-serif" font-size="4.4" lengthAdjust="spacingAndGlyphs" textLength="20" x="120.2" y="269.6801">colour : int</text><line style="stroke: #A80036; stroke-width: 0.6000000000000001;" x1="112.6" x2="160.2" y1="272.2469" y2="272.2469"/><ellipse cx="116.6" cy="276.6469" fill="#84BE84" rx="1.2" ry="1.2" style="stroke: #038048; stroke-width: 0.4;"/><text fill="#000000" font-family="sans-serif" font-size="4.4" lengthAdjust="spacingAndGlyphs" textLength="34.4" x="120.2" y="278.4145">ReducedWorker()</text><ellipse cx="116.6" cy="282.1813" fill="#84BE84" rx="1.2" ry="1.2" style="stroke: #038048; stroke-width: 0.4;"/><text fill="#000000" font-family="sans-serif" font-size="4.4" lengthAdjust="spacingAndGlyphs" textLength="21.6" x="120.2" y="283.9488">getColour()</text><!--MD5=[53fd1948b657674ae702d06468fedca0]
class it.polimi.ingswPSP35.commons.RequestedAction--><rect fill="#FEFECE" filter="url(#flwjn1yv47pa0)" height="41.3375" id="it.polimi.ingswPSP35.commons.RequestedAction" style="stroke: #A80036; stroke-width: 0.6000000000000001;" width="50.4" x="15.2" y="128.5125"/><ellipse cx="21.2" cy="134.9125" fill="#ADD1B2" rx="4.4" ry="4.4" style="stroke: #A80036; stroke-width: 0.4;"/><path d="M22,133.5125 Q22.0813,133.3125 22.175,133.2125 Q22.2688,133.1125 22.375,133.1125 Q22.5625,133.1125 22.6813,133.225 Q22.8,133.3375 22.8,133.6 L22.8,134.225 Q22.8,134.4875 22.6875,134.6 Q22.575,134.7125 22.4,134.7125 Q22.2438,134.7125 22.1438,134.6438 Q22.0438,134.575 22,134.3938 Q21.9813,134.2688 21.9125,134.2 Q21.7875,134.0688 21.5625,133.9938 Q21.3375,133.9125 21.1125,133.9125 Q20.8313,133.9125 20.5938,134.025 Q20.3625,134.1375 20.1813,134.3875 Q20,134.6375 20,134.9813 L20,135.35 Q20,135.7625 20.3375,136.0375 Q20.675,136.3125 21.275,136.3125 Q21.6313,136.3125 21.8813,136.2313 Q22.025,136.1875 22.1875,136.0438 Q22.2938,135.9625 22.35,135.9375 Q22.4063,135.9125 22.475,135.9125 Q22.6063,135.9125 22.7,136.0188 Q22.8,136.1188 22.8,136.2625 Q22.8,136.4 22.6625,136.5625 Q22.4625,136.8 22.1438,136.9313 Q21.725,137.1125 21.2125,137.1125 Q20.6125,137.1125 20.1313,136.875 Q19.7438,136.6875 19.4688,136.2813 Q19.2,135.875 19.2,135.3938 L19.2,134.9563 Q19.2,134.4563 19.4375,134.0188 Q19.6813,133.5813 20.1,133.35 Q20.525,133.1125 21,133.1125 Q21.2875,133.1125 21.5375,133.2125 Q21.7875,133.3125 22,133.5125 Z "/><text fill="#000000" font-family="sans-serif" font-size="4.8" lengthAdjust="spacingAndGlyphs" textLength="37.6" x="26.8" y="136.8766">RequestedAction</text><line style="stroke: #A80036; stroke-width: 0.6000000000000001;" x1="15.6" x2="65.2" y1="141.3125" y2="141.3125"/><line style="stroke: #A80036; stroke-width: 0.6000000000000001;" x1="15.6" x2="65.2" y1="144.5125" y2="144.5125"/><ellipse cx="19.6" cy="148.9125" fill="#84BE84" rx="1.2" ry="1.2" style="stroke: #038048; stroke-width: 0.4;"/><text fill="#000000" font-family="sans-serif" font-size="4.4" lengthAdjust="spacingAndGlyphs" textLength="36.4" x="23.2" y="150.6801">RequestedAction()</text><ellipse cx="19.6" cy="154.4469" fill="#84BE84" rx="1.2" ry="1.2" style="stroke: #038048; stroke-width: 0.4;"/><text fill="#000000" font-family="sans-serif" font-size="4.4" lengthAdjust="spacingAndGlyphs" textLength="21.6" x="23.2" y="156.2145">getAction()</text><ellipse cx="19.6" cy="159.9813" fill="#84BE84" rx="1.2" ry="1.2" style="stroke: #038048; stroke-width: 0.4;"/><text fill="#000000" font-family="sans-serif" font-size="4.4" lengthAdjust="spacingAndGlyphs" textLength="23.2" x="23.2" y="161.7488">getSquare()</text><ellipse cx="19.6" cy="165.5156" fill="#84BE84" rx="1.2" ry="1.2" style="stroke: #038048; stroke-width: 0.4;"/><text fill="#000000" font-family="sans-serif" font-size="4.4" lengthAdjust="spacingAndGlyphs" textLength="23.2" x="23.2" y="167.2832">getWorker()</text><!--MD5=[8dac795f9edbf65a524ac462449c98fb]
class java.lang.Runnable--><rect fill="#FEFECE" filter="url(#flwjn1yv47pa0)" height="19.2" id="java.lang.Runnable" style="stroke: #A80036; stroke-width: 0.6000000000000001;" width="34.4" x="179.6" y="42.1125"/><ellipse cx="185.6" cy="48.5125" fill="#ADD1B2" rx="4.4" ry="4.4" style="stroke: #A80036; stroke-width: 0.4;"/><path d="M186.4,47.1125 Q186.4813,46.9125 186.575,46.8125 Q186.6688,46.7125 186.775,46.7125 Q186.9625,46.7125 187.0813,46.825 Q187.2,46.9375 187.2,47.2 L187.2,47.825 Q187.2,48.0875 187.0875,48.2 Q186.975,48.3125 186.8,48.3125 Q186.6438,48.3125 186.5438,48.2438 Q186.4438,48.175 186.4,47.9938 Q186.3813,47.8688 186.3125,47.8 Q186.1875,47.6688 185.9625,47.5938 Q185.7375,47.5125 185.5125,47.5125 Q185.2313,47.5125 184.9938,47.625 Q184.7625,47.7375 184.5813,47.9875 Q184.4,48.2375 184.4,48.5813 L184.4,48.95 Q184.4,49.3625 184.7375,49.6375 Q185.075,49.9125 185.675,49.9125 Q186.0313,49.9125 186.2813,49.8313 Q186.425,49.7875 186.5875,49.6438 Q186.6938,49.5625 186.75,49.5375 Q186.8063,49.5125 186.875,49.5125 Q187.0063,49.5125 187.1,49.6188 Q187.2,49.7188 187.2,49.8625 Q187.2,50 187.0625,50.1625 Q186.8625,50.4 186.5438,50.5313 Q186.125,50.7125 185.6125,50.7125 Q185.0125,50.7125 184.5313,50.475 Q184.1438,50.2875 183.8688,49.8813 Q183.6,49.475 183.6,48.9938 L183.6,48.5563 Q183.6,48.0563 183.8375,47.6188 Q184.0813,47.1813 184.5,46.95 Q184.925,46.7125 185.4,46.7125 Q185.6875,46.7125 185.9375,46.8125 Q186.1875,46.9125 186.4,47.1125 Z "/><text fill="#000000" font-family="sans-serif" font-size="4.8" lengthAdjust="spacingAndGlyphs" textLength="21.6" x="191.2" y="50.4766">Runnable</text><line style="stroke: #A80036; stroke-width: 0.6000000000000001;" x1="180" x2="213.6" y1="54.9125" y2="54.9125"/><line style="stroke: #A80036; stroke-width: 0.6000000000000001;" x1="180" x2="213.6" y1="58.1125" y2="58.1125"/><!--MD5=[d8fd2802759fdb5b5445343ea034f18d]
reverse link java.lang.Runnable to it.polimi.ingswPSP35.commons.Pinger--><path d="M196.8,69.4077 C196.8,69.4077 196.8,128.4361 196.8,128.4361 " fill="none" id="java.lang.Runnable&lt;-it.polimi.ingswPSP35.commons.Pinger" style="stroke: #A80036; stroke-width: 0.4; stroke-dasharray: 7.0,7.0;"/><polygon fill="none" points="194,69.4077,196.8,61.4077,199.6,69.4077,194,69.4077" style="stroke: #A80036; stroke-width: 0.4;"/><!--MD5=[7040099615d7c8db767403c31d240bec]
reverse link it.polimi.ingswPSP35.commons.ReducedSquare to it.polimi.ingswPSP35.commons.Coordinates--><path d="M88.8,186.2061 C88.8,186.2061 88.8,234.0737 88.8,234.0737 " fill="none" id="it.polimi.ingswPSP35.commons.ReducedSquare&lt;-it.polimi.ingswPSP35.commons.Coordinates" style="stroke: #A80036; stroke-width: 0.4;"/><polygon fill="#FFFFFF" points="88.8,181.0061,87.2,183.4061,88.8,185.8061,90.4,183.4061,88.8,181.0061" style="stroke: #A80036; stroke-width: 0.4;"/><text fill="#000000" font-family="sans-serif" font-size="5.2" lengthAdjust="spacingAndGlyphs" textLength="1.6" x="91.2" y="220.7105">.</text><!--MD5=[22c8c4b41f82247440da8d3a4773c3b5]
reverse link it.polimi.ingswPSP35.commons.ReducedSquare to it.polimi.ingswPSP35.commons.ReducedWorker--><path d="M120.3,186.2061 C120.3,186.2061 120.3,250.6477 120.3,250.6477 " fill="none" id="it.polimi.ingswPSP35.commons.ReducedSquare&lt;-it.polimi.ingswPSP35.commons.ReducedWorker" style="stroke: #A80036; stroke-width: 0.4;"/><polygon fill="#FFFFFF" points="120.3,181.0061,118.7,183.4061,120.3,185.8061,121.9,183.4061,120.3,181.0061" style="stroke: #A80036; stroke-width: 0.4;"/><text fill="#000000" font-family="sans-serif" font-size="5.2" lengthAdjust="spacingAndGlyphs" textLength="1.6" x="109.6" y="220.7105">.</text><!--MD5=[2f41d5b7b9c670440458c6c13ca2fa59]
reverse link it.polimi.ingswPSP35.commons.RequestedAction to it.polimi.ingswPSP35.commons.Action--><path d="M29.6,175.0085 C29.6,175.0085 29.6,245.3025 29.6,245.3025 " fill="none" id="it.polimi.ingswPSP35.commons.RequestedAction&lt;-it.polimi.ingswPSP35.commons.Action" style="stroke: #A80036; stroke-width: 0.4;"/><polygon fill="#FFFFFF" points="29.6,169.8085,28,172.2085,29.6,174.6085,31.2,172.2085,29.6,169.8085" style="stroke: #A80036; stroke-width: 0.4;"/><text fill="#000000" font-family="sans-serif" font-size="5.2" lengthAdjust="spacingAndGlyphs" textLength="1.6" x="32.8" y="220.7105">.</text><!--MD5=[e8e7222ab5a389e789b93908bcbf902a]
reverse link it.polimi.ingswPSP35.commons.RequestedAction to it.polimi.ingswPSP35.commons.Coordinates--><path d="M63.0668,175.0085 C63.0668,175.0085 63.0668,234.0013 63.0668,234.0013 " fill="none" id="it.polimi.ingswPSP35.commons.RequestedAction&lt;-it.polimi.ingswPSP35.commons.Coordinates" style="stroke: #A80036; stroke-width: 0.4;"/><polygon fill="#FFFFFF" points="63.0668,169.8085,61.4668,172.2085,63.0668,174.6085,64.6668,172.2085,63.0668,169.8085" style="stroke: #A80036; stroke-width: 0.4;"/><text fill="#000000" font-family="sans-serif" font-size="5.2" lengthAdjust="spacingAndGlyphs" textLength="1.6" x="54" y="220.7105">.</text><!--MD5=[e8e7222ab5a389e789b93908bcbf902a]
reverse link it.polimi.ingswPSP35.commons.RequestedAction to it.polimi.ingswPSP35.commons.Coordinates--><path d="M60.5332,175.0085 C60.5332,175.0085 60.5332,234.0013 60.5332,234.0013 " fill="none" id="it.polimi.ingswPSP35.commons.RequestedAction&lt;-it.polimi.ingswPSP35.commons.Coordinates-1" style="stroke: #A80036; stroke-width: 0.4;"/><polygon fill="#FFFFFF" points="60.5332,169.8085,58.9332,172.2085,60.5332,174.6085,62.1332,172.2085,60.5332,169.8085" style="stroke: #A80036; stroke-width: 0.4;"/><text fill="#000000" font-family="sans-serif" font-size="5.2" lengthAdjust="spacingAndGlyphs" textLength="1.6" x="72.8" y="220.7105">.</text><!--MD5=[d03f3db56d688b60d3789dc0f0bf61d0]
@startuml

title __COMMONS's Class Diagram__\n

  namespace it.polimi.ingswPSP35.commons {
    enum Action {
      BUILD
      ENDTURN
      GODPOWER
      MOVE
      QUIT
    }
  }
  

  namespace it.polimi.ingswPSP35.commons {
    class it.polimi.ingswPSP35.commons.Coordinates {
        - c : int
        - r : int
        + Coordinates()
        + Coordinates()
        + copy()
        + equals()
        + getC()
        + getInt()
        + getR()
    }
  }
  

  namespace it.polimi.ingswPSP35.commons {
    enum MessageID {
      CHOOSE2DIVINITIES
      CHOOSE3DIVINITIES
      CHOOSECOLOUR
      CHOOSEFIRSTPLAYER
      CHOSENCOLORS
      DISCONNECTED
      DIVINITIESCHOSEN
      FINISHEDSETUP
      GETNUMBEROFPLAYERS
      NOTIFICATION
      PERFORMACTION
      PICKDIVINITY
      PLACEWORKER
      TURNENDED
      UPDATE
      USERINFO
    }
  }
  

  namespace it.polimi.ingswPSP35.commons {
    class it.polimi.ingswPSP35.commons.Pinger {
        {static} - PING : String
        - outgoingMessages : LinkedBlockingQueue<Object>
        + Pinger()
        + run()
    }
  }
  

  namespace it.polimi.ingswPSP35.commons {
    class it.polimi.ingswPSP35.commons.ReducedSquare {
        - hasDome : boolean
        - height : int
        + HasDome()
        + ReducedSquare()
        + ReducedSquare()
        + getCoordinates()
        + getHeight()
        + getWorker()
    }
  }
  

  namespace it.polimi.ingswPSP35.commons {
    class it.polimi.ingswPSP35.commons.ReducedWorker {
        - colour : int
        + ReducedWorker()
        + getColour()
    }
  }
  

  namespace it.polimi.ingswPSP35.commons {
    class it.polimi.ingswPSP35.commons.RequestedAction {
        + RequestedAction()
        + getAction()
        + getSquare()
        + getWorker()
    }
  }
  
  skinparam linetype ortho
  it.polimi.ingswPSP35.commons.Pinger .up.|> java.lang.Runnable
  it.polimi.ingswPSP35.commons.ReducedSquare o- - it.polimi.ingswPSP35.commons.Coordinates :.
  it.polimi.ingswPSP35.commons.ReducedSquare o- - it.polimi.ingswPSP35.commons.ReducedWorker :.
  it.polimi.ingswPSP35.commons.RequestedAction o- - it.polimi.ingswPSP35.commons.Action :.
  it.polimi.ingswPSP35.commons.RequestedAction o- - it.polimi.ingswPSP35.commons.Coordinates :.
  it.polimi.ingswPSP35.commons.RequestedAction o- - it.polimi.ingswPSP35.commons.Coordinates :.



@enduml

PlantUML version 1.2020.09(Sun May 10 12:51:06 CEST 2020)
(GPL source distribution)
Java Runtime: OpenJDK Runtime Environment
JVM: OpenJDK 64-Bit Server VM
Java Version: 11.0.7+10-b765.53
Operating System: Windows 10
Default Encoding: Cp1252
Language: it
Country: IT
--></g></svg>