<?xml version="1.0" encoding="UTF-8" standalone="no"?><svg xmlns="http://www.w3.org/2000/svg" xmlns:xlink="http://www.w3.org/1999/xlink" contentScriptType="application/ecmascript" contentStyleType="text/css" height="387.6px" preserveAspectRatio="none" style="width:503px;height:387px;" version="1.1" viewBox="0 0 503 387" width="503.6px" zoomAndPan="magnify"><defs><filter height="300%" id="f1iamixlfdtmyj" width="300%" x="-1" y="-1"><feGaussianBlur result="blurOut" stdDeviation="0.8"/><feColorMatrix in="blurOut" result="blurOut2" type="matrix" values="0 0 0 0 0 0 0 0 0 0 0 0 0 0 0 0 0 0 .4 0"/><feOffset dx="1.6" dy="1.6" in="blurOut2" result="blurOut3"/><feBlend in="SourceGraphic" in2="blurOut3" mode="normal"/></filter></defs><g><text fill="#000000" font-family="sans-serif" font-size="7.2" lengthAdjust="spacingAndGlyphs" text-decoration="underline" textLength="103.2" x="201.6" y="7.4742">CONTROLLER's Class Diagram</text><text fill="#000000" font-family="sans-serif" font-size="7.2" lengthAdjust="spacingAndGlyphs" textLength="0" x="254.2" y="16.5305"/><!--MD5=[b96a9a473a257e29118e4c189bb9a890]
cluster it.polimi.ingswPSP35.server--><polygon fill="#FFFFFF" filter="url(#f1iamixlfdtmyj)" points="8.8,27.7125,88.8,27.7125,91.6,37.1563,332.8,37.1563,332.8,322.9125,8.8,322.9125,8.8,27.7125" style="stroke: #000000; stroke-width: 0.6000000000000001;"/><line style="stroke: #000000; stroke-width: 0.6000000000000001;" x1="8.8" x2="91.6" y1="37.1563" y2="37.1563"/><text fill="#000000" font-family="sans-serif" font-size="5.6" font-weight="bold" lengthAdjust="spacingAndGlyphs" textLength="77.6" x="10.4" y="34.3258">it.polimi.ingswPSP35.server</text><!--MD5=[4096684b19c32cacaffb0bd21c9a449c]
cluster it.polimi.ingswPSP35.server.controller--><polygon fill="#FFFFFF" filter="url(#f1iamixlfdtmyj)" points="18.4,45.3125,48.4,45.3125,51.2,54.7563,282,54.7563,282,313.3125,18.4,313.3125,18.4,45.3125" style="stroke: #000000; stroke-width: 0.6000000000000001;"/><line style="stroke: #000000; stroke-width: 0.6000000000000001;" x1="18.4" x2="51.2" y1="54.7563" y2="54.7563"/><text fill="#000000" font-family="sans-serif" font-size="5.6" font-weight="bold" lengthAdjust="spacingAndGlyphs" textLength="27.6" x="20" y="51.9258">controller</text><!--MD5=[1964272925f59f2815b6443fb5e4f070]
cluster it.polimi.ingswPSP35.server.model--><polygon fill="#FFFFFF" filter="url(#f1iamixlfdtmyj)" points="319.2,342.9125,418,342.9125,420.8,352.3563,422,352.3563,422,382.9125,319.2,382.9125,319.2,342.9125" style="stroke: #000000; stroke-width: 0.6000000000000001;"/><line style="stroke: #000000; stroke-width: 0.6000000000000001;" x1="319.2" x2="420.8" y1="352.3563" y2="352.3563"/><text fill="#000000" font-family="sans-serif" font-size="5.6" font-weight="bold" lengthAdjust="spacingAndGlyphs" textLength="96.4" x="320.8" y="349.5258">it.polimi.ingswPSP35.server.model</text><!--MD5=[9a89ef9d7b07813962bc92fb9f3c4c15]
cluster it.polimi.ingswPSP35.server.controller.divinities--><polygon fill="#FFFFFF" filter="url(#f1iamixlfdtmyj)" points="342.4,256.7125,479.2,256.7125,482,266.1563,483.2,266.1563,483.2,296.7125,342.4,296.7125,342.4,256.7125" style="stroke: #000000; stroke-width: 0.6000000000000001;"/><line style="stroke: #000000; stroke-width: 0.6000000000000001;" x1="342.4" x2="482" y1="266.1563" y2="266.1563"/><text fill="#000000" font-family="sans-serif" font-size="5.6" font-weight="bold" lengthAdjust="spacingAndGlyphs" textLength="134.4" x="344" y="263.3258">it.polimi.ingswPSP35.server.controller.divinities</text><!--MD5=[f571c992ff08e12f4969d4e643b5ec37]
class it.polimi.ingswPSP35.server.VirtualView--><rect fill="#FEFECE" filter="url(#f1iamixlfdtmyj)" height="19.2" id="it.polimi.ingswPSP35.server.VirtualView" style="stroke: #A80036; stroke-width: 0.6000000000000001;" width="36.8" x="289.6" y="193.1125"/><ellipse cx="295.6" cy="199.5125" fill="#ADD1B2" rx="4.4" ry="4.4" style="stroke: #A80036; stroke-width: 0.4;"/><path d="M296.4,198.1125 Q296.4813,197.9125 296.575,197.8125 Q296.6688,197.7125 296.775,197.7125 Q296.9625,197.7125 297.0813,197.825 Q297.2,197.9375 297.2,198.2 L297.2,198.825 Q297.2,199.0875 297.0875,199.2 Q296.975,199.3125 296.8,199.3125 Q296.6438,199.3125 296.5438,199.2438 Q296.4438,199.175 296.4,198.9938 Q296.3813,198.8688 296.3125,198.8 Q296.1875,198.6688 295.9625,198.5938 Q295.7375,198.5125 295.5125,198.5125 Q295.2313,198.5125 294.9938,198.625 Q294.7625,198.7375 294.5813,198.9875 Q294.4,199.2375 294.4,199.5813 L294.4,199.95 Q294.4,200.3625 294.7375,200.6375 Q295.075,200.9125 295.675,200.9125 Q296.0313,200.9125 296.2813,200.8313 Q296.425,200.7875 296.5875,200.6438 Q296.6938,200.5625 296.75,200.5375 Q296.8063,200.5125 296.875,200.5125 Q297.0063,200.5125 297.1,200.6188 Q297.2,200.7188 297.2,200.8625 Q297.2,201 297.0625,201.1625 Q296.8625,201.4 296.5438,201.5313 Q296.125,201.7125 295.6125,201.7125 Q295.0125,201.7125 294.5313,201.475 Q294.1438,201.2875 293.8688,200.8813 Q293.6,200.475 293.6,199.9938 L293.6,199.5563 Q293.6,199.0563 293.8375,198.6188 Q294.0813,198.1813 294.5,197.95 Q294.925,197.7125 295.4,197.7125 Q295.6875,197.7125 295.9375,197.8125 Q296.1875,197.9125 296.4,198.1125 Z "/><text fill="#000000" font-family="sans-serif" font-size="4.8" lengthAdjust="spacingAndGlyphs" textLength="24" x="301.2" y="201.4766">VirtualView</text><line style="stroke: #A80036; stroke-width: 0.6000000000000001;" x1="290" x2="326" y1="205.9125" y2="205.9125"/><line style="stroke: #A80036; stroke-width: 0.6000000000000001;" x1="290" x2="326" y1="209.1125" y2="209.1125"/><!--MD5=[fdfc27e47011f959793b89975f764a98]
class it.polimi.ingswPSP35.server.controller.DefeatChecker--><rect fill="#FEFECE" filter="url(#f1iamixlfdtmyj)" height="52.4063" id="it.polimi.ingswPSP35.server.controller.DefeatChecker" style="stroke: #A80036; stroke-width: 0.6000000000000001;" width="93.2" x="140.6" y="254.5125"/><ellipse cx="169.1" cy="260.9125" fill="#ADD1B2" rx="4.4" ry="4.4" style="stroke: #A80036; stroke-width: 0.4;"/><path d="M169.9,259.5125 Q169.9813,259.3125 170.075,259.2125 Q170.1688,259.1125 170.275,259.1125 Q170.4625,259.1125 170.5813,259.225 Q170.7,259.3375 170.7,259.6 L170.7,260.225 Q170.7,260.4875 170.5875,260.6 Q170.475,260.7125 170.3,260.7125 Q170.1438,260.7125 170.0438,260.6438 Q169.9438,260.575 169.9,260.3938 Q169.8813,260.2688 169.8125,260.2 Q169.6875,260.0688 169.4625,259.9938 Q169.2375,259.9125 169.0125,259.9125 Q168.7313,259.9125 168.4938,260.025 Q168.2625,260.1375 168.0813,260.3875 Q167.9,260.6375 167.9,260.9813 L167.9,261.35 Q167.9,261.7625 168.2375,262.0375 Q168.575,262.3125 169.175,262.3125 Q169.5313,262.3125 169.7813,262.2313 Q169.925,262.1875 170.0875,262.0438 Q170.1938,261.9625 170.25,261.9375 Q170.3063,261.9125 170.375,261.9125 Q170.5063,261.9125 170.6,262.0188 Q170.7,262.1188 170.7,262.2625 Q170.7,262.4 170.5625,262.5625 Q170.3625,262.8 170.0438,262.9313 Q169.625,263.1125 169.1125,263.1125 Q168.5125,263.1125 168.0313,262.875 Q167.6438,262.6875 167.3688,262.2813 Q167.1,261.875 167.1,261.3938 L167.1,260.9563 Q167.1,260.4563 167.3375,260.0188 Q167.5813,259.5813 168,259.35 Q168.425,259.1125 168.9,259.1125 Q169.1875,259.1125 169.4375,259.2125 Q169.6875,259.3125 169.9,259.5125 Z "/><text fill="#000000" font-family="sans-serif" font-size="4.8" lengthAdjust="spacingAndGlyphs" textLength="32.8" x="177.3" y="262.8766">DefeatChecker</text><line style="stroke: #A80036; stroke-width: 0.6000000000000001;" x1="141" x2="233.4" y1="267.3125" y2="267.3125"/><rect fill="none" height="2.4" style="stroke: #C82930; stroke-width: 0.4;" width="2.4" x="143.8" y="270.5125"/><text fill="#000000" font-family="sans-serif" font-size="4.4" lengthAdjust="spacingAndGlyphs" text-decoration="underline" textLength="82.8" x="148.6" y="273.4801">incrementsForAdjacentSquares : Integer[][]</text><rect fill="none" height="2.4" style="stroke: #C82930; stroke-width: 0.4;" width="2.4" x="143.8" y="276.0469"/><text fill="#000000" font-family="sans-serif" font-size="4.4" lengthAdjust="spacingAndGlyphs" textLength="46" x="148.6" y="279.0145">playerList : List&lt;Player&gt;</text><line style="stroke: #A80036; stroke-width: 0.6000000000000001;" x1="141" x2="233.4" y1="281.5813" y2="281.5813"/><ellipse cx="145" cy="285.9813" fill="#84BE84" rx="1.2" ry="1.2" style="stroke: #038048; stroke-width: 0.4;"/><text fill="#000000" font-family="sans-serif" font-size="4.4" lengthAdjust="spacingAndGlyphs" textLength="32" x="148.6" y="287.7488">DefeatChecker()</text><ellipse cx="145" cy="291.5156" fill="#84BE84" rx="1.2" ry="1.2" style="stroke: #038048; stroke-width: 0.4;"/><text fill="#000000" font-family="sans-serif" font-size="4.4" lengthAdjust="spacingAndGlyphs" textLength="27.6" x="148.6" y="293.2832">checkDefeat()</text><rect fill="#F24D5C" height="2.4" style="stroke: #C82930; stroke-width: 0.4;" width="2.4" x="143.8" y="295.85"/><text fill="#000000" font-family="sans-serif" font-size="4.4" lengthAdjust="spacingAndGlyphs" textLength="42.8" x="148.6" y="298.8176">getAdjacentSquares()</text><rect fill="#F24D5C" height="2.4" style="stroke: #C82930; stroke-width: 0.4;" width="2.4" x="143.8" y="301.3844"/><text fill="#000000" font-family="sans-serif" font-size="4.4" lengthAdjust="spacingAndGlyphs" textLength="18.8" x="148.6" y="304.352">simulate()</text><!--MD5=[c91bb1aa05fd8a9457d461ae62151078]
class it.polimi.ingswPSP35.server.controller.DivinityFactory--><rect fill="#FEFECE" filter="url(#f1iamixlfdtmyj)" height="24.7344" id="it.polimi.ingswPSP35.server.controller.DivinityFactory" style="stroke: #A80036; stroke-width: 0.6000000000000001;" width="43.6" x="148.6" y="92.9125"/><ellipse cx="154.6" cy="99.3125" fill="#ADD1B2" rx="4.4" ry="4.4" style="stroke: #A80036; stroke-width: 0.4;"/><path d="M155.4,97.9125 Q155.4813,97.7125 155.575,97.6125 Q155.6688,97.5125 155.775,97.5125 Q155.9625,97.5125 156.0813,97.625 Q156.2,97.7375 156.2,98 L156.2,98.625 Q156.2,98.8875 156.0875,99 Q155.975,99.1125 155.8,99.1125 Q155.6438,99.1125 155.5438,99.0438 Q155.4438,98.975 155.4,98.7938 Q155.3813,98.6688 155.3125,98.6 Q155.1875,98.4688 154.9625,98.3938 Q154.7375,98.3125 154.5125,98.3125 Q154.2313,98.3125 153.9938,98.425 Q153.7625,98.5375 153.5813,98.7875 Q153.4,99.0375 153.4,99.3813 L153.4,99.75 Q153.4,100.1625 153.7375,100.4375 Q154.075,100.7125 154.675,100.7125 Q155.0313,100.7125 155.2813,100.6313 Q155.425,100.5875 155.5875,100.4438 Q155.6938,100.3625 155.75,100.3375 Q155.8063,100.3125 155.875,100.3125 Q156.0063,100.3125 156.1,100.4188 Q156.2,100.5188 156.2,100.6625 Q156.2,100.8 156.0625,100.9625 Q155.8625,101.2 155.5438,101.3313 Q155.125,101.5125 154.6125,101.5125 Q154.0125,101.5125 153.5313,101.275 Q153.1438,101.0875 152.8688,100.6813 Q152.6,100.275 152.6,99.7938 L152.6,99.3563 Q152.6,98.8563 152.8375,98.4188 Q153.0813,97.9813 153.5,97.75 Q153.925,97.5125 154.4,97.5125 Q154.6875,97.5125 154.9375,97.6125 Q155.1875,97.7125 155.4,97.9125 Z "/><text fill="#000000" font-family="sans-serif" font-size="4.8" lengthAdjust="spacingAndGlyphs" textLength="30.8" x="160.2" y="101.2766">DivinityFactory</text><line style="stroke: #A80036; stroke-width: 0.6000000000000001;" x1="149" x2="191.8" y1="105.7125" y2="105.7125"/><line style="stroke: #A80036; stroke-width: 0.6000000000000001;" x1="149" x2="191.8" y1="108.9125" y2="108.9125"/><ellipse cx="153" cy="113.3125" fill="#84BE84" rx="1.2" ry="1.2" style="stroke: #038048; stroke-width: 0.4;"/><text fill="#000000" font-family="sans-serif" font-size="4.4" lengthAdjust="spacingAndGlyphs" text-decoration="underline" textLength="15.6" x="156.6" y="115.0801">create()</text><!--MD5=[080b08203e2397fee54277d9645fb338]
class it.polimi.ingswPSP35.server.controller.DivinityMediator--><rect fill="#FEFECE" filter="url(#f1iamixlfdtmyj)" height="35.8031" id="it.polimi.ingswPSP35.server.controller.DivinityMediator" style="stroke: #A80036; stroke-width: 0.6000000000000001;" width="46.8" x="162.2" y="184.7125"/><ellipse cx="168.2" cy="191.1125" fill="#ADD1B2" rx="4.4" ry="4.4" style="stroke: #A80036; stroke-width: 0.4;"/><path d="M169,189.7125 Q169.0813,189.5125 169.175,189.4125 Q169.2688,189.3125 169.375,189.3125 Q169.5625,189.3125 169.6813,189.425 Q169.8,189.5375 169.8,189.8 L169.8,190.425 Q169.8,190.6875 169.6875,190.8 Q169.575,190.9125 169.4,190.9125 Q169.2438,190.9125 169.1438,190.8438 Q169.0438,190.775 169,190.5938 Q168.9813,190.4688 168.9125,190.4 Q168.7875,190.2688 168.5625,190.1938 Q168.3375,190.1125 168.1125,190.1125 Q167.8313,190.1125 167.5938,190.225 Q167.3625,190.3375 167.1813,190.5875 Q167,190.8375 167,191.1813 L167,191.55 Q167,191.9625 167.3375,192.2375 Q167.675,192.5125 168.275,192.5125 Q168.6313,192.5125 168.8813,192.4313 Q169.025,192.3875 169.1875,192.2438 Q169.2938,192.1625 169.35,192.1375 Q169.4063,192.1125 169.475,192.1125 Q169.6063,192.1125 169.7,192.2188 Q169.8,192.3188 169.8,192.4625 Q169.8,192.6 169.6625,192.7625 Q169.4625,193 169.1438,193.1313 Q168.725,193.3125 168.2125,193.3125 Q167.6125,193.3125 167.1313,193.075 Q166.7438,192.8875 166.4688,192.4813 Q166.2,192.075 166.2,191.5938 L166.2,191.1563 Q166.2,190.6563 166.4375,190.2188 Q166.6813,189.7813 167.1,189.55 Q167.525,189.3125 168,189.3125 Q168.2875,189.3125 168.5375,189.4125 Q168.7875,189.5125 169,189.7125 Z "/><text fill="#000000" font-family="sans-serif" font-size="4.8" lengthAdjust="spacingAndGlyphs" textLength="34" x="173.8" y="193.0766">DivinityMediator</text><line style="stroke: #A80036; stroke-width: 0.6000000000000001;" x1="162.6" x2="208.6" y1="197.5125" y2="197.5125"/><line style="stroke: #A80036; stroke-width: 0.6000000000000001;" x1="162.6" x2="208.6" y1="200.7125" y2="200.7125"/><ellipse cx="166.6" cy="205.1125" fill="#84BE84" rx="1.2" ry="1.2" style="stroke: #038048; stroke-width: 0.4;"/><text fill="#000000" font-family="sans-serif" font-size="4.4" lengthAdjust="spacingAndGlyphs" textLength="24" x="170.2" y="206.8801">checkBuild()</text><ellipse cx="166.6" cy="210.6469" fill="#84BE84" rx="1.2" ry="1.2" style="stroke: #038048; stroke-width: 0.4;"/><text fill="#000000" font-family="sans-serif" font-size="4.4" lengthAdjust="spacingAndGlyphs" textLength="25.2" x="170.2" y="212.4145">checkMove()</text><ellipse cx="166.6" cy="216.1813" fill="#84BE84" rx="1.2" ry="1.2" style="stroke: #038048; stroke-width: 0.4;"/><text fill="#000000" font-family="sans-serif" font-size="4.4" lengthAdjust="spacingAndGlyphs" textLength="22" x="170.2" y="217.9488">checkWin()</text><!--MD5=[0145602bbdec9dcb48972d7fa0e2dec3]
class it.polimi.ingswPSP35.server.controller.DivinityMediatorDecorator--><rect fill="#FEFECE" filter="url(#f1iamixlfdtmyj)" height="57.9406" id="it.polimi.ingswPSP35.server.controller.DivinityMediatorDecorator" style="stroke: #A80036; stroke-width: 0.6000000000000001;" width="69.2" x="206.2" y="76.3125"/><ellipse cx="212.2" cy="82.7125" fill="#A9DCDF" rx="4.4" ry="4.4" style="stroke: #A80036; stroke-width: 0.4;"/><path d="M212.9,83.3125 L211.5813,83.3125 L211.4063,83.7125 L211.4063,83.7125 L211.5938,83.7125 L211.8,83.9625 L211.8,84.1125 L211.8,84.2625 L211.5938,84.5125 L211.4063,84.5125 L210.65,84.5125 L210.4063,84.5125 L210.2,84.2625 L210.2,84.1125 L210.2,83.9625 L210.4063,83.7125 L210.65,83.7125 L211.575,81.3125 L211.225,81.3125 L210.8063,81.3125 L210.6,81.0625 L210.6,80.9125 L210.6,80.7625 L210.8063,80.5125 L211.225,80.5125 L212.6938,80.5125 L213.7688,83.7125 L213.9938,83.7125 L213.9938,83.7125 L214.2,83.9625 L214.2,84.1125 L214.2,84.2625 L213.9938,84.5125 L213.7688,84.5125 L213.0125,84.5125 L212.8063,84.5125 L212.6,84.2625 L212.6,84.1125 L212.6,83.9625 L212.8063,83.7125 L213.0125,83.7125 L213.0125,83.7125 L212.9,83.3125 Z M212.6813,82.5125 L212.2,81.0813 L211.7875,82.5125 L212.6813,82.5125 Z "/><text fill="#000000" font-family="sans-serif" font-size="4.8" font-style="italic" lengthAdjust="spacingAndGlyphs" textLength="56.4" x="217.8" y="84.6766">DivinityMediatorDecorator</text><line style="stroke: #A80036; stroke-width: 0.6000000000000001;" x1="206.6" x2="275" y1="89.1125" y2="89.1125"/><line style="stroke: #A80036; stroke-width: 0.6000000000000001;" x1="206.6" x2="275" y1="92.3125" y2="92.3125"/><ellipse cx="210.6" cy="96.7125" fill="#84BE84" rx="1.2" ry="1.2" style="stroke: #038048; stroke-width: 0.4;"/><text fill="#000000" font-family="sans-serif" font-size="4.4" lengthAdjust="spacingAndGlyphs" textLength="52.4" x="214.2" y="98.4801">DivinityMediatorDecorator()</text><ellipse cx="210.6" cy="102.2469" fill="#84BE84" rx="1.2" ry="1.2" style="stroke: #038048; stroke-width: 0.4;"/><text fill="#000000" font-family="sans-serif" font-size="4.4" lengthAdjust="spacingAndGlyphs" textLength="24" x="214.2" y="104.0145">checkBuild()</text><ellipse cx="210.6" cy="107.7813" fill="#84BE84" rx="1.2" ry="1.2" style="stroke: #038048; stroke-width: 0.4;"/><text fill="#000000" font-family="sans-serif" font-size="4.4" lengthAdjust="spacingAndGlyphs" textLength="25.2" x="214.2" y="109.5488">checkMove()</text><ellipse cx="210.6" cy="113.3156" fill="#84BE84" rx="1.2" ry="1.2" style="stroke: #038048; stroke-width: 0.4;"/><text fill="#000000" font-family="sans-serif" font-size="4.4" lengthAdjust="spacingAndGlyphs" textLength="22" x="214.2" y="115.0832">checkWin()</text><ellipse cx="210.6" cy="118.85" fill="#84BE84" rx="1.2" ry="1.2" style="stroke: #038048; stroke-width: 0.4;"/><text fill="#000000" font-family="sans-serif" font-size="4.4" lengthAdjust="spacingAndGlyphs" textLength="45.6" x="214.2" y="120.6176">getDecoratedMediator()</text><ellipse cx="210.6" cy="124.3844" fill="#84BE84" rx="1.2" ry="1.2" style="stroke: #038048; stroke-width: 0.4;"/><text fill="#000000" font-family="sans-serif" font-size="4.4" font-style="italic" lengthAdjust="spacingAndGlyphs" textLength="20.8" x="214.2" y="126.152">getName()</text><ellipse cx="210.6" cy="129.9188" fill="#84BE84" rx="1.2" ry="1.2" style="stroke: #038048; stroke-width: 0.4;"/><text fill="#000000" font-family="sans-serif" font-size="4.4" lengthAdjust="spacingAndGlyphs" textLength="36.8" x="214.2" y="131.6863">removeDecorator()</text><!--MD5=[4f057d51cb2010e1b6f7ffa3f9e1bb06]
class it.polimi.ingswPSP35.server.controller.GameDirector--><rect fill="#FEFECE" filter="url(#f1iamixlfdtmyj)" height="91.1469" id="it.polimi.ingswPSP35.server.controller.GameDirector" style="stroke: #A80036; stroke-width: 0.6000000000000001;" width="57.6" x="76.8" y="59.7125"/><ellipse cx="89.1" cy="66.1125" fill="#ADD1B2" rx="4.4" ry="4.4" style="stroke: #A80036; stroke-width: 0.4;"/><path d="M89.9,64.7125 Q89.9813,64.5125 90.075,64.4125 Q90.1688,64.3125 90.275,64.3125 Q90.4625,64.3125 90.5813,64.425 Q90.7,64.5375 90.7,64.8 L90.7,65.425 Q90.7,65.6875 90.5875,65.8 Q90.475,65.9125 90.3,65.9125 Q90.1438,65.9125 90.0438,65.8438 Q89.9438,65.775 89.9,65.5938 Q89.8813,65.4688 89.8125,65.4 Q89.6875,65.2688 89.4625,65.1938 Q89.2375,65.1125 89.0125,65.1125 Q88.7313,65.1125 88.4938,65.225 Q88.2625,65.3375 88.0813,65.5875 Q87.9,65.8375 87.9,66.1813 L87.9,66.55 Q87.9,66.9625 88.2375,67.2375 Q88.575,67.5125 89.175,67.5125 Q89.5313,67.5125 89.7813,67.4313 Q89.925,67.3875 90.0875,67.2438 Q90.1938,67.1625 90.25,67.1375 Q90.3063,67.1125 90.375,67.1125 Q90.5063,67.1125 90.6,67.2188 Q90.7,67.3188 90.7,67.4625 Q90.7,67.6 90.5625,67.7625 Q90.3625,68 90.0438,68.1313 Q89.625,68.3125 89.1125,68.3125 Q88.5125,68.3125 88.0313,68.075 Q87.6438,67.8875 87.3688,67.4813 Q87.1,67.075 87.1,66.5938 L87.1,66.1563 Q87.1,65.6563 87.3375,65.2188 Q87.5813,64.7813 88,64.55 Q88.425,64.3125 88.9,64.3125 Q89.1875,64.3125 89.4375,64.4125 Q89.6875,64.5125 89.9,64.7125 Z "/><text fill="#000000" font-family="sans-serif" font-size="4.8" lengthAdjust="spacingAndGlyphs" textLength="30.8" x="96.1" y="68.0766">GameDirector</text><line style="stroke: #A80036; stroke-width: 0.6000000000000001;" x1="77.2" x2="134" y1="72.5125" y2="72.5125"/><polygon fill="none" points="81.2,75.3125,79.6,77.7125,82.8,77.7125" style="stroke: #1963A0; stroke-width: 0.4;"/><text fill="#000000" font-family="sans-serif" font-size="4.4" lengthAdjust="spacingAndGlyphs" text-decoration="underline" textLength="47.2" x="84.8" y="78.6801">allDivinities : List&lt;String&gt;</text><polygon fill="none" points="81.2,80.8469,79.6,83.2469,82.8,83.2469" style="stroke: #1963A0; stroke-width: 0.4;"/><text fill="#000000" font-family="sans-serif" font-size="4.4" lengthAdjust="spacingAndGlyphs" text-decoration="underline" textLength="45.2" x="84.8" y="84.2145">colourList : List&lt;String&gt;</text><rect fill="none" height="2.4" style="stroke: #C82930; stroke-width: 0.4;" width="2.4" x="80" y="86.7813"/><text fill="#000000" font-family="sans-serif" font-size="4.4" lengthAdjust="spacingAndGlyphs" textLength="46" x="84.8" y="89.7488">playerList : List&lt;Player&gt;</text><line style="stroke: #A80036; stroke-width: 0.6000000000000001;" x1="77.2" x2="134" y1="92.3156" y2="92.3156"/><ellipse cx="81.2" cy="96.7156" fill="#84BE84" rx="1.2" ry="1.2" style="stroke: #038048; stroke-width: 0.4;"/><text fill="#000000" font-family="sans-serif" font-size="4.4" lengthAdjust="spacingAndGlyphs" textLength="29.6" x="84.8" y="98.4832">GameDirector()</text><ellipse cx="81.2" cy="102.25" fill="#84BE84" rx="1.2" ry="1.2" style="stroke: #038048; stroke-width: 0.4;"/><text fill="#000000" font-family="sans-serif" font-size="4.4" lengthAdjust="spacingAndGlyphs" textLength="22.4" x="84.8" y="104.0176">playGame()</text><ellipse cx="81.2" cy="107.7844" fill="#84BE84" rx="1.2" ry="1.2" style="stroke: #038048; stroke-width: 0.4;"/><text fill="#000000" font-family="sans-serif" font-size="4.4" lengthAdjust="spacingAndGlyphs" textLength="14" x="84.8" y="109.552">setup()</text><rect fill="#F24D5C" height="2.4" style="stroke: #C82930; stroke-width: 0.4;" width="2.4" x="80" y="112.1188"/><text fill="#000000" font-family="sans-serif" font-size="4.4" lengthAdjust="spacingAndGlyphs" textLength="28.4" x="84.8" y="115.0863">assignColors()</text><rect fill="#F24D5C" height="2.4" style="stroke: #C82930; stroke-width: 0.4;" width="2.4" x="80" y="117.6531"/><text fill="#000000" font-family="sans-serif" font-size="4.4" lengthAdjust="spacingAndGlyphs" textLength="32.8" x="84.8" y="120.6207">assignDivinities()</text><rect fill="#F24D5C" height="2.4" style="stroke: #C82930; stroke-width: 0.4;" width="2.4" x="80" y="123.1875"/><text fill="#000000" font-family="sans-serif" font-size="4.4" lengthAdjust="spacingAndGlyphs" textLength="26.8" x="84.8" y="126.1551">deletePlayer()</text><rect fill="#F24D5C" height="2.4" style="stroke: #C82930; stroke-width: 0.4;" width="2.4" x="80" y="128.7219"/><text fill="#000000" font-family="sans-serif" font-size="4.4" lengthAdjust="spacingAndGlyphs" textLength="44.4" x="84.8" y="131.6895">getPlayerFromDivinity()</text><rect fill="#F24D5C" height="2.4" style="stroke: #C82930; stroke-width: 0.4;" width="2.4" x="80" y="134.2563"/><text fill="#000000" font-family="sans-serif" font-size="4.4" lengthAdjust="spacingAndGlyphs" textLength="44.8" x="84.8" y="137.2238">initializeGameClasses()</text><rect fill="#F24D5C" height="2.4" style="stroke: #C82930; stroke-width: 0.4;" width="2.4" x="80" y="139.7906"/><text fill="#000000" font-family="sans-serif" font-size="4.4" lengthAdjust="spacingAndGlyphs" textLength="30" x="84.8" y="142.7582">placeWorkers()</text><rect fill="#F24D5C" height="2.4" style="stroke: #C82930; stroke-width: 0.4;" width="2.4" x="80" y="145.325"/><text fill="#000000" font-family="sans-serif" font-size="4.4" lengthAdjust="spacingAndGlyphs" textLength="20" x="84.8" y="148.2926">playTurn()</text><!--MD5=[6d29b9758af9bf22d5af5805f36d7823]
class it.polimi.ingswPSP35.server.controller.SentinelDecorator--><rect fill="#FEFECE" filter="url(#f1iamixlfdtmyj)" height="30.2688" id="it.polimi.ingswPSP35.server.controller.SentinelDecorator" style="stroke: #A80036; stroke-width: 0.6000000000000001;" width="52.4" x="223" y="187.5125"/><ellipse cx="229" cy="193.9125" fill="#ADD1B2" rx="4.4" ry="4.4" style="stroke: #A80036; stroke-width: 0.4;"/><path d="M229.8,192.5125 Q229.8813,192.3125 229.975,192.2125 Q230.0688,192.1125 230.175,192.1125 Q230.3625,192.1125 230.4813,192.225 Q230.6,192.3375 230.6,192.6 L230.6,193.225 Q230.6,193.4875 230.4875,193.6 Q230.375,193.7125 230.2,193.7125 Q230.0438,193.7125 229.9438,193.6438 Q229.8438,193.575 229.8,193.3938 Q229.7813,193.2688 229.7125,193.2 Q229.5875,193.0688 229.3625,192.9938 Q229.1375,192.9125 228.9125,192.9125 Q228.6313,192.9125 228.3938,193.025 Q228.1625,193.1375 227.9813,193.3875 Q227.8,193.6375 227.8,193.9813 L227.8,194.35 Q227.8,194.7625 228.1375,195.0375 Q228.475,195.3125 229.075,195.3125 Q229.4313,195.3125 229.6813,195.2313 Q229.825,195.1875 229.9875,195.0438 Q230.0938,194.9625 230.15,194.9375 Q230.2063,194.9125 230.275,194.9125 Q230.4063,194.9125 230.5,195.0188 Q230.6,195.1188 230.6,195.2625 Q230.6,195.4 230.4625,195.5625 Q230.2625,195.8 229.9438,195.9313 Q229.525,196.1125 229.0125,196.1125 Q228.4125,196.1125 227.9313,195.875 Q227.5438,195.6875 227.2688,195.2813 Q227,194.875 227,194.3938 L227,193.9563 Q227,193.4563 227.2375,193.0188 Q227.4813,192.5813 227.9,192.35 Q228.325,192.1125 228.8,192.1125 Q229.0875,192.1125 229.3375,192.2125 Q229.5875,192.3125 229.8,192.5125 Z "/><text fill="#000000" font-family="sans-serif" font-size="4.8" lengthAdjust="spacingAndGlyphs" textLength="39.6" x="234.6" y="195.8766">SentinelDecorator</text><line style="stroke: #A80036; stroke-width: 0.6000000000000001;" x1="223.4" x2="275" y1="200.3125" y2="200.3125"/><line style="stroke: #A80036; stroke-width: 0.6000000000000001;" x1="223.4" x2="275" y1="203.5125" y2="203.5125"/><ellipse cx="227.4" cy="207.9125" fill="#84BE84" rx="1.2" ry="1.2" style="stroke: #038048; stroke-width: 0.4;"/><text fill="#000000" font-family="sans-serif" font-size="4.4" lengthAdjust="spacingAndGlyphs" textLength="37.6" x="231" y="209.6801">SentinelDecorator()</text><ellipse cx="227.4" cy="213.4469" fill="#84BE84" rx="1.2" ry="1.2" style="stroke: #038048; stroke-width: 0.4;"/><text fill="#000000" font-family="sans-serif" font-size="4.4" lengthAdjust="spacingAndGlyphs" textLength="20" x="231" y="215.2145">getName()</text><!--MD5=[3cdc2f1207560cb1b3f4d4407c0e47e1]
class it.polimi.ingswPSP35.server.controller.TurnTick--><rect fill="#FEFECE" filter="url(#f1iamixlfdtmyj)" height="41.3375" id="it.polimi.ingswPSP35.server.controller.TurnTick" style="stroke: #A80036; stroke-width: 0.6000000000000001;" width="76" x="24.8" y="182.1125"/><ellipse cx="51.7" cy="188.5125" fill="#ADD1B2" rx="4.4" ry="4.4" style="stroke: #A80036; stroke-width: 0.4;"/><path d="M52.5,187.1125 Q52.5813,186.9125 52.675,186.8125 Q52.7688,186.7125 52.875,186.7125 Q53.0625,186.7125 53.1813,186.825 Q53.3,186.9375 53.3,187.2 L53.3,187.825 Q53.3,188.0875 53.1875,188.2 Q53.075,188.3125 52.9,188.3125 Q52.7438,188.3125 52.6438,188.2438 Q52.5438,188.175 52.5,187.9938 Q52.4813,187.8688 52.4125,187.8 Q52.2875,187.6688 52.0625,187.5938 Q51.8375,187.5125 51.6125,187.5125 Q51.3313,187.5125 51.0938,187.625 Q50.8625,187.7375 50.6813,187.9875 Q50.5,188.2375 50.5,188.5813 L50.5,188.95 Q50.5,189.3625 50.8375,189.6375 Q51.175,189.9125 51.775,189.9125 Q52.1313,189.9125 52.3813,189.8313 Q52.525,189.7875 52.6875,189.6438 Q52.7938,189.5625 52.85,189.5375 Q52.9063,189.5125 52.975,189.5125 Q53.1063,189.5125 53.2,189.6188 Q53.3,189.7188 53.3,189.8625 Q53.3,190 53.1625,190.1625 Q52.9625,190.4 52.6438,190.5313 Q52.225,190.7125 51.7125,190.7125 Q51.1125,190.7125 50.6313,190.475 Q50.2438,190.2875 49.9688,189.8813 Q49.7,189.475 49.7,188.9938 L49.7,188.5563 Q49.7,188.0563 49.9375,187.6188 Q50.1813,187.1813 50.6,186.95 Q51.025,186.7125 51.5,186.7125 Q51.7875,186.7125 52.0375,186.8125 Q52.2875,186.9125 52.5,187.1125 Z "/><text fill="#000000" font-family="sans-serif" font-size="4.8" lengthAdjust="spacingAndGlyphs" textLength="18.8" x="59.9" y="190.4766">TurnTick</text><line style="stroke: #A80036; stroke-width: 0.6000000000000001;" x1="25.2" x2="100.4" y1="194.9125" y2="194.9125"/><rect fill="none" height="2.4" style="stroke: #C82930; stroke-width: 0.4;" width="2.4" x="28" y="198.1125"/><text fill="#000000" font-family="sans-serif" font-size="4.4" lengthAdjust="spacingAndGlyphs" textLength="65.6" x="32.8" y="201.0801">turns : Map&lt;String, AbstractTurn&gt;</text><line style="stroke: #A80036; stroke-width: 0.6000000000000001;" x1="25.2" x2="100.4" y1="203.6469" y2="203.6469"/><ellipse cx="29.2" cy="208.0469" fill="#84BE84" rx="1.2" ry="1.2" style="stroke: #038048; stroke-width: 0.4;"/><text fill="#000000" font-family="sans-serif" font-size="4.4" lengthAdjust="spacingAndGlyphs" textLength="19.6" x="32.8" y="209.8145">TurnTick()</text><ellipse cx="29.2" cy="213.5813" fill="#84BE84" rx="1.2" ry="1.2" style="stroke: #038048; stroke-width: 0.4;"/><text fill="#000000" font-family="sans-serif" font-size="4.4" lengthAdjust="spacingAndGlyphs" textLength="27.6" x="32.8" y="215.3488">checkDefeat()</text><ellipse cx="29.2" cy="219.1156" fill="#84BE84" rx="1.2" ry="1.2" style="stroke: #038048; stroke-width: 0.4;"/><text fill="#000000" font-family="sans-serif" font-size="4.4" lengthAdjust="spacingAndGlyphs" textLength="24.8" x="32.8" y="220.8832">handleTurn()</text><!--MD5=[481a95d792226e498a63c9bcf6374ff2]
class it.polimi.ingswPSP35.server.controller.Winner--><rect fill="#FEFECE" filter="url(#f1iamixlfdtmyj)" height="35.8031" id="it.polimi.ingswPSP35.server.controller.Winner" style="stroke: #A80036; stroke-width: 0.6000000000000001;" width="33.2" x="115" y="184.7125"/><ellipse cx="123.16" cy="191.1125" fill="#ADD1B2" rx="4.4" ry="4.4" style="stroke: #A80036; stroke-width: 0.4;"/><path d="M123.96,189.7125 Q124.0412,189.5125 124.135,189.4125 Q124.2287,189.3125 124.335,189.3125 Q124.5225,189.3125 124.6413,189.425 Q124.76,189.5375 124.76,189.8 L124.76,190.425 Q124.76,190.6875 124.6475,190.8 Q124.535,190.9125 124.36,190.9125 Q124.2038,190.9125 124.1037,190.8438 Q124.0038,190.775 123.96,190.5938 Q123.9413,190.4688 123.8725,190.4 Q123.7475,190.2688 123.5225,190.1938 Q123.2975,190.1125 123.0725,190.1125 Q122.7912,190.1125 122.5538,190.225 Q122.3225,190.3375 122.1413,190.5875 Q121.96,190.8375 121.96,191.1813 L121.96,191.55 Q121.96,191.9625 122.2975,192.2375 Q122.635,192.5125 123.235,192.5125 Q123.5913,192.5125 123.8413,192.4313 Q123.985,192.3875 124.1475,192.2438 Q124.2538,192.1625 124.31,192.1375 Q124.3663,192.1125 124.435,192.1125 Q124.5663,192.1125 124.66,192.2188 Q124.76,192.3188 124.76,192.4625 Q124.76,192.6 124.6225,192.7625 Q124.4225,193 124.1037,193.1313 Q123.685,193.3125 123.1725,193.3125 Q122.5725,193.3125 122.0913,193.075 Q121.7038,192.8875 121.4288,192.4813 Q121.16,192.075 121.16,191.5938 L121.16,191.1563 Q121.16,190.6563 121.3975,190.2188 Q121.6413,189.7813 122.06,189.55 Q122.485,189.3125 122.96,189.3125 Q123.2475,189.3125 123.4975,189.4125 Q123.7475,189.5125 123.96,189.7125 Z "/><text fill="#000000" font-family="sans-serif" font-size="4.8" lengthAdjust="spacingAndGlyphs" textLength="15.6" x="129.24" y="193.0766">Winner</text><line style="stroke: #A80036; stroke-width: 0.6000000000000001;" x1="115.4" x2="147.8" y1="197.5125" y2="197.5125"/><line style="stroke: #A80036; stroke-width: 0.6000000000000001;" x1="115.4" x2="147.8" y1="200.7125" y2="200.7125"/><ellipse cx="119.4" cy="205.1125" fill="#84BE84" rx="1.2" ry="1.2" style="stroke: #038048; stroke-width: 0.4;"/><text fill="#000000" font-family="sans-serif" font-size="4.4" lengthAdjust="spacingAndGlyphs" textLength="16.8" x="123" y="206.8801">Winner()</text><ellipse cx="119.4" cy="210.6469" fill="#84BE84" rx="1.2" ry="1.2" style="stroke: #038048; stroke-width: 0.4;"/><text fill="#000000" font-family="sans-serif" font-size="4.4" lengthAdjust="spacingAndGlyphs" textLength="22.8" x="123" y="212.4145">getWinner()</text><ellipse cx="119.4" cy="216.1813" fill="#84BE84" rx="1.2" ry="1.2" style="stroke: #038048; stroke-width: 0.4;"/><text fill="#000000" font-family="sans-serif" font-size="4.4" lengthAdjust="spacingAndGlyphs" textLength="22.8" x="123" y="217.9488">setWinner()</text><!--MD5=[1e70dfb8c29ac4a1f88e020469cf295c]
class it.polimi.ingswPSP35.server.model.Board--><rect fill="#FEFECE" filter="url(#f1iamixlfdtmyj)" height="19.2" id="it.polimi.ingswPSP35.server.model.Board" style="stroke: #A80036; stroke-width: 0.6000000000000001;" width="26" x="357.4" y="357.3125"/><ellipse cx="363.4" cy="363.7125" fill="#ADD1B2" rx="4.4" ry="4.4" style="stroke: #A80036; stroke-width: 0.4;"/><path d="M364.2,362.3125 Q364.2813,362.1125 364.375,362.0125 Q364.4688,361.9125 364.575,361.9125 Q364.7625,361.9125 364.8813,362.025 Q365,362.1375 365,362.4 L365,363.025 Q365,363.2875 364.8875,363.4 Q364.775,363.5125 364.6,363.5125 Q364.4438,363.5125 364.3438,363.4438 Q364.2438,363.375 364.2,363.1938 Q364.1813,363.0688 364.1125,363 Q363.9875,362.8688 363.7625,362.7938 Q363.5375,362.7125 363.3125,362.7125 Q363.0313,362.7125 362.7938,362.825 Q362.5625,362.9375 362.3813,363.1875 Q362.2,363.4375 362.2,363.7813 L362.2,364.15 Q362.2,364.5625 362.5375,364.8375 Q362.875,365.1125 363.475,365.1125 Q363.8313,365.1125 364.0813,365.0313 Q364.225,364.9875 364.3875,364.8438 Q364.4938,364.7625 364.55,364.7375 Q364.6063,364.7125 364.675,364.7125 Q364.8063,364.7125 364.9,364.8188 Q365,364.9188 365,365.0625 Q365,365.2 364.8625,365.3625 Q364.6625,365.6 364.3438,365.7313 Q363.925,365.9125 363.4125,365.9125 Q362.8125,365.9125 362.3313,365.675 Q361.9438,365.4875 361.6688,365.0813 Q361.4,364.675 361.4,364.1938 L361.4,363.7563 Q361.4,363.2563 361.6375,362.8188 Q361.8813,362.3813 362.3,362.15 Q362.725,361.9125 363.2,361.9125 Q363.4875,361.9125 363.7375,362.0125 Q363.9875,362.1125 364.2,362.3125 Z "/><text fill="#000000" font-family="sans-serif" font-size="4.8" lengthAdjust="spacingAndGlyphs" textLength="13.2" x="369" y="365.6766">Board</text><line style="stroke: #A80036; stroke-width: 0.6000000000000001;" x1="357.8" x2="383" y1="370.1125" y2="370.1125"/><line style="stroke: #A80036; stroke-width: 0.6000000000000001;" x1="357.8" x2="383" y1="373.3125" y2="373.3125"/><!--MD5=[217328d92af2006afdc6f9e1df1d0468]
class it.polimi.ingswPSP35.server.controller.divinities.Divinity--><rect fill="#FEFECE" filter="url(#f1iamixlfdtmyj)" height="19.2" id="it.polimi.ingswPSP35.server.controller.divinities.Divinity" style="stroke: #A80036; stroke-width: 0.6000000000000001;" width="28" x="348.8" y="271.1125"/><ellipse cx="354.8" cy="277.5125" fill="#ADD1B2" rx="4.4" ry="4.4" style="stroke: #A80036; stroke-width: 0.4;"/><path d="M355.6,276.1125 Q355.6813,275.9125 355.775,275.8125 Q355.8688,275.7125 355.975,275.7125 Q356.1625,275.7125 356.2813,275.825 Q356.4,275.9375 356.4,276.2 L356.4,276.825 Q356.4,277.0875 356.2875,277.2 Q356.175,277.3125 356,277.3125 Q355.8438,277.3125 355.7438,277.2438 Q355.6438,277.175 355.6,276.9938 Q355.5813,276.8688 355.5125,276.8 Q355.3875,276.6688 355.1625,276.5938 Q354.9375,276.5125 354.7125,276.5125 Q354.4313,276.5125 354.1938,276.625 Q353.9625,276.7375 353.7813,276.9875 Q353.6,277.2375 353.6,277.5813 L353.6,277.95 Q353.6,278.3625 353.9375,278.6375 Q354.275,278.9125 354.875,278.9125 Q355.2313,278.9125 355.4813,278.8313 Q355.625,278.7875 355.7875,278.6438 Q355.8938,278.5625 355.95,278.5375 Q356.0063,278.5125 356.075,278.5125 Q356.2063,278.5125 356.3,278.6188 Q356.4,278.7188 356.4,278.8625 Q356.4,279 356.2625,279.1625 Q356.0625,279.4 355.7438,279.5313 Q355.325,279.7125 354.8125,279.7125 Q354.2125,279.7125 353.7313,279.475 Q353.3438,279.2875 353.0688,278.8813 Q352.8,278.475 352.8,277.9938 L352.8,277.5563 Q352.8,277.0563 353.0375,276.6188 Q353.2813,276.1813 353.7,275.95 Q354.125,275.7125 354.6,275.7125 Q354.8875,275.7125 355.1375,275.8125 Q355.3875,275.9125 355.6,276.1125 Z "/><text fill="#000000" font-family="sans-serif" font-size="4.8" lengthAdjust="spacingAndGlyphs" textLength="15.2" x="360.4" y="279.4766">Divinity</text><line style="stroke: #A80036; stroke-width: 0.6000000000000001;" x1="349.2" x2="376.4" y1="283.9125" y2="283.9125"/><line style="stroke: #A80036; stroke-width: 0.6000000000000001;" x1="349.2" x2="376.4" y1="287.1125" y2="287.1125"/><!--MD5=[8fd8f9e7e7ba258658d909dd0d1aa184]
reverse link it.polimi.ingswPSP35.server.controller.DefeatChecker to it.polimi.ingswPSP35.server.model.Board--><path d="M239.0796,298.9125 C239.0796,298.9125 367.1,298.9125 367.1,298.9125 C367.1,298.9125 367.1,338.3673 367.1,357.1697 " fill="none" id="it.polimi.ingswPSP35.server.controller.DefeatChecker&lt;-it.polimi.ingswPSP35.server.model.Board" style="stroke: #A80036; stroke-width: 0.4;"/><polygon fill="#FFFFFF" points="233.8796,298.9125,236.2796,300.5125,238.6796,298.9125,236.2796,297.3125,233.8796,298.9125" style="stroke: #A80036; stroke-width: 0.4;"/><text fill="#000000" font-family="sans-serif" font-size="5.2" lengthAdjust="spacingAndGlyphs" textLength="1.6" x="248.8" y="335.1105">.</text><!--MD5=[239fa4928c4533185fc91e930d1ba6ad]
reverse link it.polimi.ingswPSP35.server.controller.DivinityMediator to it.polimi.ingswPSP35.server.controller.DivinityMediatorDecorator--><path d="M207.1332,176.6205 C207.1332,176.6205 207.1332,134.4037 207.1332,134.4037 " fill="none" id="it.polimi.ingswPSP35.server.controller.DivinityMediator&lt;-it.polimi.ingswPSP35.server.controller.DivinityMediatorDecorator" style="stroke: #A80036; stroke-width: 0.4;"/><polygon fill="none" points="209.9332,176.6205,207.1332,184.6205,204.3332,176.6205,209.9332,176.6205" style="stroke: #A80036; stroke-width: 0.4;"/><!--MD5=[94f5ab04ef4bc60b6250e7b98584421b]
reverse link it.polimi.ingswPSP35.server.controller.DivinityMediatorDecorator to it.polimi.ingswPSP35.server.controller.DivinityMediator--><path d="M208.0668,139.6037 C208.0668,139.6037 208.0668,184.6365 208.0668,184.6365 " fill="none" id="it.polimi.ingswPSP35.server.controller.DivinityMediatorDecorator&lt;-it.polimi.ingswPSP35.server.controller.DivinityMediator" style="stroke: #A80036; stroke-width: 0.4;"/><polygon fill="#FFFFFF" points="208.0668,134.4037,206.4668,136.8037,208.0668,139.2037,209.6668,136.8037,208.0668,134.4037" style="stroke: #A80036; stroke-width: 0.4;"/><text fill="#000000" font-family="sans-serif" font-size="5.2" lengthAdjust="spacingAndGlyphs" textLength="1.6" x="223.6" y="168.7105">.</text><!--MD5=[c2b646c7b124a6ceaaf7af40e10f278a]
reverse link it.polimi.ingswPSP35.server.controller.GameDirector to it.polimi.ingswPSP35.server.model.Board--><path d="M139.6576,138.5125 C139.6576,138.5125 380.1,138.5125 380.1,138.5125 C380.1,138.5125 380.1,313.7717 380.1,357.2443 " fill="none" id="it.polimi.ingswPSP35.server.controller.GameDirector&lt;-it.polimi.ingswPSP35.server.model.Board" style="stroke: #A80036; stroke-width: 0.4;"/><polygon fill="#FFFFFF" points="134.4576,138.5125,136.8576,140.1125,139.2576,138.5125,136.8576,136.9125,134.4576,138.5125" style="stroke: #A80036; stroke-width: 0.4;"/><text fill="#000000" font-family="sans-serif" font-size="5.2" lengthAdjust="spacingAndGlyphs" textLength="1.6" x="497.2" y="241.1105">.</text><!--MD5=[1467622832f55c7e30b06894d01a4550]
reverse link it.polimi.ingswPSP35.server.controller.GameDirector to it.polimi.ingswPSP35.server.controller.DivinityMediator--><path d="M139.6128,146.9125 C139.6128,146.9125 177.2,146.9125 177.2,146.9125 C177.2,146.9125 177.2,168.3025 177.2,184.5957 " fill="none" id="it.polimi.ingswPSP35.server.controller.GameDirector&lt;-it.polimi.ingswPSP35.server.controller.DivinityMediator" style="stroke: #A80036; stroke-width: 0.4;"/><polygon fill="#FFFFFF" points="134.4128,146.9125,136.8128,148.5125,139.2128,146.9125,136.8128,145.3125,134.4128,146.9125" style="stroke: #A80036; stroke-width: 0.4;"/><text fill="#000000" font-family="sans-serif" font-size="5.2" lengthAdjust="spacingAndGlyphs" textLength="1.6" x="170" y="168.7105">.</text><!--MD5=[3d53d58c3203f4b0c1aa36d0ee9db7eb]
reverse link it.polimi.ingswPSP35.server.controller.GameDirector to it.polimi.ingswPSP35.server.controller.TurnTick--><path d="M88.8,156.2181 C88.8,156.2181 88.8,182.0593 88.8,182.0593 " fill="none" id="it.polimi.ingswPSP35.server.controller.GameDirector&lt;-it.polimi.ingswPSP35.server.controller.TurnTick" style="stroke: #A80036; stroke-width: 0.4;"/><polygon fill="#FFFFFF" points="88.8,151.0181,87.2,153.4181,88.8,155.8181,90.4,153.4181,88.8,151.0181" style="stroke: #A80036; stroke-width: 0.4;"/><text fill="#000000" font-family="sans-serif" font-size="5.2" lengthAdjust="spacingAndGlyphs" textLength="1.6" x="82" y="168.7105">.</text><!--MD5=[3fc1b8eccbd56be820e75c2b5005e21f]
reverse link it.polimi.ingswPSP35.server.controller.GameDirector to it.polimi.ingswPSP35.server.VirtualView--><path d="M139.6916,142.9125 C139.6916,142.9125 308,142.9125 308,142.9125 C308,142.9125 308,176.2005 308,193.1045 " fill="none" id="it.polimi.ingswPSP35.server.controller.GameDirector&lt;-it.polimi.ingswPSP35.server.VirtualView" style="stroke: #A80036; stroke-width: 0.4;"/><polygon fill="#FFFFFF" points="134.4916,142.9125,136.8916,144.5125,139.2916,142.9125,136.8916,141.3125,134.4916,142.9125" style="stroke: #A80036; stroke-width: 0.4;"/><text fill="#000000" font-family="sans-serif" font-size="5.2" lengthAdjust="spacingAndGlyphs" textLength="1.6" x="283.2" y="168.7105">.</text><!--MD5=[3d6c7cb1d559292f4d7b47f6d96b8acd]
reverse link it.polimi.ingswPSP35.server.controller.GameDirector to it.polimi.ingswPSP35.server.controller.Winner--><path d="M124.7,156.2181 C124.7,156.2181 124.7,184.6073 124.7,184.6073 " fill="none" id="it.polimi.ingswPSP35.server.controller.GameDirector&lt;-it.polimi.ingswPSP35.server.controller.Winner" style="stroke: #A80036; stroke-width: 0.4;"/><polygon fill="#FFFFFF" points="124.7,151.0181,123.1,153.4181,124.7,155.8181,126.3,153.4181,124.7,151.0181" style="stroke: #A80036; stroke-width: 0.4;"/><text fill="#000000" font-family="sans-serif" font-size="5.2" lengthAdjust="spacingAndGlyphs" textLength="1.6" x="119.2" y="168.7105">.</text><!--MD5=[1a0ddd65846d60c8c3e6178732a6285b]
reverse link it.polimi.ingswPSP35.server.controller.DivinityMediatorDecorator to it.polimi.ingswPSP35.server.controller.SentinelDecorator--><path d="M249.2,142.4037 C249.2,142.4037 249.2,187.4561 249.2,187.4561 " fill="none" id="it.polimi.ingswPSP35.server.controller.DivinityMediatorDecorator&lt;-it.polimi.ingswPSP35.server.controller.SentinelDecorator" style="stroke: #A80036; stroke-width: 0.4;"/><polygon fill="none" points="246.4,142.4037,249.2,134.4037,252,142.4037,246.4,142.4037" style="stroke: #A80036; stroke-width: 0.4;"/><!--MD5=[6e468dfaeae528f316a110f8a16865cd]
reverse link it.polimi.ingswPSP35.server.controller.TurnTick to it.polimi.ingswPSP35.server.controller.DefeatChecker--><path d="M62.8,228.5609 C62.8,228.5609 62.8,280.9125 62.8,280.9125 C62.8,280.9125 105.2252,280.9125 140.524,280.9125 " fill="none" id="it.polimi.ingswPSP35.server.controller.TurnTick&lt;-it.polimi.ingswPSP35.server.controller.DefeatChecker" style="stroke: #A80036; stroke-width: 0.4;"/><polygon fill="#FFFFFF" points="62.8,223.3609,61.2,225.7609,62.8,228.1609,64.4,225.7609,62.8,223.3609" style="stroke: #A80036; stroke-width: 0.4;"/><text fill="#000000" font-family="sans-serif" font-size="5.2" lengthAdjust="spacingAndGlyphs" textLength="1.6" x="146" y="241.1105">.</text><!--MD5=[4cb3380918c95765465b1fba47f17c2f]
reverse link it.polimi.ingswPSP35.server.controller.Winner to it.polimi.ingswPSP35.server.controller.divinities.Divinity--><path d="M144.4,226.0125 C144.4,226.0125 144.4,238.9125 144.4,238.9125 C144.4,238.9125 362.8,238.9125 362.8,238.9125 C362.8,238.9125 362.8,258.6697 362.8,271.0177 " fill="none" id="it.polimi.ingswPSP35.server.controller.Winner&lt;-it.polimi.ingswPSP35.server.controller.divinities.Divinity" style="stroke: #A80036; stroke-width: 0.4;"/><polygon fill="#FFFFFF" points="144.4,220.8125,142.8,223.2125,144.4,225.6125,146,223.2125,144.4,220.8125" style="stroke: #A80036; stroke-width: 0.4;"/><text fill="#000000" font-family="sans-serif" font-size="5.2" lengthAdjust="spacingAndGlyphs" textLength="1.6" x="247.6" y="241.1105">.</text><!--MD5=[aad73ddff34ae8b09496ff603bae0376]
@startuml

title __CONTROLLER's Class Diagram__\n

  namespace it.polimi.ingswPSP35.server {
    namespace controller {
     class it.polimi.ingswPSP35.server.controller.DefeatChecker {
              {static} - incrementsForAdjacentSquares : Integer[][]
              - playerList : List<Player>
              + DefeatChecker()
              + checkDefeat()
              - getAdjacentSquares()
              - simulate()
          }
    
      class it.polimi.ingswPSP35.server.controller.DivinityFactory {
          {static} + create()
      }
    class it.polimi.ingswPSP35.server.controller.DivinityMediator {
              + checkBuild()
              + checkMove()
              + checkWin()
          }
    abstract class it.polimi.ingswPSP35.server.controller.DivinityMediatorDecorator {
              + DivinityMediatorDecorator()
              + checkBuild()
              + checkMove()
              + checkWin()
              + getDecoratedMediator()
              {abstract} + getName()
              + removeDecorator()
          }
    class it.polimi.ingswPSP35.server.controller.GameDirector {
              {static} ~ allDivinities : List<String>
              {static} ~ colourList : List<String>
              - playerList : List<Player>
              + GameDirector()
              + playGame()
              + setup()
              - assignColors()
              - assignDivinities()
              - deletePlayer()
              - getPlayerFromDivinity()
              - initializeGameClasses()
              - placeWorkers()
              - playTurn()
          }
    class it.polimi.ingswPSP35.server.controller.SentinelDecorator {
              + SentinelDecorator()
              + getName()
          }
    class it.polimi.ingswPSP35.server.controller.TurnTick {
              - turns : Map<String, AbstractTurn>
              + TurnTick()
              + checkDefeat()
              + handleTurn()
          }
      class it.polimi.ingswPSP35.server.controller.Winner {
          + Winner()
          + getWinner()
          + setWinner()
      }
    }
  }
  
skinparam linetype ortho
  it.polimi.ingswPSP35.server.controller.DefeatChecker o- - it.polimi.ingswPSP35.server.model.Board : .
  it.polimi.ingswPSP35.server.controller.DivinityMediatorDecorator -up-|> it.polimi.ingswPSP35.server.controller.DivinityMediator
  it.polimi.ingswPSP35.server.controller.DivinityMediatorDecorator o- - it.polimi.ingswPSP35.server.controller.DivinityMediator : .
  it.polimi.ingswPSP35.server.controller.GameDirector o- - it.polimi.ingswPSP35.server.model.Board :.
  it.polimi.ingswPSP35.server.controller.GameDirector o- - it.polimi.ingswPSP35.server.controller.DivinityMediator : .
  it.polimi.ingswPSP35.server.controller.GameDirector o- - it.polimi.ingswPSP35.server.controller.TurnTick : .
  it.polimi.ingswPSP35.server.controller.GameDirector o- - it.polimi.ingswPSP35.server.VirtualView : .
  it.polimi.ingswPSP35.server.controller.GameDirector o- - it.polimi.ingswPSP35.server.controller.Winner : .
  it.polimi.ingswPSP35.server.controller.SentinelDecorator -up-|> it.polimi.ingswPSP35.server.controller.DivinityMediatorDecorator
  it.polimi.ingswPSP35.server.controller.TurnTick o- - it.polimi.ingswPSP35.server.controller.DefeatChecker :.
  it.polimi.ingswPSP35.server.controller.Winner o- - it.polimi.ingswPSP35.server.controller.divinities.Divinity : .


@enduml

PlantUML version 1.2020.09(Sun May 10 12:51:06 CEST 2020)
(GPL source distribution)
Java Runtime: OpenJDK Runtime Environment
JVM: OpenJDK 64-Bit Server VM
Java Version: 11.0.7+10-b765.53
Operating System: Windows 10
Default Encoding: Cp1252
Language: it
Country: IT
--></g></svg>