<?xml version="1.0" encoding="UTF-8" standalone="no"?><svg xmlns="http://www.w3.org/2000/svg" xmlns:xlink="http://www.w3.org/1999/xlink" contentScriptType="application/ecmascript" contentStyleType="text/css" height="196.8px" preserveAspectRatio="none" style="width:154px;height:196px;" version="1.1" viewBox="0 0 154 196" width="154.4px" zoomAndPan="magnify"><defs><filter height="300%" id="f1mda6t42pyprr" width="300%" x="-1" y="-1"><feGaussianBlur result="blurOut" stdDeviation="0.8"/><feColorMatrix in="blurOut" result="blurOut2" type="matrix" values="0 0 0 0 0 0 0 0 0 0 0 0 0 0 0 0 0 0 .4 0"/><feOffset dx="1.6" dy="1.6" in="blurOut2" result="blurOut3"/><feBlend in="SourceGraphic" in2="blurOut3" mode="normal"/></filter></defs><g><text fill="#000000" font-family="sans-serif" font-size="7.2" lengthAdjust="spacingAndGlyphs" text-decoration="underline" textLength="99.6" x="29.8" y="7.4742">EXCEPTIONS's Class Diagram</text><text fill="#000000" font-family="sans-serif" font-size="7.2" lengthAdjust="spacingAndGlyphs" textLength="0" x="80.6" y="16.5305"/><!--MD5=[bb3cd1be4bcc6251892d3b1ac82c2b2b]
cluster it.polimi.ingswPSP35.Exceptions--><polygon fill="#FFFFFF" filter="url(#f1mda6t42pyprr)" points="8.8,80.9125,101.2,80.9125,104,90.3563,145.6,90.3563,145.6,132.1125,8.8,132.1125,8.8,80.9125" style="stroke: #000000; stroke-width: 0.6000000000000001;"/><line style="stroke: #000000; stroke-width: 0.6000000000000001;" x1="8.8" x2="104" y1="90.3563" y2="90.3563"/><text fill="#000000" font-family="sans-serif" font-size="5.6" font-weight="bold" lengthAdjust="spacingAndGlyphs" textLength="90" x="10.4" y="87.5258">it.polimi.ingswPSP35.Exceptions</text><!--MD5=[0d852700fdad35b7061d461d6907a324]
cluster java.io--><polygon fill="#FFFFFF" filter="url(#f1mda6t42pyprr)" points="80.8,27.7125,101.6,27.7125,104.4,37.1563,132.8,37.1563,132.8,67.7125,80.8,67.7125,80.8,27.7125" style="stroke: #000000; stroke-width: 0.6000000000000001;"/><line style="stroke: #000000; stroke-width: 0.6000000000000001;" x1="80.8" x2="104.4" y1="37.1563" y2="37.1563"/><text fill="#000000" font-family="sans-serif" font-size="5.6" font-weight="bold" lengthAdjust="spacingAndGlyphs" textLength="18.4" x="82.4" y="34.3258">java.io</text><!--MD5=[1964272925f59f2815b6443fb5e4f070]
cluster it.polimi.ingswPSP35.server.model--><polygon fill="#FFFFFF" filter="url(#f1mda6t42pyprr)" points="13.6,152.1125,112.4,152.1125,115.2,161.5563,116.4,161.5563,116.4,192.1125,13.6,192.1125,13.6,152.1125" style="stroke: #000000; stroke-width: 0.6000000000000001;"/><line style="stroke: #000000; stroke-width: 0.6000000000000001;" x1="13.6" x2="115.2" y1="161.5563" y2="161.5563"/><text fill="#000000" font-family="sans-serif" font-size="5.6" font-weight="bold" lengthAdjust="spacingAndGlyphs" textLength="96.4" x="15.2" y="158.7258">it.polimi.ingswPSP35.server.model</text><!--MD5=[953e295905b190e9bfb474a24653cb60]
class it.polimi.ingswPSP35.Exceptions.DisconnectedException--><rect fill="#FEFECE" filter="url(#f1mda6t42pyprr)" height="19.2" id="it.polimi.ingswPSP35.Exceptions.DisconnectedException" style="stroke: #A80036; stroke-width: 0.6000000000000001;" width="64.4" x="74.6" y="100.9125"/><ellipse cx="80.6" cy="107.3125" fill="#ADD1B2" rx="4.4" ry="4.4" style="stroke: #A80036; stroke-width: 0.4;"/><path d="M81.4,105.9125 Q81.4813,105.7125 81.575,105.6125 Q81.6688,105.5125 81.775,105.5125 Q81.9625,105.5125 82.0813,105.625 Q82.2,105.7375 82.2,106 L82.2,106.625 Q82.2,106.8875 82.0875,107 Q81.975,107.1125 81.8,107.1125 Q81.6438,107.1125 81.5438,107.0438 Q81.4438,106.975 81.4,106.7938 Q81.3813,106.6688 81.3125,106.6 Q81.1875,106.4688 80.9625,106.3938 Q80.7375,106.3125 80.5125,106.3125 Q80.2313,106.3125 79.9938,106.425 Q79.7625,106.5375 79.5813,106.7875 Q79.4,107.0375 79.4,107.3813 L79.4,107.75 Q79.4,108.1625 79.7375,108.4375 Q80.075,108.7125 80.675,108.7125 Q81.0313,108.7125 81.2813,108.6313 Q81.425,108.5875 81.5875,108.4438 Q81.6938,108.3625 81.75,108.3375 Q81.8063,108.3125 81.875,108.3125 Q82.0063,108.3125 82.1,108.4188 Q82.2,108.5188 82.2,108.6625 Q82.2,108.8 82.0625,108.9625 Q81.8625,109.2 81.5438,109.3313 Q81.125,109.5125 80.6125,109.5125 Q80.0125,109.5125 79.5313,109.275 Q79.1438,109.0875 78.8688,108.6813 Q78.6,108.275 78.6,107.7938 L78.6,107.3563 Q78.6,106.8563 78.8375,106.4188 Q79.0813,105.9813 79.5,105.75 Q79.925,105.5125 80.4,105.5125 Q80.6875,105.5125 80.9375,105.6125 Q81.1875,105.7125 81.4,105.9125 Z "/><text fill="#000000" font-family="sans-serif" font-size="4.8" lengthAdjust="spacingAndGlyphs" textLength="51.6" x="86.2" y="109.2766">DisconnectedException</text><line style="stroke: #A80036; stroke-width: 0.6000000000000001;" x1="75" x2="138.6" y1="113.7125" y2="113.7125"/><line style="stroke: #A80036; stroke-width: 0.6000000000000001;" x1="75" x2="138.6" y1="116.9125" y2="116.9125"/><!--MD5=[a456eeb7da7facaf91bfb94c504f7b8f]
class it.polimi.ingswPSP35.Exceptions.LossException--><rect fill="#FEFECE" filter="url(#f1mda6t42pyprr)" height="30.2688" id="it.polimi.ingswPSP35.Exceptions.LossException" style="stroke: #A80036; stroke-width: 0.6000000000000001;" width="45.2" x="15.4" y="95.3125"/><ellipse cx="21.4" cy="101.7125" fill="#ADD1B2" rx="4.4" ry="4.4" style="stroke: #A80036; stroke-width: 0.4;"/><path d="M22.2,100.3125 Q22.2813,100.1125 22.375,100.0125 Q22.4688,99.9125 22.575,99.9125 Q22.7625,99.9125 22.8813,100.025 Q23,100.1375 23,100.4 L23,101.025 Q23,101.2875 22.8875,101.4 Q22.775,101.5125 22.6,101.5125 Q22.4438,101.5125 22.3438,101.4438 Q22.2438,101.375 22.2,101.1938 Q22.1813,101.0688 22.1125,101 Q21.9875,100.8688 21.7625,100.7938 Q21.5375,100.7125 21.3125,100.7125 Q21.0313,100.7125 20.7938,100.825 Q20.5625,100.9375 20.3813,101.1875 Q20.2,101.4375 20.2,101.7813 L20.2,102.15 Q20.2,102.5625 20.5375,102.8375 Q20.875,103.1125 21.475,103.1125 Q21.8313,103.1125 22.0813,103.0313 Q22.225,102.9875 22.3875,102.8438 Q22.4938,102.7625 22.55,102.7375 Q22.6063,102.7125 22.675,102.7125 Q22.8063,102.7125 22.9,102.8188 Q23,102.9188 23,103.0625 Q23,103.2 22.8625,103.3625 Q22.6625,103.6 22.3438,103.7313 Q21.925,103.9125 21.4125,103.9125 Q20.8125,103.9125 20.3313,103.675 Q19.9438,103.4875 19.6688,103.0813 Q19.4,102.675 19.4,102.1938 L19.4,101.7563 Q19.4,101.2563 19.6375,100.8188 Q19.8813,100.3813 20.3,100.15 Q20.725,99.9125 21.2,99.9125 Q21.4875,99.9125 21.7375,100.0125 Q21.9875,100.1125 22.2,100.3125 Z "/><text fill="#000000" font-family="sans-serif" font-size="4.8" lengthAdjust="spacingAndGlyphs" textLength="32.4" x="27" y="103.6766">LossException</text><line style="stroke: #A80036; stroke-width: 0.6000000000000001;" x1="15.8" x2="60.2" y1="108.1125" y2="108.1125"/><line style="stroke: #A80036; stroke-width: 0.6000000000000001;" x1="15.8" x2="60.2" y1="111.3125" y2="111.3125"/><ellipse cx="19.8" cy="115.7125" fill="#84BE84" rx="1.2" ry="1.2" style="stroke: #038048; stroke-width: 0.4;"/><text fill="#000000" font-family="sans-serif" font-size="4.4" lengthAdjust="spacingAndGlyphs" textLength="31.6" x="23.4" y="117.4801">LossException()</text><ellipse cx="19.8" cy="121.2469" fill="#84BE84" rx="1.2" ry="1.2" style="stroke: #038048; stroke-width: 0.4;"/><text fill="#000000" font-family="sans-serif" font-size="4.4" lengthAdjust="spacingAndGlyphs" textLength="20.4" x="23.4" y="123.0145">getLoser()</text><!--MD5=[f9b1c514720d11632347406872c61b6a]
class java.io.IOException--><rect fill="#FEFECE" filter="url(#f1mda6t42pyprr)" height="19.2" id="java.io.IOException" style="stroke: #A80036; stroke-width: 0.6000000000000001;" width="38.8" x="87.4" y="42.1125"/><ellipse cx="93.4" cy="48.5125" fill="#ADD1B2" rx="4.4" ry="4.4" style="stroke: #A80036; stroke-width: 0.4;"/><path d="M94.2,47.1125 Q94.2813,46.9125 94.375,46.8125 Q94.4688,46.7125 94.575,46.7125 Q94.7625,46.7125 94.8813,46.825 Q95,46.9375 95,47.2 L95,47.825 Q95,48.0875 94.8875,48.2 Q94.775,48.3125 94.6,48.3125 Q94.4438,48.3125 94.3438,48.2438 Q94.2438,48.175 94.2,47.9938 Q94.1813,47.8688 94.1125,47.8 Q93.9875,47.6688 93.7625,47.5938 Q93.5375,47.5125 93.3125,47.5125 Q93.0313,47.5125 92.7938,47.625 Q92.5625,47.7375 92.3813,47.9875 Q92.2,48.2375 92.2,48.5813 L92.2,48.95 Q92.2,49.3625 92.5375,49.6375 Q92.875,49.9125 93.475,49.9125 Q93.8313,49.9125 94.0813,49.8313 Q94.225,49.7875 94.3875,49.6438 Q94.4938,49.5625 94.55,49.5375 Q94.6063,49.5125 94.675,49.5125 Q94.8063,49.5125 94.9,49.6188 Q95,49.7188 95,49.8625 Q95,50 94.8625,50.1625 Q94.6625,50.4 94.3438,50.5313 Q93.925,50.7125 93.4125,50.7125 Q92.8125,50.7125 92.3313,50.475 Q91.9438,50.2875 91.6688,49.8813 Q91.4,49.475 91.4,48.9938 L91.4,48.5563 Q91.4,48.0563 91.6375,47.6188 Q91.8813,47.1813 92.3,46.95 Q92.725,46.7125 93.2,46.7125 Q93.4875,46.7125 93.7375,46.8125 Q93.9875,46.9125 94.2,47.1125 Z "/><text fill="#000000" font-family="sans-serif" font-size="4.8" lengthAdjust="spacingAndGlyphs" textLength="26" x="99" y="50.4766">IOException</text><line style="stroke: #A80036; stroke-width: 0.6000000000000001;" x1="87.8" x2="125.8" y1="54.9125" y2="54.9125"/><line style="stroke: #A80036; stroke-width: 0.6000000000000001;" x1="87.8" x2="125.8" y1="58.1125" y2="58.1125"/><!--MD5=[5ec5abad35e91429d14c931ca09166a6]
class it.polimi.ingswPSP35.server.model.Player--><rect fill="#FEFECE" filter="url(#f1mda6t42pyprr)" height="19.2" id="it.polimi.ingswPSP35.server.model.Player" style="stroke: #A80036; stroke-width: 0.6000000000000001;" width="26.4" x="24.8" y="166.5125"/><ellipse cx="30.8" cy="172.9125" fill="#ADD1B2" rx="4.4" ry="4.4" style="stroke: #A80036; stroke-width: 0.4;"/><path d="M31.6,171.5125 Q31.6813,171.3125 31.775,171.2125 Q31.8688,171.1125 31.975,171.1125 Q32.1625,171.1125 32.2813,171.225 Q32.4,171.3375 32.4,171.6 L32.4,172.225 Q32.4,172.4875 32.2875,172.6 Q32.175,172.7125 32,172.7125 Q31.8438,172.7125 31.7438,172.6438 Q31.6438,172.575 31.6,172.3938 Q31.5813,172.2688 31.5125,172.2 Q31.3875,172.0688 31.1625,171.9938 Q30.9375,171.9125 30.7125,171.9125 Q30.4313,171.9125 30.1938,172.025 Q29.9625,172.1375 29.7813,172.3875 Q29.6,172.6375 29.6,172.9813 L29.6,173.35 Q29.6,173.7625 29.9375,174.0375 Q30.275,174.3125 30.875,174.3125 Q31.2313,174.3125 31.4813,174.2313 Q31.625,174.1875 31.7875,174.0438 Q31.8938,173.9625 31.95,173.9375 Q32.0063,173.9125 32.075,173.9125 Q32.2063,173.9125 32.3,174.0188 Q32.4,174.1188 32.4,174.2625 Q32.4,174.4 32.2625,174.5625 Q32.0625,174.8 31.7438,174.9313 Q31.325,175.1125 30.8125,175.1125 Q30.2125,175.1125 29.7313,174.875 Q29.3438,174.6875 29.0688,174.2813 Q28.8,173.875 28.8,173.3938 L28.8,172.9563 Q28.8,172.4563 29.0375,172.0188 Q29.2813,171.5813 29.7,171.35 Q30.125,171.1125 30.6,171.1125 Q30.8875,171.1125 31.1375,171.2125 Q31.3875,171.3125 31.6,171.5125 Z "/><text fill="#000000" font-family="sans-serif" font-size="4.8" lengthAdjust="spacingAndGlyphs" textLength="13.6" x="36.4" y="174.8766">Player</text><line style="stroke: #A80036; stroke-width: 0.6000000000000001;" x1="25.2" x2="50.8" y1="179.3125" y2="179.3125"/><line style="stroke: #A80036; stroke-width: 0.6000000000000001;" x1="25.2" x2="50.8" y1="182.5125" y2="182.5125"/><!--MD5=[ce87225412966c39a4986859e15b91fa]
reverse link java.io.IOException to it.polimi.ingswPSP35.Exceptions.DisconnectedException--><path d="M106.8,69.5381 C106.8,79.8145 106.8,92.4109 106.8,100.8169 " fill="none" id="java.io.IOException&lt;-it.polimi.ingswPSP35.Exceptions.DisconnectedException" style="stroke: #A80036; stroke-width: 0.4;"/><polygon fill="none" points="104,69.4313,106.8,61.4313,109.6,69.4313,104,69.4313" style="stroke: #A80036; stroke-width: 0.4;"/><!--MD5=[9ee78d36bd3379d3fc4d84a6c6315810]
reverse link it.polimi.ingswPSP35.Exceptions.LossException to it.polimi.ingswPSP35.server.model.Player--><path d="M38,130.9865 C38,142.7729 38,157.1165 38,166.3284 " fill="none" id="it.polimi.ingswPSP35.Exceptions.LossException&lt;-it.polimi.ingswPSP35.server.model.Player" style="stroke: #A80036; stroke-width: 0.4;"/><polygon fill="#FFFFFF" points="38,125.7789,36.4,128.1789,38,130.5789,39.6,128.1789,38,125.7789" style="stroke: #A80036; stroke-width: 0.4;"/><text fill="#000000" font-family="sans-serif" font-size="5.2" lengthAdjust="spacingAndGlyphs" textLength="1.6" x="38.4" y="144.3105">.</text><!--MD5=[6f917b85a24af443ccc7929e83daac83]
@startuml

title __EXCEPTIONS's Class Diagram__\n

  namespace it.polimi.ingswPSP35.Exceptions {
    class it.polimi.ingswPSP35.Exceptions.DisconnectedException {
    }
  }
  

  namespace it.polimi.ingswPSP35.Exceptions {
    class it.polimi.ingswPSP35.Exceptions.LossException {
        + LossException()
        + getLoser()
    }
  }
  

  it.polimi.ingswPSP35.Exceptions.DisconnectedException -up-|> java.io.IOException
  it.polimi.ingswPSP35.Exceptions.LossException o- - it.polimi.ingswPSP35.server.model.Player :.


@enduml

PlantUML version 1.2020.09(Sun May 10 12:51:06 CEST 2020)
(GPL source distribution)
Java Runtime: OpenJDK Runtime Environment
JVM: OpenJDK 64-Bit Server VM
Java Version: 11.0.7+10-b765.53
Operating System: Windows 10
Default Encoding: Cp1252
Language: it
Country: IT
--></g></svg>