<?xml version="1.0" encoding="UTF-8" standalone="no"?><svg xmlns="http://www.w3.org/2000/svg" xmlns:xlink="http://www.w3.org/1999/xlink" contentScriptType="application/ecmascript" contentStyleType="text/css" height="480.8px" preserveAspectRatio="none" style="width:339px;height:480px;" version="1.1" viewBox="0 0 339 480" width="339.2px" zoomAndPan="magnify"><defs><filter height="300%" id="f1eytfoeqiz5u3" width="300%" x="-1" y="-1"><feGaussianBlur result="blurOut" stdDeviation="0.8"/><feColorMatrix in="blurOut" result="blurOut2" type="matrix" values="0 0 0 0 0 0 0 0 0 0 0 0 0 0 0 0 0 0 .4 0"/><feOffset dx="1.6" dy="1.6" in="blurOut2" result="blurOut3"/><feBlend in="SourceGraphic" in2="blurOut3" mode="normal"/></filter></defs><g><text fill="#000000" font-family="sans-serif" font-size="7.2" lengthAdjust="spacingAndGlyphs" text-decoration="underline" textLength="79.2" x="132.4" y="7.4742">MODEL's Class Diagram</text><text fill="#000000" font-family="sans-serif" font-size="7.2" lengthAdjust="spacingAndGlyphs" textLength="0" x="173" y="16.5305"/><!--MD5=[b96a9a473a257e29118e4c189bb9a890]
cluster it.polimi.ingswPSP35.server--><polygon fill="#FFFFFF" filter="url(#f1eytfoeqiz5u3)" points="8.8,27.7125,88.8,27.7125,91.6,37.1563,228.8,37.1563,228.8,416.1125,8.8,416.1125,8.8,27.7125" style="stroke: #000000; stroke-width: 0.6000000000000001;"/><line style="stroke: #000000; stroke-width: 0.6000000000000001;" x1="8.8" x2="91.6" y1="37.1563" y2="37.1563"/><text fill="#000000" font-family="sans-serif" font-size="5.6" font-weight="bold" lengthAdjust="spacingAndGlyphs" textLength="77.6" x="10.4" y="34.3258">it.polimi.ingswPSP35.server</text><!--MD5=[1964272925f59f2815b6443fb5e4f070]
cluster it.polimi.ingswPSP35.server.model--><polygon fill="#FFFFFF" filter="url(#f1eytfoeqiz5u3)" points="18.4,45.3125,38,45.3125,40.8,54.7563,219.2,54.7563,219.2,406.5125,18.4,406.5125,18.4,45.3125" style="stroke: #000000; stroke-width: 0.6000000000000001;"/><line style="stroke: #000000; stroke-width: 0.6000000000000001;" x1="18.4" x2="40.8" y1="54.7563" y2="54.7563"/><text fill="#000000" font-family="sans-serif" font-size="5.6" font-weight="bold" lengthAdjust="spacingAndGlyphs" textLength="17.2" x="20" y="51.9258">model</text><!--MD5=[9a89ef9d7b07813962bc92fb9f3c4c15]
cluster it.polimi.ingswPSP35.server.controller.divinities--><polygon fill="#FFFFFF" filter="url(#f1eytfoeqiz5u3)" points="79.2,436.1125,216,436.1125,218.8,445.5563,220,445.5563,220,476.1125,79.2,476.1125,79.2,436.1125" style="stroke: #000000; stroke-width: 0.6000000000000001;"/><line style="stroke: #000000; stroke-width: 0.6000000000000001;" x1="79.2" x2="218.8" y1="445.5563" y2="445.5563"/><text fill="#000000" font-family="sans-serif" font-size="5.6" font-weight="bold" lengthAdjust="spacingAndGlyphs" textLength="134.4" x="80.8" y="442.7258">it.polimi.ingswPSP35.server.controller.divinities</text><!--MD5=[d020d26c406ab368c8fabd3ef6a21587]
cluster it.polimi.ingswPSP35.commons--><polygon fill="#FFFFFF" filter="url(#f1eytfoeqiz5u3)" points="238.4,327.7125,326.4,327.7125,329.2,337.1563,330.4,337.1563,330.4,367.7125,238.4,367.7125,238.4,327.7125" style="stroke: #000000; stroke-width: 0.6000000000000001;"/><line style="stroke: #000000; stroke-width: 0.6000000000000001;" x1="238.4" x2="329.2" y1="337.1563" y2="337.1563"/><text fill="#000000" font-family="sans-serif" font-size="5.6" font-weight="bold" lengthAdjust="spacingAndGlyphs" textLength="85.6" x="240" y="334.3258">it.polimi.ingswPSP35.commons</text><!--MD5=[1ee189a18b977b5b1703f4d0cb3b285b]
class it.polimi.ingswPSP35.server.model.Block--><rect fill="#FEFECE" filter="url(#f1eytfoeqiz5u3)" height="19.2" id="it.polimi.ingswPSP35.server.model.Block" style="stroke: #A80036; stroke-width: 0.6000000000000001;" width="24.8" x="24.8" y="227.9125"/><ellipse cx="30.8" cy="234.3125" fill="#ADD1B2" rx="4.4" ry="4.4" style="stroke: #A80036; stroke-width: 0.4;"/><path d="M31.6,232.9125 Q31.6813,232.7125 31.775,232.6125 Q31.8688,232.5125 31.975,232.5125 Q32.1625,232.5125 32.2813,232.625 Q32.4,232.7375 32.4,233 L32.4,233.625 Q32.4,233.8875 32.2875,234 Q32.175,234.1125 32,234.1125 Q31.8438,234.1125 31.7438,234.0438 Q31.6438,233.975 31.6,233.7938 Q31.5813,233.6688 31.5125,233.6 Q31.3875,233.4688 31.1625,233.3938 Q30.9375,233.3125 30.7125,233.3125 Q30.4313,233.3125 30.1938,233.425 Q29.9625,233.5375 29.7813,233.7875 Q29.6,234.0375 29.6,234.3813 L29.6,234.75 Q29.6,235.1625 29.9375,235.4375 Q30.275,235.7125 30.875,235.7125 Q31.2313,235.7125 31.4813,235.6313 Q31.625,235.5875 31.7875,235.4438 Q31.8938,235.3625 31.95,235.3375 Q32.0063,235.3125 32.075,235.3125 Q32.2063,235.3125 32.3,235.4188 Q32.4,235.5188 32.4,235.6625 Q32.4,235.8 32.2625,235.9625 Q32.0625,236.2 31.7438,236.3313 Q31.325,236.5125 30.8125,236.5125 Q30.2125,236.5125 29.7313,236.275 Q29.3438,236.0875 29.0688,235.6813 Q28.8,235.275 28.8,234.7938 L28.8,234.3563 Q28.8,233.8563 29.0375,233.4188 Q29.2813,232.9813 29.7,232.75 Q30.125,232.5125 30.6,232.5125 Q30.8875,232.5125 31.1375,232.6125 Q31.3875,232.7125 31.6,232.9125 Z "/><text fill="#000000" font-family="sans-serif" font-size="4.8" lengthAdjust="spacingAndGlyphs" textLength="12" x="36.4" y="236.2766">Block</text><line style="stroke: #A80036; stroke-width: 0.6000000000000001;" x1="25.2" x2="49.2" y1="240.7125" y2="240.7125"/><line style="stroke: #A80036; stroke-width: 0.6000000000000001;" x1="25.2" x2="49.2" y1="243.9125" y2="243.9125"/><!--MD5=[1e70dfb8c29ac4a1f88e020469cf295c]
class it.polimi.ingswPSP35.server.model.Board--><rect fill="#FEFECE" filter="url(#f1eytfoeqiz5u3)" height="63.475" id="it.polimi.ingswPSP35.server.model.Board" style="stroke: #A80036; stroke-width: 0.6000000000000001;" width="72.8" x="64.4" y="87.3125"/><ellipse cx="92.5" cy="93.7125" fill="#ADD1B2" rx="4.4" ry="4.4" style="stroke: #A80036; stroke-width: 0.4;"/><path d="M93.3,92.3125 Q93.3813,92.1125 93.475,92.0125 Q93.5688,91.9125 93.675,91.9125 Q93.8625,91.9125 93.9813,92.025 Q94.1,92.1375 94.1,92.4 L94.1,93.025 Q94.1,93.2875 93.9875,93.4 Q93.875,93.5125 93.7,93.5125 Q93.5438,93.5125 93.4438,93.4438 Q93.3438,93.375 93.3,93.1938 Q93.2813,93.0688 93.2125,93 Q93.0875,92.8688 92.8625,92.7938 Q92.6375,92.7125 92.4125,92.7125 Q92.1313,92.7125 91.8938,92.825 Q91.6625,92.9375 91.4813,93.1875 Q91.3,93.4375 91.3,93.7813 L91.3,94.15 Q91.3,94.5625 91.6375,94.8375 Q91.975,95.1125 92.575,95.1125 Q92.9313,95.1125 93.1813,95.0313 Q93.325,94.9875 93.4875,94.8438 Q93.5938,94.7625 93.65,94.7375 Q93.7063,94.7125 93.775,94.7125 Q93.9063,94.7125 94,94.8188 Q94.1,94.9188 94.1,95.0625 Q94.1,95.2 93.9625,95.3625 Q93.7625,95.6 93.4438,95.7313 Q93.025,95.9125 92.5125,95.9125 Q91.9125,95.9125 91.4313,95.675 Q91.0438,95.4875 90.7688,95.0813 Q90.5,94.675 90.5,94.1938 L90.5,93.7563 Q90.5,93.2563 90.7375,92.8188 Q90.9813,92.3813 91.4,92.15 Q91.825,91.9125 92.3,91.9125 Q92.5875,91.9125 92.8375,92.0125 Q93.0875,92.1125 93.3,92.3125 Z "/><text fill="#000000" font-family="sans-serif" font-size="4.8" lengthAdjust="spacingAndGlyphs" textLength="13.2" x="100.7" y="95.6766">Board</text><line style="stroke: #A80036; stroke-width: 0.6000000000000001;" x1="64.8" x2="136.8" y1="100.1125" y2="100.1125"/><polygon fill="none" points="68.8,102.5125,70.4,104.1125,68.8,105.7125,67.2,104.1125" style="stroke: #B38D22; stroke-width: 0.4;"/><text fill="#000000" font-family="sans-serif" font-size="4.4" lengthAdjust="spacingAndGlyphs" textLength="34" x="72.4" y="106.2801">matrix : Square[][]</text><rect fill="none" height="2.4" style="stroke: #C82930; stroke-width: 0.4;" width="2.4" x="67.6" y="108.8469"/><text fill="#000000" font-family="sans-serif" font-size="4.4" lengthAdjust="spacingAndGlyphs" textLength="62.4" x="72.4" y="111.8145">changedSquares : List&lt;Square&gt;</text><line style="stroke: #A80036; stroke-width: 0.6000000000000001;" x1="64.8" x2="136.8" y1="114.3813" y2="114.3813"/><ellipse cx="68.8" cy="118.7813" fill="#84BE84" rx="1.2" ry="1.2" style="stroke: #038048; stroke-width: 0.4;"/><text fill="#000000" font-family="sans-serif" font-size="4.4" lengthAdjust="spacingAndGlyphs" textLength="14.8" x="72.4" y="120.5488">Board()</text><ellipse cx="68.8" cy="124.3156" fill="#84BE84" rx="1.2" ry="1.2" style="stroke: #038048; stroke-width: 0.4;"/><text fill="#000000" font-family="sans-serif" font-size="4.4" lengthAdjust="spacingAndGlyphs" textLength="14.8" x="72.4" y="126.0832">Board()</text><ellipse cx="68.8" cy="129.85" fill="#84BE84" rx="1.2" ry="1.2" style="stroke: #038048; stroke-width: 0.4;"/><text fill="#000000" font-family="sans-serif" font-size="4.4" lengthAdjust="spacingAndGlyphs" textLength="42.8" x="72.4" y="131.6176">getChangedSquares()</text><ellipse cx="68.8" cy="135.3844" fill="#84BE84" rx="1.2" ry="1.2" style="stroke: #038048; stroke-width: 0.4;"/><text fill="#000000" font-family="sans-serif" font-size="4.4" lengthAdjust="spacingAndGlyphs" textLength="23.2" x="72.4" y="137.152">getSquare()</text><ellipse cx="68.8" cy="140.9188" fill="#84BE84" rx="1.2" ry="1.2" style="stroke: #038048; stroke-width: 0.4;"/><text fill="#000000" font-family="sans-serif" font-size="4.4" lengthAdjust="spacingAndGlyphs" textLength="23.2" x="72.4" y="142.6863">getSquare()</text><ellipse cx="68.8" cy="146.4531" fill="#84BE84" rx="1.2" ry="1.2" style="stroke: #038048; stroke-width: 0.4;"/><text fill="#000000" font-family="sans-serif" font-size="4.4" lengthAdjust="spacingAndGlyphs" textLength="42.8" x="72.4" y="148.2207">setChangedSquares()</text><!--MD5=[6189a4248c45023b43546604f877b898]
class it.polimi.ingswPSP35.server.model.Dome--><rect fill="#FEFECE" filter="url(#f1eytfoeqiz5u3)" height="19.2" id="it.polimi.ingswPSP35.server.model.Dome" style="stroke: #A80036; stroke-width: 0.6000000000000001;" width="26.4" x="63.6" y="227.9125"/><ellipse cx="69.6" cy="234.3125" fill="#ADD1B2" rx="4.4" ry="4.4" style="stroke: #A80036; stroke-width: 0.4;"/><path d="M70.4,232.9125 Q70.4813,232.7125 70.575,232.6125 Q70.6688,232.5125 70.775,232.5125 Q70.9625,232.5125 71.0813,232.625 Q71.2,232.7375 71.2,233 L71.2,233.625 Q71.2,233.8875 71.0875,234 Q70.975,234.1125 70.8,234.1125 Q70.6438,234.1125 70.5438,234.0438 Q70.4438,233.975 70.4,233.7938 Q70.3813,233.6688 70.3125,233.6 Q70.1875,233.4688 69.9625,233.3938 Q69.7375,233.3125 69.5125,233.3125 Q69.2313,233.3125 68.9938,233.425 Q68.7625,233.5375 68.5813,233.7875 Q68.4,234.0375 68.4,234.3813 L68.4,234.75 Q68.4,235.1625 68.7375,235.4375 Q69.075,235.7125 69.675,235.7125 Q70.0313,235.7125 70.2813,235.6313 Q70.425,235.5875 70.5875,235.4438 Q70.6938,235.3625 70.75,235.3375 Q70.8063,235.3125 70.875,235.3125 Q71.0063,235.3125 71.1,235.4188 Q71.2,235.5188 71.2,235.6625 Q71.2,235.8 71.0625,235.9625 Q70.8625,236.2 70.5438,236.3313 Q70.125,236.5125 69.6125,236.5125 Q69.0125,236.5125 68.5313,236.275 Q68.1438,236.0875 67.8688,235.6813 Q67.6,235.275 67.6,234.7938 L67.6,234.3563 Q67.6,233.8563 67.8375,233.4188 Q68.0813,232.9813 68.5,232.75 Q68.925,232.5125 69.4,232.5125 Q69.6875,232.5125 69.9375,232.6125 Q70.1875,232.7125 70.4,232.9125 Z "/><text fill="#000000" font-family="sans-serif" font-size="4.8" lengthAdjust="spacingAndGlyphs" textLength="13.6" x="75.2" y="236.2766">Dome</text><line style="stroke: #A80036; stroke-width: 0.6000000000000001;" x1="64" x2="89.6" y1="240.7125" y2="240.7125"/><line style="stroke: #A80036; stroke-width: 0.6000000000000001;" x1="64" x2="89.6" y1="243.9125" y2="243.9125"/><!--MD5=[f5cf7d499860f9b66b5f340024263581]
class it.polimi.ingswPSP35.server.model.Piece--><rect fill="#FEFECE" filter="url(#f1eytfoeqiz5u3)" height="19.2" id="it.polimi.ingswPSP35.server.model.Piece" style="stroke: #A80036; stroke-width: 0.6000000000000001;" width="25.2" x="25" y="109.5125"/><ellipse cx="31" cy="115.9125" fill="#B4A7E5" rx="4.4" ry="4.4" style="stroke: #A80036; stroke-width: 0.4;"/><path d="M31.4,114.7125 L31.4,117.1125 L32.2,117.1125 L32.3938,117.1125 L32.6,117.3625 L32.6,117.5125 L32.6,117.6625 L32.3938,117.9125 L32.2,117.9125 L29.8,117.9125 L29.6063,117.9125 L29.4,117.6625 L29.4,117.5125 L29.4,117.3625 L29.6063,117.1125 L29.8,117.1125 L30.6,117.1125 L30.6,114.7125 L29.8,114.7125 L29.6063,114.7125 L29.4,114.4625 L29.4,114.3125 L29.4,114.1625 L29.6063,113.9125 L29.8,113.9125 L32.2,113.9125 L32.3938,113.9125 L32.6,114.1625 L32.6,114.3125 L32.6,114.4625 L32.3938,114.7125 L32.2,114.7125 L31.4,114.7125 Z "/><text fill="#000000" font-family="sans-serif" font-size="4.8" font-style="italic" lengthAdjust="spacingAndGlyphs" textLength="12.4" x="36.6" y="117.8766">Piece</text><line style="stroke: #A80036; stroke-width: 0.6000000000000001;" x1="25.4" x2="49.8" y1="122.3125" y2="122.3125"/><line style="stroke: #A80036; stroke-width: 0.6000000000000001;" x1="25.4" x2="49.8" y1="125.5125" y2="125.5125"/><!--MD5=[5ec5abad35e91429d14c931ca09166a6]
class it.polimi.ingswPSP35.server.model.Player--><rect fill="#FEFECE" filter="url(#f1eytfoeqiz5u3)" height="96.6813" id="it.polimi.ingswPSP35.server.model.Player" style="stroke: #A80036; stroke-width: 0.6000000000000001;" width="71.6" x="113.8" y="303.3125"/><ellipse cx="141.1" cy="309.7125" fill="#ADD1B2" rx="4.4" ry="4.4" style="stroke: #A80036; stroke-width: 0.4;"/><path d="M141.9,308.3125 Q141.9813,308.1125 142.075,308.0125 Q142.1688,307.9125 142.275,307.9125 Q142.4625,307.9125 142.5813,308.025 Q142.7,308.1375 142.7,308.4 L142.7,309.025 Q142.7,309.2875 142.5875,309.4 Q142.475,309.5125 142.3,309.5125 Q142.1438,309.5125 142.0438,309.4438 Q141.9438,309.375 141.9,309.1938 Q141.8813,309.0688 141.8125,309 Q141.6875,308.8688 141.4625,308.7938 Q141.2375,308.7125 141.0125,308.7125 Q140.7313,308.7125 140.4938,308.825 Q140.2625,308.9375 140.0813,309.1875 Q139.9,309.4375 139.9,309.7813 L139.9,310.15 Q139.9,310.5625 140.2375,310.8375 Q140.575,311.1125 141.175,311.1125 Q141.5313,311.1125 141.7813,311.0313 Q141.925,310.9875 142.0875,310.8438 Q142.1938,310.7625 142.25,310.7375 Q142.3063,310.7125 142.375,310.7125 Q142.5063,310.7125 142.6,310.8188 Q142.7,310.9188 142.7,311.0625 Q142.7,311.2 142.5625,311.3625 Q142.3625,311.6 142.0438,311.7313 Q141.625,311.9125 141.1125,311.9125 Q140.5125,311.9125 140.0313,311.675 Q139.6438,311.4875 139.3688,311.0813 Q139.1,310.675 139.1,310.1938 L139.1,309.7563 Q139.1,309.2563 139.3375,308.8188 Q139.5813,308.3813 140,308.15 Q140.425,307.9125 140.9,307.9125 Q141.1875,307.9125 141.4375,308.0125 Q141.6875,308.1125 141.9,308.3125 Z "/><text fill="#000000" font-family="sans-serif" font-size="4.8" lengthAdjust="spacingAndGlyphs" textLength="13.6" x="149.3" y="311.6766">Player</text><line style="stroke: #A80036; stroke-width: 0.6000000000000001;" x1="114.2" x2="185" y1="316.1125" y2="316.1125"/><rect fill="none" height="2.4" style="stroke: #C82930; stroke-width: 0.4;" width="2.4" x="117" y="319.3125"/><text fill="#000000" font-family="sans-serif" font-size="4.4" lengthAdjust="spacingAndGlyphs" textLength="15.2" x="121.8" y="322.2801">age : int</text><rect fill="none" height="2.4" style="stroke: #C82930; stroke-width: 0.4;" width="2.4" x="117" y="324.8469"/><text fill="#000000" font-family="sans-serif" font-size="4.4" lengthAdjust="spacingAndGlyphs" textLength="20" x="121.8" y="327.8145">colour : int</text><rect fill="none" height="2.4" style="stroke: #C82930; stroke-width: 0.4;" width="2.4" x="117" y="330.3813"/><text fill="#000000" font-family="sans-serif" font-size="4.4" lengthAdjust="spacingAndGlyphs" textLength="34" x="121.8" y="333.3488">username : String</text><rect fill="none" height="2.4" style="stroke: #C82930; stroke-width: 0.4;" width="2.4" x="117" y="335.9156"/><text fill="#000000" font-family="sans-serif" font-size="4.4" lengthAdjust="spacingAndGlyphs" textLength="61.2" x="121.8" y="338.8832">workerList : ArrayList&lt;Worker&gt;</text><line style="stroke: #A80036; stroke-width: 0.6000000000000001;" x1="114.2" x2="185" y1="341.45" y2="341.45"/><ellipse cx="118.2" cy="345.85" fill="#84BE84" rx="1.2" ry="1.2" style="stroke: #038048; stroke-width: 0.4;"/><text fill="#000000" font-family="sans-serif" font-size="4.4" lengthAdjust="spacingAndGlyphs" textLength="15.2" x="121.8" y="347.6176">Player()</text><ellipse cx="118.2" cy="351.3844" fill="#84BE84" rx="1.2" ry="1.2" style="stroke: #038048; stroke-width: 0.4;"/><text fill="#000000" font-family="sans-serif" font-size="4.4" lengthAdjust="spacingAndGlyphs" textLength="24.4" x="121.8" y="353.152">addWorker()</text><ellipse cx="118.2" cy="356.9188" fill="#84BE84" rx="1.2" ry="1.2" style="stroke: #038048; stroke-width: 0.4;"/><text fill="#000000" font-family="sans-serif" font-size="4.4" lengthAdjust="spacingAndGlyphs" textLength="17.2" x="121.8" y="358.6863">getAge()</text><ellipse cx="118.2" cy="362.4531" fill="#84BE84" rx="1.2" ry="1.2" style="stroke: #038048; stroke-width: 0.4;"/><text fill="#000000" font-family="sans-serif" font-size="4.4" lengthAdjust="spacingAndGlyphs" textLength="21.6" x="121.8" y="364.2207">getColour()</text><ellipse cx="118.2" cy="367.9875" fill="#84BE84" rx="1.2" ry="1.2" style="stroke: #038048; stroke-width: 0.4;"/><text fill="#000000" font-family="sans-serif" font-size="4.4" lengthAdjust="spacingAndGlyphs" textLength="22.8" x="121.8" y="369.7551">getDivinity()</text><ellipse cx="118.2" cy="373.5219" fill="#84BE84" rx="1.2" ry="1.2" style="stroke: #038048; stroke-width: 0.4;"/><text fill="#000000" font-family="sans-serif" font-size="4.4" lengthAdjust="spacingAndGlyphs" textLength="28.8" x="121.8" y="375.2895">getUsername()</text><ellipse cx="118.2" cy="379.0563" fill="#84BE84" rx="1.2" ry="1.2" style="stroke: #038048; stroke-width: 0.4;"/><text fill="#000000" font-family="sans-serif" font-size="4.4" lengthAdjust="spacingAndGlyphs" textLength="23.2" x="121.8" y="380.8238">getWorker()</text><ellipse cx="118.2" cy="384.5906" fill="#84BE84" rx="1.2" ry="1.2" style="stroke: #038048; stroke-width: 0.4;"/><text fill="#000000" font-family="sans-serif" font-size="4.4" lengthAdjust="spacingAndGlyphs" textLength="30" x="121.8" y="386.3582">getWorkerList()</text><ellipse cx="118.2" cy="390.125" fill="#84BE84" rx="1.2" ry="1.2" style="stroke: #038048; stroke-width: 0.4;"/><text fill="#000000" font-family="sans-serif" font-size="4.4" lengthAdjust="spacingAndGlyphs" textLength="21.6" x="121.8" y="391.8926">setColour()</text><ellipse cx="118.2" cy="395.6594" fill="#84BE84" rx="1.2" ry="1.2" style="stroke: #038048; stroke-width: 0.4;"/><text fill="#000000" font-family="sans-serif" font-size="4.4" lengthAdjust="spacingAndGlyphs" textLength="22.8" x="121.8" y="397.427">setDivinity()</text><!--MD5=[4df7c7e1d8a2d4974559b72aff849b0a]
class it.polimi.ingswPSP35.server.model.Square--><rect fill="#FEFECE" filter="url(#f1eytfoeqiz5u3)" height="118.8188" id="it.polimi.ingswPSP35.server.model.Square" style="stroke: #A80036; stroke-width: 0.6000000000000001;" width="61.2" x="151.4" y="59.7125"/><ellipse cx="172.3" cy="66.1125" fill="#ADD1B2" rx="4.4" ry="4.4" style="stroke: #A80036; stroke-width: 0.4;"/><path d="M173.1,64.7125 Q173.1813,64.5125 173.275,64.4125 Q173.3688,64.3125 173.475,64.3125 Q173.6625,64.3125 173.7813,64.425 Q173.9,64.5375 173.9,64.8 L173.9,65.425 Q173.9,65.6875 173.7875,65.8 Q173.675,65.9125 173.5,65.9125 Q173.3438,65.9125 173.2438,65.8438 Q173.1438,65.775 173.1,65.5938 Q173.0813,65.4688 173.0125,65.4 Q172.8875,65.2688 172.6625,65.1938 Q172.4375,65.1125 172.2125,65.1125 Q171.9313,65.1125 171.6938,65.225 Q171.4625,65.3375 171.2813,65.5875 Q171.1,65.8375 171.1,66.1813 L171.1,66.55 Q171.1,66.9625 171.4375,67.2375 Q171.775,67.5125 172.375,67.5125 Q172.7313,67.5125 172.9813,67.4313 Q173.125,67.3875 173.2875,67.2438 Q173.3938,67.1625 173.45,67.1375 Q173.5063,67.1125 173.575,67.1125 Q173.7063,67.1125 173.8,67.2188 Q173.9,67.3188 173.9,67.4625 Q173.9,67.6 173.7625,67.7625 Q173.5625,68 173.2438,68.1313 Q172.825,68.3125 172.3125,68.3125 Q171.7125,68.3125 171.2313,68.075 Q170.8438,67.8875 170.5688,67.4813 Q170.3,67.075 170.3,66.5938 L170.3,66.1563 Q170.3,65.6563 170.5375,65.2188 Q170.7813,64.7813 171.2,64.55 Q171.625,64.3125 172.1,64.3125 Q172.3875,64.3125 172.6375,64.4125 Q172.8875,64.5125 173.1,64.7125 Z "/><text fill="#000000" font-family="sans-serif" font-size="4.8" lengthAdjust="spacingAndGlyphs" textLength="16" x="180.5" y="68.0766">Square</text><line style="stroke: #A80036; stroke-width: 0.6000000000000001;" x1="151.8" x2="212.2" y1="72.5125" y2="72.5125"/><rect fill="none" height="2.4" style="stroke: #C82930; stroke-width: 0.4;" width="2.4" x="154.6" y="75.7125"/><text fill="#000000" font-family="sans-serif" font-size="4.4" lengthAdjust="spacingAndGlyphs" textLength="19.6" x="159.4" y="78.6801">height : int</text><rect fill="none" height="2.4" style="stroke: #C82930; stroke-width: 0.4;" width="2.4" x="154.6" y="81.2469"/><text fill="#000000" font-family="sans-serif" font-size="4.4" lengthAdjust="spacingAndGlyphs" textLength="50.8" x="159.4" y="84.2145">pieceStack : Stack&lt;Piece&gt;</text><line style="stroke: #A80036; stroke-width: 0.6000000000000001;" x1="151.8" x2="212.2" y1="86.7813" y2="86.7813"/><ellipse cx="155.8" cy="91.1813" fill="#84BE84" rx="1.2" ry="1.2" style="stroke: #038048; stroke-width: 0.4;"/><text fill="#000000" font-family="sans-serif" font-size="4.4" lengthAdjust="spacingAndGlyphs" textLength="12.8" x="159.4" y="92.9488">copy()</text><ellipse cx="155.8" cy="96.7156" fill="#84BE84" rx="1.2" ry="1.2" style="stroke: #038048; stroke-width: 0.4;"/><text fill="#000000" font-family="sans-serif" font-size="4.4" lengthAdjust="spacingAndGlyphs" textLength="12" x="159.4" y="98.4832">getC()</text><ellipse cx="155.8" cy="102.25" fill="#84BE84" rx="1.2" ry="1.2" style="stroke: #038048; stroke-width: 0.4;"/><text fill="#000000" font-family="sans-serif" font-size="4.4" lengthAdjust="spacingAndGlyphs" textLength="32.4" x="159.4" y="104.0176">getCoordinates()</text><ellipse cx="155.8" cy="107.7844" fill="#84BE84" rx="1.2" ry="1.2" style="stroke: #038048; stroke-width: 0.4;"/><text fill="#000000" font-family="sans-serif" font-size="4.4" lengthAdjust="spacingAndGlyphs" textLength="21.2" x="159.4" y="109.552">getHeight()</text><ellipse cx="155.8" cy="113.3188" fill="#84BE84" rx="1.2" ry="1.2" style="stroke: #038048; stroke-width: 0.4;"/><text fill="#000000" font-family="sans-serif" font-size="4.4" lengthAdjust="spacingAndGlyphs" textLength="30.4" x="159.4" y="115.0863">getPieceStack()</text><ellipse cx="155.8" cy="118.8531" fill="#84BE84" rx="1.2" ry="1.2" style="stroke: #038048; stroke-width: 0.4;"/><text fill="#000000" font-family="sans-serif" font-size="4.4" lengthAdjust="spacingAndGlyphs" textLength="12" x="159.4" y="120.6207">getR()</text><ellipse cx="155.8" cy="124.3875" fill="#84BE84" rx="1.2" ry="1.2" style="stroke: #038048; stroke-width: 0.4;"/><text fill="#000000" font-family="sans-serif" font-size="4.4" lengthAdjust="spacingAndGlyphs" textLength="16.4" x="159.4" y="126.1551">getTop()</text><ellipse cx="155.8" cy="129.9219" fill="#84BE84" rx="1.2" ry="1.2" style="stroke: #038048; stroke-width: 0.4;"/><text fill="#000000" font-family="sans-serif" font-size="4.4" lengthAdjust="spacingAndGlyphs" textLength="14" x="159.4" y="131.6895">insert()</text><ellipse cx="155.8" cy="135.4563" fill="#84BE84" rx="1.2" ry="1.2" style="stroke: #038048; stroke-width: 0.4;"/><text fill="#000000" font-family="sans-serif" font-size="4.4" lengthAdjust="spacingAndGlyphs" textLength="23.6" x="159.4" y="137.2238">isAdjacent()</text><ellipse cx="155.8" cy="140.9906" fill="#84BE84" rx="1.2" ry="1.2" style="stroke: #038048; stroke-width: 0.4;"/><text fill="#000000" font-family="sans-serif" font-size="4.4" lengthAdjust="spacingAndGlyphs" textLength="23.6" x="159.4" y="142.7582">isAdjacent()</text><ellipse cx="155.8" cy="146.525" fill="#84BE84" rx="1.2" ry="1.2" style="stroke: #038048; stroke-width: 0.4;"/><text fill="#000000" font-family="sans-serif" font-size="4.4" lengthAdjust="spacingAndGlyphs" textLength="15.2" x="159.4" y="148.2926">isFree()</text><ellipse cx="155.8" cy="152.0594" fill="#84BE84" rx="1.2" ry="1.2" style="stroke: #038048; stroke-width: 0.4;"/><text fill="#000000" font-family="sans-serif" font-size="4.4" lengthAdjust="spacingAndGlyphs" textLength="25.2" x="159.4" y="153.827">isPerimetral()</text><ellipse cx="155.8" cy="157.5938" fill="#84BE84" rx="1.2" ry="1.2" style="stroke: #038048; stroke-width: 0.4;"/><text fill="#000000" font-family="sans-serif" font-size="4.4" lengthAdjust="spacingAndGlyphs" textLength="16.8" x="159.4" y="159.3613">reduce()</text><ellipse cx="155.8" cy="163.1281" fill="#84BE84" rx="1.2" ry="1.2" style="stroke: #038048; stroke-width: 0.4;"/><text fill="#000000" font-family="sans-serif" font-size="4.4" lengthAdjust="spacingAndGlyphs" textLength="24.8" x="159.4" y="164.8957">removeTop()</text><polygon fill="#4177AF" points="155.8,167.0625,154.2,169.4625,157.4,169.4625" style="stroke: #1963A0; stroke-width: 0.4;"/><text fill="#000000" font-family="sans-serif" font-size="4.4" lengthAdjust="spacingAndGlyphs" textLength="17.2" x="159.4" y="170.4301">Square()</text><polygon fill="#4177AF" points="155.8,172.5969,154.2,174.9969,157.4,174.9969" style="stroke: #1963A0; stroke-width: 0.4;"/><text fill="#000000" font-family="sans-serif" font-size="4.4" lengthAdjust="spacingAndGlyphs" textLength="17.2" x="159.4" y="175.9645">Square()</text><!--MD5=[55d68675d977f6c6b147e7c4dde78111]
class it.polimi.ingswPSP35.server.model.Worker--><rect fill="#FEFECE" filter="url(#f1eytfoeqiz5u3)" height="69.0094" id="it.polimi.ingswPSP35.server.model.Worker" style="stroke: #A80036; stroke-width: 0.6000000000000001;" width="42.8" x="128.2" y="202.9125"/><ellipse cx="140.68" cy="209.3125" fill="#ADD1B2" rx="4.4" ry="4.4" style="stroke: #A80036; stroke-width: 0.4;"/><path d="M141.48,207.9125 Q141.5613,207.7125 141.655,207.6125 Q141.7488,207.5125 141.855,207.5125 Q142.0425,207.5125 142.1613,207.625 Q142.28,207.7375 142.28,208 L142.28,208.625 Q142.28,208.8875 142.1675,209 Q142.055,209.1125 141.88,209.1125 Q141.7238,209.1125 141.6238,209.0438 Q141.5238,208.975 141.48,208.7938 Q141.4613,208.6688 141.3925,208.6 Q141.2675,208.4688 141.0425,208.3938 Q140.8175,208.3125 140.5925,208.3125 Q140.3113,208.3125 140.0738,208.425 Q139.8425,208.5375 139.6613,208.7875 Q139.48,209.0375 139.48,209.3813 L139.48,209.75 Q139.48,210.1625 139.8175,210.4375 Q140.155,210.7125 140.755,210.7125 Q141.1113,210.7125 141.3613,210.6313 Q141.505,210.5875 141.6675,210.4438 Q141.7738,210.3625 141.83,210.3375 Q141.8863,210.3125 141.955,210.3125 Q142.0863,210.3125 142.18,210.4188 Q142.28,210.5188 142.28,210.6625 Q142.28,210.8 142.1425,210.9625 Q141.9425,211.2 141.6238,211.3313 Q141.205,211.5125 140.6925,211.5125 Q140.0925,211.5125 139.6113,211.275 Q139.2238,211.0875 138.9488,210.6813 Q138.68,210.275 138.68,209.7938 L138.68,209.3563 Q138.68,208.8563 138.9175,208.4188 Q139.1613,207.9813 139.58,207.75 Q140.005,207.5125 140.48,207.5125 Q140.7675,207.5125 141.0175,207.6125 Q141.2675,207.7125 141.48,207.9125 Z "/><text fill="#000000" font-family="sans-serif" font-size="4.8" lengthAdjust="spacingAndGlyphs" textLength="15.6" x="147.72" y="211.2766">Worker</text><line style="stroke: #A80036; stroke-width: 0.6000000000000001;" x1="128.6" x2="170.6" y1="215.7125" y2="215.7125"/><line style="stroke: #A80036; stroke-width: 0.6000000000000001;" x1="128.6" x2="170.6" y1="218.9125" y2="218.9125"/><ellipse cx="132.6" cy="223.3125" fill="#84BE84" rx="1.2" ry="1.2" style="stroke: #038048; stroke-width: 0.4;"/><text fill="#000000" font-family="sans-serif" font-size="4.4" lengthAdjust="spacingAndGlyphs" textLength="17.2" x="136.2" y="225.0801">Worker()</text><ellipse cx="132.6" cy="228.8469" fill="#84BE84" rx="1.2" ry="1.2" style="stroke: #038048; stroke-width: 0.4;"/><text fill="#000000" font-family="sans-serif" font-size="4.4" lengthAdjust="spacingAndGlyphs" textLength="17.2" x="136.2" y="230.6145">Worker()</text><ellipse cx="132.6" cy="234.3813" fill="#84BE84" rx="1.2" ry="1.2" style="stroke: #038048; stroke-width: 0.4;"/><text fill="#000000" font-family="sans-serif" font-size="4.4" lengthAdjust="spacingAndGlyphs" textLength="12.8" x="136.2" y="236.1488">copy()</text><ellipse cx="132.6" cy="239.9156" fill="#84BE84" rx="1.2" ry="1.2" style="stroke: #038048; stroke-width: 0.4;"/><text fill="#000000" font-family="sans-serif" font-size="4.4" lengthAdjust="spacingAndGlyphs" textLength="12" x="136.2" y="241.6832">getC()</text><ellipse cx="132.6" cy="245.45" fill="#84BE84" rx="1.2" ry="1.2" style="stroke: #038048; stroke-width: 0.4;"/><text fill="#000000" font-family="sans-serif" font-size="4.4" lengthAdjust="spacingAndGlyphs" textLength="32.4" x="136.2" y="247.2176">getCoordinates()</text><ellipse cx="132.6" cy="250.9844" fill="#84BE84" rx="1.2" ry="1.2" style="stroke: #038048; stroke-width: 0.4;"/><text fill="#000000" font-family="sans-serif" font-size="4.4" lengthAdjust="spacingAndGlyphs" textLength="21.2" x="136.2" y="252.752">getPlayer()</text><ellipse cx="132.6" cy="256.5188" fill="#84BE84" rx="1.2" ry="1.2" style="stroke: #038048; stroke-width: 0.4;"/><text fill="#000000" font-family="sans-serif" font-size="4.4" lengthAdjust="spacingAndGlyphs" textLength="12" x="136.2" y="258.2863">getR()</text><ellipse cx="132.6" cy="262.0531" fill="#84BE84" rx="1.2" ry="1.2" style="stroke: #038048; stroke-width: 0.4;"/><text fill="#000000" font-family="sans-serif" font-size="4.4" lengthAdjust="spacingAndGlyphs" textLength="16.8" x="136.2" y="263.8207">reduce()</text><ellipse cx="132.6" cy="267.5875" fill="#84BE84" rx="1.2" ry="1.2" style="stroke: #038048; stroke-width: 0.4;"/><text fill="#000000" font-family="sans-serif" font-size="4.4" lengthAdjust="spacingAndGlyphs" textLength="32.4" x="136.2" y="269.3551">setCoordinates()</text><!--MD5=[217328d92af2006afdc6f9e1df1d0468]
class it.polimi.ingswPSP35.server.controller.divinities.Divinity--><rect fill="#FEFECE" filter="url(#f1eytfoeqiz5u3)" height="19.2" id="it.polimi.ingswPSP35.server.controller.divinities.Divinity" style="stroke: #A80036; stroke-width: 0.6000000000000001;" width="28" x="135.6" y="450.5125"/><ellipse cx="141.6" cy="456.9125" fill="#ADD1B2" rx="4.4" ry="4.4" style="stroke: #A80036; stroke-width: 0.4;"/><path d="M142.4,455.5125 Q142.4813,455.3125 142.575,455.2125 Q142.6688,455.1125 142.775,455.1125 Q142.9625,455.1125 143.0813,455.225 Q143.2,455.3375 143.2,455.6 L143.2,456.225 Q143.2,456.4875 143.0875,456.6 Q142.975,456.7125 142.8,456.7125 Q142.6438,456.7125 142.5438,456.6438 Q142.4438,456.575 142.4,456.3938 Q142.3813,456.2688 142.3125,456.2 Q142.1875,456.0688 141.9625,455.9938 Q141.7375,455.9125 141.5125,455.9125 Q141.2313,455.9125 140.9938,456.025 Q140.7625,456.1375 140.5813,456.3875 Q140.4,456.6375 140.4,456.9813 L140.4,457.35 Q140.4,457.7625 140.7375,458.0375 Q141.075,458.3125 141.675,458.3125 Q142.0313,458.3125 142.2813,458.2313 Q142.425,458.1875 142.5875,458.0438 Q142.6938,457.9625 142.75,457.9375 Q142.8063,457.9125 142.875,457.9125 Q143.0063,457.9125 143.1,458.0188 Q143.2,458.1188 143.2,458.2625 Q143.2,458.4 143.0625,458.5625 Q142.8625,458.8 142.5438,458.9313 Q142.125,459.1125 141.6125,459.1125 Q141.0125,459.1125 140.5313,458.875 Q140.1438,458.6875 139.8688,458.2813 Q139.6,457.875 139.6,457.3938 L139.6,456.9563 Q139.6,456.4563 139.8375,456.0188 Q140.0813,455.5813 140.5,455.35 Q140.925,455.1125 141.4,455.1125 Q141.6875,455.1125 141.9375,455.2125 Q142.1875,455.3125 142.4,455.5125 Z "/><text fill="#000000" font-family="sans-serif" font-size="4.8" lengthAdjust="spacingAndGlyphs" textLength="15.2" x="147.2" y="458.8766">Divinity</text><line style="stroke: #A80036; stroke-width: 0.6000000000000001;" x1="136" x2="163.2" y1="463.3125" y2="463.3125"/><line style="stroke: #A80036; stroke-width: 0.6000000000000001;" x1="136" x2="163.2" y1="466.5125" y2="466.5125"/><!--MD5=[d5e7fb9330a51fbc965abab1f65e6394]
class it.polimi.ingswPSP35.commons.Coordinates--><rect fill="#FEFECE" filter="url(#f1eytfoeqiz5u3)" height="19.2" id="it.polimi.ingswPSP35.commons.Coordinates" style="stroke: #A80036; stroke-width: 0.6000000000000001;" width="40" x="244.8" y="342.1125"/><ellipse cx="250.8" cy="348.5125" fill="#ADD1B2" rx="4.4" ry="4.4" style="stroke: #A80036; stroke-width: 0.4;"/><path d="M251.6,347.1125 Q251.6813,346.9125 251.775,346.8125 Q251.8688,346.7125 251.975,346.7125 Q252.1625,346.7125 252.2813,346.825 Q252.4,346.9375 252.4,347.2 L252.4,347.825 Q252.4,348.0875 252.2875,348.2 Q252.175,348.3125 252,348.3125 Q251.8438,348.3125 251.7438,348.2438 Q251.6438,348.175 251.6,347.9938 Q251.5813,347.8688 251.5125,347.8 Q251.3875,347.6688 251.1625,347.5938 Q250.9375,347.5125 250.7125,347.5125 Q250.4313,347.5125 250.1938,347.625 Q249.9625,347.7375 249.7813,347.9875 Q249.6,348.2375 249.6,348.5813 L249.6,348.95 Q249.6,349.3625 249.9375,349.6375 Q250.275,349.9125 250.875,349.9125 Q251.2313,349.9125 251.4813,349.8313 Q251.625,349.7875 251.7875,349.6438 Q251.8938,349.5625 251.95,349.5375 Q252.0063,349.5125 252.075,349.5125 Q252.2063,349.5125 252.3,349.6188 Q252.4,349.7188 252.4,349.8625 Q252.4,350 252.2625,350.1625 Q252.0625,350.4 251.7438,350.5313 Q251.325,350.7125 250.8125,350.7125 Q250.2125,350.7125 249.7313,350.475 Q249.3438,350.2875 249.0688,349.8813 Q248.8,349.475 248.8,348.9938 L248.8,348.5563 Q248.8,348.0563 249.0375,347.6188 Q249.2813,347.1813 249.7,346.95 Q250.125,346.7125 250.6,346.7125 Q250.8875,346.7125 251.1375,346.8125 Q251.3875,346.9125 251.6,347.1125 Z "/><text fill="#000000" font-family="sans-serif" font-size="4.8" lengthAdjust="spacingAndGlyphs" textLength="27.2" x="256.4" y="350.4766">Coordinates</text><line style="stroke: #A80036; stroke-width: 0.6000000000000001;" x1="245.2" x2="284.4" y1="354.9125" y2="354.9125"/><line style="stroke: #A80036; stroke-width: 0.6000000000000001;" x1="245.2" x2="284.4" y1="358.1125" y2="358.1125"/><!--MD5=[09635446918025a64da42f23f2863af7]
reverse link it.polimi.ingswPSP35.server.model.Piece to it.polimi.ingswPSP35.server.model.Block--><path d="M33.2,136.8017 C33.2,136.8017 33.2,227.8557 33.2,227.8557 " fill="none" id="it.polimi.ingswPSP35.server.model.Piece&lt;-it.polimi.ingswPSP35.server.model.Block" style="stroke: #A80036; stroke-width: 0.4; stroke-dasharray: 7.0,7.0;"/><polygon fill="none" points="30.4,136.8017,33.2,128.8017,36,136.8017,30.4,136.8017" style="stroke: #A80036; stroke-width: 0.4;"/><!--MD5=[9c398d4c84a6e79a8dd79a1acabd9fc1]
reverse link it.polimi.ingswPSP35.server.model.Piece to it.polimi.ingswPSP35.server.model.Dome--><path d="M56.236,119.3125 C56.236,119.3125 56.9,119.3125 56.9,119.3125 C56.9,119.3125 56.9,237.7125 56.9,237.7125 C56.9,237.7125 59.876,237.7125 63.5264,237.7125 " fill="none" id="it.polimi.ingswPSP35.server.model.Piece&lt;-it.polimi.ingswPSP35.server.model.Dome" style="stroke: #A80036; stroke-width: 0.4; stroke-dasharray: 7.0,7.0;"/><polygon fill="none" points="58.258,122.1125,50.258,119.3125,58.258,116.5125,58.258,122.1125" style="stroke: #A80036; stroke-width: 0.4;"/><!--MD5=[cb3a2bfd23fb30b2acc55aa6ee0e0899]
reverse link it.polimi.ingswPSP35.server.model.Player to it.polimi.ingswPSP35.server.controller.divinities.Divinity--><path d="M149.6,405.4057 C149.6,405.4057 149.6,450.457 149.6,450.457 " fill="none" id="it.polimi.ingswPSP35.server.model.Player&lt;-it.polimi.ingswPSP35.server.controller.divinities.Divinity" style="stroke: #A80036; stroke-width: 0.4;"/><polygon fill="#FFFFFF" points="149.6,400.2057,148,402.6057,149.6,405.0057,151.2,402.6057,149.6,400.2057" style="stroke: #A80036; stroke-width: 0.4;"/><text fill="#000000" font-family="sans-serif" font-size="5.2" lengthAdjust="spacingAndGlyphs" textLength="1.6" x="150" y="428.3105">.</text><!--MD5=[36514dc5afd7dea4621030646fd3d361]
reverse link it.polimi.ingswPSP35.server.model.Square to it.polimi.ingswPSP35.commons.Coordinates--><path d="M199,183.7597 C199,183.7597 199,351.7125 199,351.7125 C199,351.7125 225.3496,351.7125 244.7004,351.7125 " fill="none" id="it.polimi.ingswPSP35.server.model.Square&lt;-it.polimi.ingswPSP35.commons.Coordinates" style="stroke: #A80036; stroke-width: 0.4;"/><polygon fill="#FFFFFF" points="199,178.5597,197.4,180.9597,199,183.3597,200.6,180.9597,199,178.5597" style="stroke: #A80036; stroke-width: 0.4;"/><text fill="#000000" font-family="sans-serif" font-size="5.2" lengthAdjust="spacingAndGlyphs" textLength="1.6" x="223.6" y="239.7105">.</text><!--MD5=[4ea8544a8e5a56353eef037fb36b87c9]
reverse link it.polimi.ingswPSP35.server.model.Piece to it.polimi.ingswPSP35.server.model.Worker--><path d="M41.4,136.7281 C41.4,136.7281 41.4,215.7125 41.4,215.7125 C41.4,215.7125 96.5396,215.7125 128.0936,215.7125 " fill="none" id="it.polimi.ingswPSP35.server.model.Piece&lt;-it.polimi.ingswPSP35.server.model.Worker" style="stroke: #A80036; stroke-width: 0.4; stroke-dasharray: 7.0,7.0;"/><polygon fill="none" points="38.6,136.7281,41.4,128.7281,44.2,136.7281,38.6,136.7281" style="stroke: #A80036; stroke-width: 0.4;"/><!--MD5=[cce2556fdeee4dcc4716302380aa54bf]
reverse link it.polimi.ingswPSP35.server.model.Worker to it.polimi.ingswPSP35.commons.Coordinates--><path d="M176.3332,237.7125 C176.3332,237.7125 264.8,237.7125 264.8,237.7125 C264.8,237.7125 264.8,314.4245 264.8,341.9929 " fill="none" id="it.polimi.ingswPSP35.server.model.Worker&lt;-it.polimi.ingswPSP35.commons.Coordinates" style="stroke: #A80036; stroke-width: 0.4;"/><polygon fill="#FFFFFF" points="171.1332,237.7125,173.5332,239.3125,175.9332,237.7125,173.5332,236.1125,171.1332,237.7125" style="stroke: #A80036; stroke-width: 0.4;"/><text fill="#000000" font-family="sans-serif" font-size="5.2" lengthAdjust="spacingAndGlyphs" textLength="1.6" x="190" y="289.9105">.</text><!--MD5=[a1c657d06c3d1ff7a83b9c080195792a]
reverse link it.polimi.ingswPSP35.server.model.Worker to it.polimi.ingswPSP35.server.model.Player--><path d="M149.6,277.4413 C149.6,277.4413 149.6,303.2597 149.6,303.2597 " fill="none" id="it.polimi.ingswPSP35.server.model.Worker&lt;-it.polimi.ingswPSP35.server.model.Player" style="stroke: #A80036; stroke-width: 0.4;"/><polygon fill="#FFFFFF" points="149.6,272.2413,148,274.6413,149.6,277.0413,151.2,274.6413,149.6,272.2413" style="stroke: #A80036; stroke-width: 0.4;"/><text fill="#000000" font-family="sans-serif" font-size="5.2" lengthAdjust="spacingAndGlyphs" textLength="1.6" x="150" y="289.9105">.</text><!--MD5=[136f65e8754d1e5b32d8757d47a28b37]
@startuml

title __MODEL's Class Diagram__\n


  namespace it.polimi.ingswPSP35.server {
    namespace model {
     class it.polimi.ingswPSP35.server.model.Block {
          }
    class it.polimi.ingswPSP35.server.model.Board {
              # matrix : Square[][]
              - changedSquares : List<Square>
              + Board()
              + Board()
              + getChangedSquares()
              + getSquare()
              + getSquare()
              + setChangedSquares()
          }
    class it.polimi.ingswPSP35.server.model.Dome {
          }
    interface it.polimi.ingswPSP35.server.model.Piece {
          }
    class it.polimi.ingswPSP35.server.model.Player {
              - age : int
              - colour : int
              - username : String
              - workerList : ArrayList<Worker>
              + Player()
              + addWorker()
              + getAge()
              + getColour()
              + getDivinity()
              + getUsername()
              + getWorker()
              + getWorkerList()
              + setColour()
              + setDivinity()
          }
      class it.polimi.ingswPSP35.server.model.Square {
          - height : int
          - pieceStack : Stack<Piece>
          + copy()
          + getC()
          + getCoordinates()
          + getHeight()
          + getPieceStack()
          + getR()
          + getTop()
          + insert()
          + isAdjacent()
          + isAdjacent()
          + isFree()
          + isPerimetral()
          + reduce()
          + removeTop()
          ~ Square()
          ~ Square()
      }
      class it.polimi.ingswPSP35.server.model.Worker {
                + Worker()
                + Worker()
                + copy()
                + getC()
                + getCoordinates()
                + getPlayer()
                + getR()
                + reduce()
                + setCoordinates()
            }
    }
  }
  


  skinparam linetype ortho
  it.polimi.ingswPSP35.server.model.Block .up.|> it.polimi.ingswPSP35.server.model.Piece
  it.polimi.ingswPSP35.server.model.Dome .up.|> it.polimi.ingswPSP35.server.model.Piece
  it.polimi.ingswPSP35.server.model.Player o- - it.polimi.ingswPSP35.server.controller.divinities.Divinity
  it.polimi.ingswPSP35.server.model.Square o- - it.polimi.ingswPSP35.commons.Coordinates
  it.polimi.ingswPSP35.server.model.Worker .up.|> it.polimi.ingswPSP35.server.model.Piece
  it.polimi.ingswPSP35.server.model.Worker o- - it.polimi.ingswPSP35.commons.Coordinates
  it.polimi.ingswPSP35.server.model.Worker o- - it.polimi.ingswPSP35.server.model.Player



@enduml

PlantUML version 1.2020.09(Sun May 10 12:51:06 CEST 2020)
(GPL source distribution)
Java Runtime: OpenJDK Runtime Environment
JVM: OpenJDK 64-Bit Server VM
Java Version: 11.0.7+10-b765.53
Operating System: Windows 10
Default Encoding: Cp1252
Language: it
Country: IT
--></g></svg>