<?xml version="1.0" encoding="UTF-8" standalone="no"?><svg xmlns="http://www.w3.org/2000/svg" xmlns:xlink="http://www.w3.org/1999/xlink" contentScriptType="application/ecmascript" contentStyleType="text/css" height="1179px" preserveAspectRatio="none" style="width:964px;height:1179px;" version="1.1" viewBox="0 0 964 1179" width="964px" zoomAndPan="magnify"><defs><filter height="300%" id="f6q94yf1rkmhv" width="300%" x="-1" y="-1"><feGaussianBlur result="blurOut" stdDeviation="2.0"/><feColorMatrix in="blurOut" result="blurOut2" type="matrix" values="0 0 0 0 0 0 0 0 0 0 0 0 0 0 0 0 0 0 .4 0"/><feOffset dx="4.0" dy="4.0" in="blurOut2" result="blurOut3"/><feBlend in="SourceGraphic" in2="blurOut3" mode="normal"/></filter></defs><g><text fill="#000000" font-family="sans-serif" font-size="18" lengthAdjust="spacingAndGlyphs" text-decoration="underline" textLength="207" x="384.5" y="18.6855">SERVER's Class Diagram</text><text fill="#000000" font-family="sans-serif" font-size="18" lengthAdjust="spacingAndGlyphs" textLength="0" x="490.5" y="41.3262"/><!--MD5=[b96a9a473a257e29118e4c189bb9a890]
cluster it.polimi.ingswPSP35.server--><polygon fill="#FFFFFF" filter="url(#f6q94yf1rkmhv)" points="22,69.2813,222,69.2813,229,92.8906,800,92.8906,800,1167.2813,22,1167.2813,22,69.2813" style="stroke: #000000; stroke-width: 1.5;"/><line style="stroke: #000000; stroke-width: 1.5;" x1="22" x2="229" y1="92.8906" y2="92.8906"/><text fill="#000000" font-family="sans-serif" font-size="14" font-weight="bold" lengthAdjust="spacingAndGlyphs" textLength="194" x="26" y="85.8145">it.polimi.ingswPSP35.server</text><!--MD5=[7db3c59d38ae5b37b484eb2df9368145]
cluster java.util--><polygon fill="#FFFFFF" filter="url(#f6q94yf1rkmhv)" points="824,858.2813,885,858.2813,892,881.8906,936,881.8906,936,958.2813,824,958.2813,824,858.2813" style="stroke: #000000; stroke-width: 1.5;"/><line style="stroke: #000000; stroke-width: 1.5;" x1="824" x2="892" y1="881.8906" y2="881.8906"/><text fill="#000000" font-family="sans-serif" font-size="14" font-weight="bold" lengthAdjust="spacingAndGlyphs" textLength="55" x="828" y="874.8145">java.util</text><!--MD5=[aa8f7b917213fcc1c2766e2d59b49067]
cluster java.lang--><polygon fill="#FFFFFF" filter="url(#f6q94yf1rkmhv)" points="824,179.7813,893,179.7813,900,203.3906,942,203.3906,942,279.7813,824,279.7813,824,179.7813" style="stroke: #000000; stroke-width: 1.5;"/><line style="stroke: #000000; stroke-width: 1.5;" x1="824" x2="900" y1="203.3906" y2="203.3906"/><text fill="#000000" font-family="sans-serif" font-size="14" font-weight="bold" lengthAdjust="spacingAndGlyphs" textLength="63" x="828" y="196.3145">java.lang</text><!--MD5=[aa094b2d04dde6ad08d83e76ad7ae037]
class it.polimi.ingswPSP35.server.ClientHandler--><rect fill="#FEFECE" filter="url(#f6q94yf1rkmhv)" height="269.375" id="it.polimi.ingswPSP35.server.ClientHandler" style="stroke: #A80036; stroke-width: 1.5;" width="276" x="279" y="105.2813"/><ellipse cx="374.75" cy="121.2813" fill="#ADD1B2" rx="11" ry="11" style="stroke: #A80036; stroke-width: 1.0;"/><path d="M376.75,117.7813 Q376.9531,117.2813 377.1875,117.0313 Q377.4219,116.7813 377.6875,116.7813 Q378.1563,116.7813 378.4531,117.0625 Q378.75,117.3438 378.75,118 L378.75,119.5625 Q378.75,120.2188 378.4688,120.5 Q378.1875,120.7813 377.75,120.7813 Q377.3594,120.7813 377.1094,120.6094 Q376.8594,120.4375 376.75,119.9844 Q376.7031,119.6719 376.5313,119.5 Q376.2188,119.1719 375.6563,118.9844 Q375.0938,118.7813 374.5313,118.7813 Q373.8281,118.7813 373.2344,119.0625 Q372.6563,119.3438 372.2031,119.9688 Q371.75,120.5938 371.75,121.4531 L371.75,122.375 Q371.75,123.4063 372.5938,124.0938 Q373.4375,124.7813 374.9375,124.7813 Q375.8281,124.7813 376.4531,124.5781 Q376.8125,124.4688 377.2188,124.1094 Q377.4844,123.9063 377.625,123.8438 Q377.7656,123.7813 377.9375,123.7813 Q378.2656,123.7813 378.5,124.0469 Q378.75,124.2969 378.75,124.6563 Q378.75,125 378.4063,125.4063 Q377.9063,126 377.1094,126.3281 Q376.0625,126.7813 374.7813,126.7813 Q373.2813,126.7813 372.0781,126.1875 Q371.1094,125.7188 370.4219,124.7031 Q369.75,123.6875 369.75,122.4844 L369.75,121.3906 Q369.75,120.1406 370.3438,119.0469 Q370.9531,117.9531 372,117.375 Q373.0625,116.7813 374.25,116.7813 Q374.9688,116.7813 375.5938,117.0313 Q376.2188,117.2813 376.75,117.7813 Z "/><text fill="#000000" font-family="sans-serif" font-size="12" lengthAdjust="spacingAndGlyphs" textLength="76" x="395.25" y="126.1914">ClientHandler</text><line style="stroke: #A80036; stroke-width: 1.5;" x1="280" x2="554" y1="137.2813" y2="137.2813"/><rect fill="none" height="6" style="stroke: #C82930; stroke-width: 1.0;" width="6" x="287" y="145.2813"/><text fill="#000000" font-family="sans-serif" font-size="11" lengthAdjust="spacingAndGlyphs" textLength="100" x="299" y="152.7002">clientSocket : Socket</text><rect fill="none" height="6" style="stroke: #C82930; stroke-width: 1.0;" width="6" x="287" y="159.1172"/><text fill="#000000" font-family="sans-serif" font-size="11" lengthAdjust="spacingAndGlyphs" textLength="59" x="299" y="166.5361">gson : Gson</text><rect fill="none" height="6" style="stroke: #C82930; stroke-width: 1.0;" width="6" x="287" y="172.9531"/><text fill="#000000" font-family="sans-serif" font-size="11" lengthAdjust="spacingAndGlyphs" textLength="243" x="299" y="180.3721">inboundMessages : LinkedBlockingQueue&lt;Object&gt;</text><rect fill="none" height="6" style="stroke: #C82930; stroke-width: 1.0;" width="6" x="287" y="186.7891"/><text fill="#000000" font-family="sans-serif" font-size="11" lengthAdjust="spacingAndGlyphs" textLength="250" x="299" y="194.208">outboundMessages : LinkedBlockingQueue&lt;Object&gt;</text><rect fill="none" height="6" style="stroke: #C82930; stroke-width: 1.0;" width="6" x="287" y="200.625"/><text fill="#000000" font-family="sans-serif" font-size="11" lengthAdjust="spacingAndGlyphs" textLength="75" x="299" y="208.0439">reader : Thread</text><rect fill="none" height="6" style="stroke: #C82930; stroke-width: 1.0;" width="6" x="287" y="214.4609"/><text fill="#000000" font-family="sans-serif" font-size="11" lengthAdjust="spacingAndGlyphs" textLength="85" x="299" y="221.8799">username : String</text><rect fill="none" height="6" style="stroke: #C82930; stroke-width: 1.0;" width="6" x="287" y="228.2969"/><text fill="#000000" font-family="sans-serif" font-size="11" lengthAdjust="spacingAndGlyphs" textLength="72" x="299" y="235.7158">writer : Thread</text><line style="stroke: #A80036; stroke-width: 1.5;" x1="280" x2="554" y1="242.1328" y2="242.1328"/><ellipse cx="290" cy="253.1328" fill="#84BE84" rx="3" ry="3" style="stroke: #038048; stroke-width: 1.0;"/><text fill="#000000" font-family="sans-serif" font-size="11" lengthAdjust="spacingAndGlyphs" textLength="71" x="299" y="257.5518">ClientHandler()</text><ellipse cx="290" cy="266.9688" fill="#84BE84" rx="3" ry="3" style="stroke: #038048; stroke-width: 1.0;"/><text fill="#000000" font-family="sans-serif" font-size="11" lengthAdjust="spacingAndGlyphs" textLength="69" x="299" y="271.3877">createPlayer()</text><ellipse cx="290" cy="280.8047" fill="#84BE84" rx="3" ry="3" style="stroke: #038048; stroke-width: 1.0;"/><text fill="#000000" font-family="sans-serif" font-size="11" lengthAdjust="spacingAndGlyphs" textLength="60" x="299" y="285.2236">deserialize()</text><ellipse cx="290" cy="294.6406" fill="#84BE84" rx="3" ry="3" style="stroke: #038048; stroke-width: 1.0;"/><text fill="#000000" font-family="sans-serif" font-size="11" lengthAdjust="spacingAndGlyphs" textLength="61" x="299" y="299.0596">disconnect()</text><ellipse cx="290" cy="308.4766" fill="#84BE84" rx="3" ry="3" style="stroke: #038048; stroke-width: 1.0;"/><text fill="#000000" font-family="sans-serif" font-size="11" lengthAdjust="spacingAndGlyphs" textLength="72" x="299" y="312.8955">getClientInput()</text><ellipse cx="290" cy="322.3125" fill="#84BE84" rx="3" ry="3" style="stroke: #038048; stroke-width: 1.0;"/><text fill="#000000" font-family="sans-serif" font-size="11" lengthAdjust="spacingAndGlyphs" textLength="108" x="299" y="326.7314">getNumberOfPlayers()</text><ellipse cx="290" cy="336.1484" fill="#84BE84" rx="3" ry="3" style="stroke: #038048; stroke-width: 1.0;"/><text fill="#000000" font-family="sans-serif" font-size="11" lengthAdjust="spacingAndGlyphs" textLength="72" x="299" y="340.5674">getUsername()</text><ellipse cx="290" cy="349.9844" fill="#84BE84" rx="3" ry="3" style="stroke: #038048; stroke-width: 1.0;"/><text fill="#000000" font-family="sans-serif" font-size="11" lengthAdjust="spacingAndGlyphs" textLength="123" x="299" y="354.4033">sendNotificationToClient()</text><ellipse cx="290" cy="363.8203" fill="#84BE84" rx="3" ry="3" style="stroke: #038048; stroke-width: 1.0;"/><text fill="#000000" font-family="sans-serif" font-size="11" lengthAdjust="spacingAndGlyphs" textLength="101" x="299" y="368.2393">sendObjectToClient()</text><!--MD5=[32ae0ad0dfde1336bb6d9aea67e11a46]
class it.polimi.ingswPSP35.server.ClientList--><rect fill="#FEFECE" filter="url(#f6q94yf1rkmhv)" height="61.8359" id="it.polimi.ingswPSP35.server.ClientList" style="stroke: #A80036; stroke-width: 1.5;" width="129" x="520.5" y="1089.2813"/><ellipse cx="555.75" cy="1105.2813" fill="#ADD1B2" rx="11" ry="11" style="stroke: #A80036; stroke-width: 1.0;"/><path d="M557.75,1101.7813 Q557.9531,1101.2813 558.1875,1101.0313 Q558.4219,1100.7813 558.6875,1100.7813 Q559.1563,1100.7813 559.4531,1101.0625 Q559.75,1101.3438 559.75,1102 L559.75,1103.5625 Q559.75,1104.2188 559.4688,1104.5 Q559.1875,1104.7813 558.75,1104.7813 Q558.3594,1104.7813 558.1094,1104.6094 Q557.8594,1104.4375 557.75,1103.9844 Q557.7031,1103.6719 557.5313,1103.5 Q557.2188,1103.1719 556.6563,1102.9844 Q556.0938,1102.7813 555.5313,1102.7813 Q554.8281,1102.7813 554.2344,1103.0625 Q553.6563,1103.3438 553.2031,1103.9688 Q552.75,1104.5938 552.75,1105.4531 L552.75,1106.375 Q552.75,1107.4063 553.5938,1108.0938 Q554.4375,1108.7813 555.9375,1108.7813 Q556.8281,1108.7813 557.4531,1108.5781 Q557.8125,1108.4688 558.2188,1108.1094 Q558.4844,1107.9063 558.625,1107.8438 Q558.7656,1107.7813 558.9375,1107.7813 Q559.2656,1107.7813 559.5,1108.0469 Q559.75,1108.2969 559.75,1108.6563 Q559.75,1109 559.4063,1109.4063 Q558.9063,1110 558.1094,1110.3281 Q557.0625,1110.7813 555.7813,1110.7813 Q554.2813,1110.7813 553.0781,1110.1875 Q552.1094,1109.7188 551.4219,1108.7031 Q550.75,1107.6875 550.75,1106.4844 L550.75,1105.3906 Q550.75,1104.1406 551.3438,1103.0469 Q551.9531,1101.9531 553,1101.375 Q554.0625,1100.7813 555.25,1100.7813 Q555.9688,1100.7813 556.5938,1101.0313 Q557.2188,1101.2813 557.75,1101.7813 Z "/><text fill="#000000" font-family="sans-serif" font-size="12" lengthAdjust="spacingAndGlyphs" textLength="52" x="574.25" y="1110.1914">ClientList</text><line style="stroke: #A80036; stroke-width: 1.5;" x1="521.5" x2="648.5" y1="1121.2813" y2="1121.2813"/><line style="stroke: #A80036; stroke-width: 1.5;" x1="521.5" x2="648.5" y1="1129.2813" y2="1129.2813"/><ellipse cx="531.5" cy="1140.2813" fill="#84BE84" rx="3" ry="3" style="stroke: #038048; stroke-width: 1.0;"/><text fill="#000000" font-family="sans-serif" font-size="11" lengthAdjust="spacingAndGlyphs" textLength="103" x="540.5" y="1144.7002">getClientFromPlayer()</text><!--MD5=[19a597428f6963c33ad374d84a8c30ec]
class it.polimi.ingswPSP35.server.Lobby--><rect fill="#FEFECE" filter="url(#f6q94yf1rkmhv)" height="117.1797" id="it.polimi.ingswPSP35.server.Lobby" style="stroke: #A80036; stroke-width: 1.5;" width="93" x="420.5" y="630.2813"/><ellipse cx="448.1" cy="646.2813" fill="#ADD1B2" rx="11" ry="11" style="stroke: #A80036; stroke-width: 1.0;"/><path d="M450.1,642.7813 Q450.3031,642.2813 450.5375,642.0313 Q450.7719,641.7813 451.0375,641.7813 Q451.5063,641.7813 451.8031,642.0625 Q452.1,642.3438 452.1,643 L452.1,644.5625 Q452.1,645.2188 451.8188,645.5 Q451.5375,645.7813 451.1,645.7813 Q450.7094,645.7813 450.4594,645.6094 Q450.2094,645.4375 450.1,644.9844 Q450.0531,644.6719 449.8813,644.5 Q449.5688,644.1719 449.0063,643.9844 Q448.4438,643.7813 447.8813,643.7813 Q447.1781,643.7813 446.5844,644.0625 Q446.0063,644.3438 445.5531,644.9688 Q445.1,645.5938 445.1,646.4531 L445.1,647.375 Q445.1,648.4063 445.9438,649.0938 Q446.7875,649.7813 448.2875,649.7813 Q449.1781,649.7813 449.8031,649.5781 Q450.1625,649.4688 450.5688,649.1094 Q450.8344,648.9063 450.975,648.8438 Q451.1156,648.7813 451.2875,648.7813 Q451.6156,648.7813 451.85,649.0469 Q452.1,649.2969 452.1,649.6563 Q452.1,650 451.7563,650.4063 Q451.2563,651 450.4594,651.3281 Q449.4125,651.7813 448.1313,651.7813 Q446.6313,651.7813 445.4281,651.1875 Q444.4594,650.7188 443.7719,649.7031 Q443.1,648.6875 443.1,647.4844 L443.1,646.3906 Q443.1,645.1406 443.6938,644.0469 Q444.3031,642.9531 445.35,642.375 Q446.4125,641.7813 447.6,641.7813 Q448.3188,641.7813 448.9438,642.0313 Q449.5688,642.2813 450.1,642.7813 Z "/><text fill="#000000" font-family="sans-serif" font-size="12" lengthAdjust="spacingAndGlyphs" textLength="33" x="464.9" y="651.1914">Lobby</text><line style="stroke: #A80036; stroke-width: 1.5;" x1="421.5" x2="512.5" y1="662.2813" y2="662.2813"/><polygon fill="none" points="431.5,669.2813,427.5,675.2813,435.5,675.2813" style="stroke: #1963A0; stroke-width: 1.0;"/><text fill="#000000" font-family="sans-serif" font-size="11" lengthAdjust="spacingAndGlyphs" textLength="67" x="440.5" y="677.7002">lobbySize : int</text><line style="stroke: #A80036; stroke-width: 1.5;" x1="421.5" x2="512.5" y1="684.1172" y2="684.1172"/><ellipse cx="431.5" cy="695.1172" fill="#84BE84" rx="3" ry="3" style="stroke: #038048; stroke-width: 1.0;"/><text fill="#000000" font-family="sans-serif" font-size="11" lengthAdjust="spacingAndGlyphs" textLength="52" x="440.5" y="699.5361">addClient()</text><ellipse cx="431.5" cy="708.9531" fill="#84BE84" rx="3" ry="3" style="stroke: #038048; stroke-width: 1.0;"/><text fill="#000000" font-family="sans-serif" font-size="11" lengthAdjust="spacingAndGlyphs" textLength="45" x="440.5" y="713.3721">initialize()</text><ellipse cx="431.5" cy="722.7891" fill="#84BE84" rx="3" ry="3" style="stroke: #038048; stroke-width: 1.0;"/><text fill="#000000" font-family="sans-serif" font-size="11" lengthAdjust="spacingAndGlyphs" textLength="32" x="440.5" y="727.208">isFull()</text><ellipse cx="431.5" cy="736.625" fill="#84BE84" rx="3" ry="3" style="stroke: #038048; stroke-width: 1.0;"/><text fill="#000000" font-family="sans-serif" font-size="11" lengthAdjust="spacingAndGlyphs" textLength="60" x="440.5" y="741.0439">startLobby()</text><!--MD5=[fb896a30d0841a906d0ef033df60705f]
class it.polimi.ingswPSP35.server.Server--><rect fill="#FEFECE" filter="url(#f6q94yf1rkmhv)" height="89.5078" id="it.polimi.ingswPSP35.server.Server" style="stroke: #A80036; stroke-width: 1.5;" width="133" x="38.5" y="194.7813"/><ellipse cx="83.25" cy="210.7813" fill="#ADD1B2" rx="11" ry="11" style="stroke: #A80036; stroke-width: 1.0;"/><path d="M85.25,207.2813 Q85.4531,206.7813 85.6875,206.5313 Q85.9219,206.2813 86.1875,206.2813 Q86.6563,206.2813 86.9531,206.5625 Q87.25,206.8438 87.25,207.5 L87.25,209.0625 Q87.25,209.7188 86.9688,210 Q86.6875,210.2813 86.25,210.2813 Q85.8594,210.2813 85.6094,210.1094 Q85.3594,209.9375 85.25,209.4844 Q85.2031,209.1719 85.0313,209 Q84.7188,208.6719 84.1563,208.4844 Q83.5938,208.2813 83.0313,208.2813 Q82.3281,208.2813 81.7344,208.5625 Q81.1563,208.8438 80.7031,209.4688 Q80.25,210.0938 80.25,210.9531 L80.25,211.875 Q80.25,212.9063 81.0938,213.5938 Q81.9375,214.2813 83.4375,214.2813 Q84.3281,214.2813 84.9531,214.0781 Q85.3125,213.9688 85.7188,213.6094 Q85.9844,213.4063 86.125,213.3438 Q86.2656,213.2813 86.4375,213.2813 Q86.7656,213.2813 87,213.5469 Q87.25,213.7969 87.25,214.1563 Q87.25,214.5 86.9063,214.9063 Q86.4063,215.5 85.6094,215.8281 Q84.5625,216.2813 83.2813,216.2813 Q81.7813,216.2813 80.5781,215.6875 Q79.6094,215.2188 78.9219,214.2031 Q78.25,213.1875 78.25,211.9844 L78.25,210.8906 Q78.25,209.6406 78.8438,208.5469 Q79.4531,207.4531 80.5,206.875 Q81.5625,206.2813 82.75,206.2813 Q83.4688,206.2813 84.0938,206.5313 Q84.7188,206.7813 85.25,207.2813 Z "/><text fill="#000000" font-family="sans-serif" font-size="12" lengthAdjust="spacingAndGlyphs" textLength="35" x="103.75" y="215.6914">Server</text><line style="stroke: #A80036; stroke-width: 1.5;" x1="39.5" x2="170.5" y1="226.7813" y2="226.7813"/><ellipse cx="49.5" cy="237.7813" fill="none" rx="3" ry="3" style="stroke: #038048; stroke-width: 1.0;"/><text fill="#000000" font-family="sans-serif" font-size="11" lengthAdjust="spacingAndGlyphs" text-decoration="underline" textLength="94" x="58.5" y="242.2002">SOCKET_PORT : int</text><rect fill="none" height="6" style="stroke: #C82930; stroke-width: 1.0;" width="6" x="46.5" y="248.6172"/><text fill="#000000" font-family="sans-serif" font-size="11" lengthAdjust="spacingAndGlyphs" text-decoration="underline" textLength="107" x="58.5" y="256.0361">socket : ServerSocket</text><line style="stroke: #A80036; stroke-width: 1.5;" x1="39.5" x2="170.5" y1="262.4531" y2="262.4531"/><ellipse cx="49.5" cy="273.4531" fill="#84BE84" rx="3" ry="3" style="stroke: #038048; stroke-width: 1.0;"/><text fill="#000000" font-family="sans-serif" font-size="11" lengthAdjust="spacingAndGlyphs" text-decoration="underline" textLength="30" x="58.5" y="277.8721">main()</text><!--MD5=[b5b8262979331c5b65287b0659eaefbf]
class it.polimi.ingswPSP35.server.Server.LobbyFiller--><rect fill="#FEFECE" filter="url(#f6q94yf1rkmhv)" height="89.5078" id="it.polimi.ingswPSP35.server.Server.LobbyFiller" style="stroke: #A80036; stroke-width: 1.5;" width="130" x="38" y="448.7813"/><ellipse cx="53" cy="464.7813" fill="#ADD1B2" rx="11" ry="11" style="stroke: #A80036; stroke-width: 1.0;"/><path d="M55,461.2813 Q55.2031,460.7813 55.4375,460.5313 Q55.6719,460.2813 55.9375,460.2813 Q56.4063,460.2813 56.7031,460.5625 Q57,460.8438 57,461.5 L57,463.0625 Q57,463.7188 56.7188,464 Q56.4375,464.2813 56,464.2813 Q55.6094,464.2813 55.3594,464.1094 Q55.1094,463.9375 55,463.4844 Q54.9531,463.1719 54.7813,463 Q54.4688,462.6719 53.9063,462.4844 Q53.3438,462.2813 52.7813,462.2813 Q52.0781,462.2813 51.4844,462.5625 Q50.9063,462.8438 50.4531,463.4688 Q50,464.0938 50,464.9531 L50,465.875 Q50,466.9063 50.8438,467.5938 Q51.6875,468.2813 53.1875,468.2813 Q54.0781,468.2813 54.7031,468.0781 Q55.0625,467.9688 55.4688,467.6094 Q55.7344,467.4063 55.875,467.3438 Q56.0156,467.2813 56.1875,467.2813 Q56.5156,467.2813 56.75,467.5469 Q57,467.7969 57,468.1563 Q57,468.5 56.6563,468.9063 Q56.1563,469.5 55.3594,469.8281 Q54.3125,470.2813 53.0313,470.2813 Q51.5313,470.2813 50.3281,469.6875 Q49.3594,469.2188 48.6719,468.2031 Q48,467.1875 48,465.9844 L48,464.8906 Q48,463.6406 48.5938,462.5469 Q49.2031,461.4531 50.25,460.875 Q51.3125,460.2813 52.5,460.2813 Q53.2188,460.2813 53.8438,460.5313 Q54.4688,460.7813 55,461.2813 Z "/><text fill="#000000" font-family="sans-serif" font-size="12" lengthAdjust="spacingAndGlyphs" textLength="98" x="67" y="469.6914">Server.LobbyFiller</text><line style="stroke: #A80036; stroke-width: 1.5;" x1="39" x2="167" y1="480.7813" y2="480.7813"/><line style="stroke: #A80036; stroke-width: 1.5;" x1="39" x2="167" y1="488.7813" y2="488.7813"/><ellipse cx="49" cy="499.7813" fill="#84BE84" rx="3" ry="3" style="stroke: #038048; stroke-width: 1.0;"/><text fill="#000000" font-family="sans-serif" font-size="11" lengthAdjust="spacingAndGlyphs" textLength="49" x="58" y="504.2002">getClient()</text><ellipse cx="49" cy="513.6172" fill="#84BE84" rx="3" ry="3" style="stroke: #038048; stroke-width: 1.0;"/><text fill="#000000" font-family="sans-serif" font-size="11" lengthAdjust="spacingAndGlyphs" textLength="24" x="58" y="518.0361">run()</text><polygon fill="#4177AF" points="49,523.4531,45,529.4531,53,529.4531" style="stroke: #1963A0; stroke-width: 1.0;"/><text fill="#000000" font-family="sans-serif" font-size="11" lengthAdjust="spacingAndGlyphs" textLength="60" x="58" y="531.8721">LobbyFiller()</text><!--MD5=[46f83a4a21cba2027dfe7715d8555853]
class it.polimi.ingswPSP35.server.ServerReader--><rect fill="#FEFECE" filter="url(#f6q94yf1rkmhv)" height="117.1797" id="it.polimi.ingswPSP35.server.ServerReader" style="stroke: #A80036; stroke-width: 1.5;" width="269" x="203.5" y="435.2813"/><ellipse cx="295.75" cy="451.2813" fill="#ADD1B2" rx="11" ry="11" style="stroke: #A80036; stroke-width: 1.0;"/><path d="M297.75,447.7813 Q297.9531,447.2813 298.1875,447.0313 Q298.4219,446.7813 298.6875,446.7813 Q299.1563,446.7813 299.4531,447.0625 Q299.75,447.3438 299.75,448 L299.75,449.5625 Q299.75,450.2188 299.4688,450.5 Q299.1875,450.7813 298.75,450.7813 Q298.3594,450.7813 298.1094,450.6094 Q297.8594,450.4375 297.75,449.9844 Q297.7031,449.6719 297.5313,449.5 Q297.2188,449.1719 296.6563,448.9844 Q296.0938,448.7813 295.5313,448.7813 Q294.8281,448.7813 294.2344,449.0625 Q293.6563,449.3438 293.2031,449.9688 Q292.75,450.5938 292.75,451.4531 L292.75,452.375 Q292.75,453.4063 293.5938,454.0938 Q294.4375,454.7813 295.9375,454.7813 Q296.8281,454.7813 297.4531,454.5781 Q297.8125,454.4688 298.2188,454.1094 Q298.4844,453.9063 298.625,453.8438 Q298.7656,453.7813 298.9375,453.7813 Q299.2656,453.7813 299.5,454.0469 Q299.75,454.2969 299.75,454.6563 Q299.75,455 299.4063,455.4063 Q298.9063,456 298.1094,456.3281 Q297.0625,456.7813 295.7813,456.7813 Q294.2813,456.7813 293.0781,456.1875 Q292.1094,455.7188 291.4219,454.7031 Q290.75,453.6875 290.75,452.4844 L290.75,451.3906 Q290.75,450.1406 291.3438,449.0469 Q291.9531,447.9531 293,447.375 Q294.0625,446.7813 295.25,446.7813 Q295.9688,446.7813 296.5938,447.0313 Q297.2188,447.2813 297.75,447.7813 Z "/><text fill="#000000" font-family="sans-serif" font-size="12" lengthAdjust="spacingAndGlyphs" textLength="76" x="316.25" y="456.1914">ServerReader</text><line style="stroke: #A80036; stroke-width: 1.5;" x1="204.5" x2="471.5" y1="467.2813" y2="467.2813"/><rect fill="none" height="6" style="stroke: #C82930; stroke-width: 1.0;" width="6" x="211.5" y="475.2813"/><text fill="#000000" font-family="sans-serif" font-size="11" lengthAdjust="spacingAndGlyphs" text-decoration="underline" textLength="60" x="223.5" y="482.7002">PING : String</text><rect fill="none" height="6" style="stroke: #C82930; stroke-width: 1.0;" width="6" x="211.5" y="489.1172"/><text fill="#000000" font-family="sans-serif" font-size="11" lengthAdjust="spacingAndGlyphs" textLength="243" x="223.5" y="496.5361">inboundMessages : LinkedBlockingQueue&lt;Object&gt;</text><rect fill="none" height="6" style="stroke: #C82930; stroke-width: 1.0;" width="6" x="211.5" y="502.9531"/><text fill="#000000" font-family="sans-serif" font-size="11" lengthAdjust="spacingAndGlyphs" textLength="89" x="223.5" y="510.3721">input : InputStream</text><line style="stroke: #A80036; stroke-width: 1.5;" x1="204.5" x2="471.5" y1="516.7891" y2="516.7891"/><ellipse cx="214.5" cy="527.7891" fill="#84BE84" rx="3" ry="3" style="stroke: #038048; stroke-width: 1.0;"/><text fill="#000000" font-family="sans-serif" font-size="11" lengthAdjust="spacingAndGlyphs" textLength="76" x="223.5" y="532.208">ServerReader()</text><ellipse cx="214.5" cy="541.625" fill="#84BE84" rx="3" ry="3" style="stroke: #038048; stroke-width: 1.0;"/><text fill="#000000" font-family="sans-serif" font-size="11" lengthAdjust="spacingAndGlyphs" textLength="24" x="223.5" y="546.0439">run()</text><!--MD5=[e6f544fe0f5dde0fff6cf3489ecc06ed]
class it.polimi.ingswPSP35.server.ServerWriter--><rect fill="#FEFECE" filter="url(#f6q94yf1rkmhv)" height="117.1797" id="it.polimi.ingswPSP35.server.ServerWriter" style="stroke: #A80036; stroke-width: 1.5;" width="276" x="508" y="435.2813"/><ellipse cx="608.25" cy="451.2813" fill="#ADD1B2" rx="11" ry="11" style="stroke: #A80036; stroke-width: 1.0;"/><path d="M610.25,447.7813 Q610.4531,447.2813 610.6875,447.0313 Q610.9219,446.7813 611.1875,446.7813 Q611.6563,446.7813 611.9531,447.0625 Q612.25,447.3438 612.25,448 L612.25,449.5625 Q612.25,450.2188 611.9688,450.5 Q611.6875,450.7813 611.25,450.7813 Q610.8594,450.7813 610.6094,450.6094 Q610.3594,450.4375 610.25,449.9844 Q610.2031,449.6719 610.0313,449.5 Q609.7188,449.1719 609.1563,448.9844 Q608.5938,448.7813 608.0313,448.7813 Q607.3281,448.7813 606.7344,449.0625 Q606.1563,449.3438 605.7031,449.9688 Q605.25,450.5938 605.25,451.4531 L605.25,452.375 Q605.25,453.4063 606.0938,454.0938 Q606.9375,454.7813 608.4375,454.7813 Q609.3281,454.7813 609.9531,454.5781 Q610.3125,454.4688 610.7188,454.1094 Q610.9844,453.9063 611.125,453.8438 Q611.2656,453.7813 611.4375,453.7813 Q611.7656,453.7813 612,454.0469 Q612.25,454.2969 612.25,454.6563 Q612.25,455 611.9063,455.4063 Q611.4063,456 610.6094,456.3281 Q609.5625,456.7813 608.2813,456.7813 Q606.7813,456.7813 605.5781,456.1875 Q604.6094,455.7188 603.9219,454.7031 Q603.25,453.6875 603.25,452.4844 L603.25,451.3906 Q603.25,450.1406 603.8438,449.0469 Q604.4531,447.9531 605.5,447.375 Q606.5625,446.7813 607.75,446.7813 Q608.4688,446.7813 609.0938,447.0313 Q609.7188,447.2813 610.25,447.7813 Z "/><text fill="#000000" font-family="sans-serif" font-size="12" lengthAdjust="spacingAndGlyphs" textLength="67" x="628.75" y="456.1914">ServerWriter</text><line style="stroke: #A80036; stroke-width: 1.5;" x1="509" x2="783" y1="467.2813" y2="467.2813"/><rect fill="none" height="6" style="stroke: #C82930; stroke-width: 1.0;" width="6" x="516" y="475.2813"/><text fill="#000000" font-family="sans-serif" font-size="11" lengthAdjust="spacingAndGlyphs" textLength="250" x="528" y="482.7002">outboundMessages : LinkedBlockingQueue&lt;Object&gt;</text><rect fill="none" height="6" style="stroke: #C82930; stroke-width: 1.0;" width="6" x="516" y="489.1172"/><text fill="#000000" font-family="sans-serif" font-size="11" lengthAdjust="spacingAndGlyphs" textLength="136" x="528" y="496.5361">output : ObjectOutputStream</text><line style="stroke: #A80036; stroke-width: 1.5;" x1="509" x2="783" y1="502.9531" y2="502.9531"/><ellipse cx="519" cy="513.9531" fill="#84BE84" rx="3" ry="3" style="stroke: #038048; stroke-width: 1.0;"/><text fill="#000000" font-family="sans-serif" font-size="11" lengthAdjust="spacingAndGlyphs" textLength="70" x="528" y="518.3721">ServerWriter()</text><ellipse cx="519" cy="527.7891" fill="#84BE84" rx="3" ry="3" style="stroke: #038048; stroke-width: 1.0;"/><text fill="#000000" font-family="sans-serif" font-size="11" lengthAdjust="spacingAndGlyphs" textLength="24" x="528" y="532.208">run()</text><rect fill="#F24D5C" height="6" style="stroke: #C82930; stroke-width: 1.0;" width="6" x="516" y="538.625"/><text fill="#000000" font-family="sans-serif" font-size="11" lengthAdjust="spacingAndGlyphs" textLength="32" x="528" y="546.0439">flush()</text><!--MD5=[f571c992ff08e12f4969d4e643b5ec37]
class it.polimi.ingswPSP35.server.VirtualView--><rect fill="#FEFECE" filter="url(#f6q94yf1rkmhv)" height="186.3594" id="it.polimi.ingswPSP35.server.VirtualView" style="stroke: #A80036; stroke-width: 1.5;" width="153" x="508.5" y="825.2813"/><ellipse cx="550.95" cy="841.2813" fill="#ADD1B2" rx="11" ry="11" style="stroke: #A80036; stroke-width: 1.0;"/><path d="M552.95,837.7813 Q553.1531,837.2813 553.3875,837.0313 Q553.6219,836.7813 553.8875,836.7813 Q554.3563,836.7813 554.6531,837.0625 Q554.95,837.3438 554.95,838 L554.95,839.5625 Q554.95,840.2188 554.6688,840.5 Q554.3875,840.7813 553.95,840.7813 Q553.5594,840.7813 553.3094,840.6094 Q553.0594,840.4375 552.95,839.9844 Q552.9031,839.6719 552.7313,839.5 Q552.4188,839.1719 551.8563,838.9844 Q551.2938,838.7813 550.7313,838.7813 Q550.0281,838.7813 549.4344,839.0625 Q548.8563,839.3438 548.4031,839.9688 Q547.95,840.5938 547.95,841.4531 L547.95,842.375 Q547.95,843.4063 548.7938,844.0938 Q549.6375,844.7813 551.1375,844.7813 Q552.0281,844.7813 552.6531,844.5781 Q553.0125,844.4688 553.4188,844.1094 Q553.6844,843.9063 553.825,843.8438 Q553.9656,843.7813 554.1375,843.7813 Q554.4656,843.7813 554.7,844.0469 Q554.95,844.2969 554.95,844.6563 Q554.95,845 554.6063,845.4063 Q554.1063,846 553.3094,846.3281 Q552.2625,846.7813 550.9813,846.7813 Q549.4813,846.7813 548.2781,846.1875 Q547.3094,845.7188 546.6219,844.7031 Q545.95,843.6875 545.95,842.4844 L545.95,841.3906 Q545.95,840.1406 546.5438,839.0469 Q547.1531,837.9531 548.2,837.375 Q549.2625,836.7813 550.45,836.7813 Q551.1688,836.7813 551.7938,837.0313 Q552.4188,837.2813 552.95,837.7813 Z "/><text fill="#000000" font-family="sans-serif" font-size="12" lengthAdjust="spacingAndGlyphs" textLength="60" x="571.05" y="846.1914">VirtualView</text><line style="stroke: #A80036; stroke-width: 1.5;" x1="509.5" x2="660.5" y1="857.2813" y2="857.2813"/><line style="stroke: #A80036; stroke-width: 1.5;" x1="509.5" x2="660.5" y1="865.2813" y2="865.2813"/><ellipse cx="519.5" cy="876.2813" fill="#84BE84" rx="3" ry="3" style="stroke: #038048; stroke-width: 1.0;"/><text fill="#000000" font-family="sans-serif" font-size="11" lengthAdjust="spacingAndGlyphs" textLength="65" x="528.5" y="880.7002">VirtualView()</text><ellipse cx="519.5" cy="890.1172" fill="#84BE84" rx="3" ry="3" style="stroke: #038048; stroke-width: 1.0;"/><text fill="#000000" font-family="sans-serif" font-size="11" lengthAdjust="spacingAndGlyphs" textLength="57" x="528.5" y="894.5361">broadcast()</text><ellipse cx="519.5" cy="903.9531" fill="#84BE84" rx="3" ry="3" style="stroke: #038048; stroke-width: 1.0;"/><text fill="#000000" font-family="sans-serif" font-size="11" lengthAdjust="spacingAndGlyphs" textLength="110" x="528.5" y="908.3721">broadcastNotification()</text><ellipse cx="519.5" cy="917.7891" fill="#84BE84" rx="3" ry="3" style="stroke: #038048; stroke-width: 1.0;"/><text fill="#000000" font-family="sans-serif" font-size="11" lengthAdjust="spacingAndGlyphs" textLength="61" x="528.5" y="922.208">disconnect()</text><ellipse cx="519.5" cy="931.625" fill="#84BE84" rx="3" ry="3" style="stroke: #038048; stroke-width: 1.0;"/><text fill="#000000" font-family="sans-serif" font-size="11" lengthAdjust="spacingAndGlyphs" textLength="63" x="528.5" y="936.0439">getAnswer()</text><ellipse cx="519.5" cy="945.4609" fill="#84BE84" rx="3" ry="3" style="stroke: #038048; stroke-width: 1.0;"/><text fill="#000000" font-family="sans-serif" font-size="11" lengthAdjust="spacingAndGlyphs" textLength="70" x="528.5" y="949.8799">getPlayerList()</text><ellipse cx="519.5" cy="959.2969" fill="#84BE84" rx="3" ry="3" style="stroke: #038048; stroke-width: 1.0;"/><text fill="#000000" font-family="sans-serif" font-size="11" lengthAdjust="spacingAndGlyphs" textLength="77" x="528.5" y="963.7158">performAction()</text><ellipse cx="519.5" cy="973.1328" fill="#84BE84" rx="3" ry="3" style="stroke: #038048; stroke-width: 1.0;"/><text fill="#000000" font-family="sans-serif" font-size="11" lengthAdjust="spacingAndGlyphs" textLength="127" x="528.5" y="977.5518">sendNotificationToPlayer()</text><ellipse cx="519.5" cy="986.9688" fill="#84BE84" rx="3" ry="3" style="stroke: #038048; stroke-width: 1.0;"/><text fill="#000000" font-family="sans-serif" font-size="11" lengthAdjust="spacingAndGlyphs" textLength="74" x="528.5" y="991.3877">sendToPlayer()</text><ellipse cx="519.5" cy="1000.8047" fill="#84BE84" rx="3" ry="3" style="stroke: #038048; stroke-width: 1.0;"/><text fill="#000000" font-family="sans-serif" font-size="11" lengthAdjust="spacingAndGlyphs" textLength="41" x="528.5" y="1005.2236">update()</text><!--MD5=[8479184e23c2bec09445fccfd361f5d2]
class java.util.ArrayList--><rect fill="#FEFECE" filter="url(#f6q94yf1rkmhv)" height="48" id="java.util.ArrayList" style="stroke: #A80036; stroke-width: 1.5;" width="79" x="840.5" y="894.2813"/><ellipse cx="855.5" cy="910.2813" fill="#ADD1B2" rx="11" ry="11" style="stroke: #A80036; stroke-width: 1.0;"/><path d="M857.5,906.7813 Q857.7031,906.2813 857.9375,906.0313 Q858.1719,905.7813 858.4375,905.7813 Q858.9063,905.7813 859.2031,906.0625 Q859.5,906.3438 859.5,907 L859.5,908.5625 Q859.5,909.2188 859.2188,909.5 Q858.9375,909.7813 858.5,909.7813 Q858.1094,909.7813 857.8594,909.6094 Q857.6094,909.4375 857.5,908.9844 Q857.4531,908.6719 857.2813,908.5 Q856.9688,908.1719 856.4063,907.9844 Q855.8438,907.7813 855.2813,907.7813 Q854.5781,907.7813 853.9844,908.0625 Q853.4063,908.3438 852.9531,908.9688 Q852.5,909.5938 852.5,910.4531 L852.5,911.375 Q852.5,912.4063 853.3438,913.0938 Q854.1875,913.7813 855.6875,913.7813 Q856.5781,913.7813 857.2031,913.5781 Q857.5625,913.4688 857.9688,913.1094 Q858.2344,912.9063 858.375,912.8438 Q858.5156,912.7813 858.6875,912.7813 Q859.0156,912.7813 859.25,913.0469 Q859.5,913.2969 859.5,913.6563 Q859.5,914 859.1563,914.4063 Q858.6563,915 857.8594,915.3281 Q856.8125,915.7813 855.5313,915.7813 Q854.0313,915.7813 852.8281,915.1875 Q851.8594,914.7188 851.1719,913.7031 Q850.5,912.6875 850.5,911.4844 L850.5,910.3906 Q850.5,909.1406 851.0938,908.0469 Q851.7031,906.9531 852.75,906.375 Q853.8125,905.7813 855,905.7813 Q855.7188,905.7813 856.3438,906.0313 Q856.9688,906.2813 857.5,906.7813 Z "/><text fill="#000000" font-family="sans-serif" font-size="12" lengthAdjust="spacingAndGlyphs" textLength="47" x="869.5" y="915.1914">ArrayList</text><line style="stroke: #A80036; stroke-width: 1.5;" x1="841.5" x2="918.5" y1="926.2813" y2="926.2813"/><line style="stroke: #A80036; stroke-width: 1.5;" x1="841.5" x2="918.5" y1="934.2813" y2="934.2813"/><!--MD5=[8dac795f9edbf65a524ac462449c98fb]
class java.lang.Runnable--><rect fill="#FEFECE" filter="url(#f6q94yf1rkmhv)" height="48" id="java.lang.Runnable" style="stroke: #A80036; stroke-width: 1.5;" width="86" x="840" y="215.7813"/><ellipse cx="855" cy="231.7813" fill="#ADD1B2" rx="11" ry="11" style="stroke: #A80036; stroke-width: 1.0;"/><path d="M857,228.2813 Q857.2031,227.7813 857.4375,227.5313 Q857.6719,227.2813 857.9375,227.2813 Q858.4063,227.2813 858.7031,227.5625 Q859,227.8438 859,228.5 L859,230.0625 Q859,230.7188 858.7188,231 Q858.4375,231.2813 858,231.2813 Q857.6094,231.2813 857.3594,231.1094 Q857.1094,230.9375 857,230.4844 Q856.9531,230.1719 856.7813,230 Q856.4688,229.6719 855.9063,229.4844 Q855.3438,229.2813 854.7813,229.2813 Q854.0781,229.2813 853.4844,229.5625 Q852.9063,229.8438 852.4531,230.4688 Q852,231.0938 852,231.9531 L852,232.875 Q852,233.9063 852.8438,234.5938 Q853.6875,235.2813 855.1875,235.2813 Q856.0781,235.2813 856.7031,235.0781 Q857.0625,234.9688 857.4688,234.6094 Q857.7344,234.4063 857.875,234.3438 Q858.0156,234.2813 858.1875,234.2813 Q858.5156,234.2813 858.75,234.5469 Q859,234.7969 859,235.1563 Q859,235.5 858.6563,235.9063 Q858.1563,236.5 857.3594,236.8281 Q856.3125,237.2813 855.0313,237.2813 Q853.5313,237.2813 852.3281,236.6875 Q851.3594,236.2188 850.6719,235.2031 Q850,234.1875 850,232.9844 L850,231.8906 Q850,230.6406 850.5938,229.5469 Q851.2031,228.4531 852.25,227.875 Q853.3125,227.2813 854.5,227.2813 Q855.2188,227.2813 855.8438,227.5313 Q856.4688,227.7813 857,228.2813 Z "/><text fill="#000000" font-family="sans-serif" font-size="12" lengthAdjust="spacingAndGlyphs" textLength="54" x="869" y="236.6914">Runnable</text><line style="stroke: #A80036; stroke-width: 1.5;" x1="841" x2="925" y1="247.7813" y2="247.7813"/><line style="stroke: #A80036; stroke-width: 1.5;" x1="841" x2="925" y1="255.7813" y2="255.7813"/><!--MD5=[909053b659b0784789ed9548a9840358]
reverse link java.util.ArrayList to it.polimi.ingswPSP35.server.ClientList--><path d="M880,962.6473 C880,962.6473 880,1120.2813 880,1120.2813 C880,1120.2813 736.577,1120.2813 649.739,1120.2813 " fill="none" id="java.util.ArrayList&lt;-it.polimi.ingswPSP35.server.ClientList" style="stroke: #A80036; stroke-width: 1.0;"/><polygon fill="none" points="873,962.6473,880,942.6473,887,962.6473,873,962.6473" style="stroke: #A80036; stroke-width: 1.0;"/><!--MD5=[c952340e198171eabf45a1d3a38527af]
link it.polimi.ingswPSP35.server.ClientHandler to it.polimi.ingswPSP35.server.ServerReader--><path d="M343.5,374.5902 C343.5,395.8443 343.5,416.8053 343.5,435.0803 " fill="none" id="it.polimi.ingswPSP35.server.ClientHandler-it.polimi.ingswPSP35.server.ServerReader" style="stroke: #A80036; stroke-width: 1.0;"/><!--MD5=[3ecab582ca0c44cc02070a1a3e9e1c42]
link it.polimi.ingswPSP35.server.ClientHandler to it.polimi.ingswPSP35.server.ServerWriter--><path d="M531.5,374.5902 C531.5,395.8443 531.5,416.8053 531.5,435.0803 " fill="none" id="it.polimi.ingswPSP35.server.ClientHandler-it.polimi.ingswPSP35.server.ServerWriter" style="stroke: #A80036; stroke-width: 1.0;"/><!--MD5=[b6cc1ac3185f422b87467739d81c030d]
reverse link it.polimi.ingswPSP35.server.Lobby to it.polimi.ingswPSP35.server.ClientList--><path d="M464.5,760.4243 C464.5,760.4243 464.5,1120.2813 464.5,1120.2813 C464.5,1120.2813 491.643,1120.2813 520.165,1120.2813 " fill="none" id="it.polimi.ingswPSP35.server.Lobby&lt;-it.polimi.ingswPSP35.server.ClientList" style="stroke: #A80036; stroke-width: 1.0;"/><polygon fill="#FFFFFF" points="464.5,747.4243,460.5,753.4243,464.5,759.4243,468.5,753.4243,464.5,747.4243" style="stroke: #A80036; stroke-width: 1.0;"/><text fill="#000000" font-family="sans-serif" font-size="13" lengthAdjust="spacingAndGlyphs" textLength="4" x="468" y="923.7764">.</text><!--MD5=[3274142ba4564effa258c566ecf0bf7a]
reverse link it.polimi.ingswPSP35.server.Lobby to it.polimi.ingswPSP35.server.VirtualView--><path d="M526.588,689.2813 C526.588,689.2813 587.5,689.2813 587.5,689.2813 C587.5,689.2813 587.5,761.7383 587.5,825.1383 " fill="none" id="it.polimi.ingswPSP35.server.Lobby&lt;-it.polimi.ingswPSP35.server.VirtualView" style="stroke: #A80036; stroke-width: 1.0;"/><polygon fill="#FFFFFF" points="513.588,689.2813,519.588,693.2813,525.588,689.2813,519.588,685.2813,513.588,689.2813" style="stroke: #A80036; stroke-width: 1.0;"/><text fill="#000000" font-family="sans-serif" font-size="13" lengthAdjust="spacingAndGlyphs" textLength="4" x="547" y="791.7764">.</text><!--MD5=[e4810ee140f00835f41ae9231bf1335e]
reverse link it.polimi.ingswPSP35.server.Server to it.polimi.ingswPSP35.server.Server.LobbyFiller--><path d="M81.6667,299.8982 C81.6667,299.8982 81.6667,448.6573 81.6667,448.6573 " fill="none" id="it.polimi.ingswPSP35.server.Server&lt;-it.polimi.ingswPSP35.server.Server.LobbyFiller" style="stroke: #A80036; stroke-width: 1.0;"/><ellipse cx="81.6667" cy="292.8982" fill="#FFFFFF" rx="8" ry="8" style="stroke: #A80036; stroke-width: 1.0;"/><line style="stroke: #A80036; stroke-width: 1.0;" x1="81.6667" x2="81.6667" y1="300.8982" y2="284.8982"/><line style="stroke: #A80036; stroke-width: 1.0;" x1="73.6667" x2="89.6667" y1="292.8982" y2="292.8982"/><!--MD5=[8329ff41f6db9a82c8d58f91d35578cd]
reverse link java.lang.Runnable to it.polimi.ingswPSP35.server.Server.LobbyFiller--><path d="M860.25,284.0783 C860.25,284.0783 860.25,395.2813 860.25,395.2813 C860.25,395.2813 124.833,395.2813 124.833,395.2813 C124.833,395.2813 124.833,422.6733 124.833,448.5672 " fill="none" id="java.lang.Runnable&lt;-it.polimi.ingswPSP35.server.Server.LobbyFiller" style="stroke: #A80036; stroke-width: 1.0; stroke-dasharray: 7.0,7.0;"/><polygon fill="none" points="853.25,284.0783,860.25,264.0783,867.25,284.0783,853.25,284.0783" style="stroke: #A80036; stroke-width: 1.0;"/><!--MD5=[1e4ccb3fd088a43ef449fc95e3f52e63]
reverse link it.polimi.ingswPSP35.server.Server.LobbyFiller to it.polimi.ingswPSP35.server.Lobby--><path d="M103,552.1243 C103,552.1243 103,689.2813 103,689.2813 C103,689.2813 321.848,689.2813 420.159,689.2813 " fill="none" id="it.polimi.ingswPSP35.server.Server.LobbyFiller&lt;-it.polimi.ingswPSP35.server.Lobby" style="stroke: #A80036; stroke-width: 1.0;"/><polygon fill="#FFFFFF" points="103,539.1243,99,545.1243,103,551.1243,107,545.1243,103,539.1243" style="stroke: #A80036; stroke-width: 1.0;"/><text fill="#000000" font-family="sans-serif" font-size="13" lengthAdjust="spacingAndGlyphs" textLength="4" x="225" y="596.7764">.</text><!--MD5=[f0a8acc29499a2338feb57446d3e9984]
reverse link java.lang.Runnable to it.polimi.ingswPSP35.server.ServerReader--><path d="M880,283.8162 C880,283.8162 880,415.2813 880,415.2813 C880,415.2813 408,415.2813 408,415.2813 C408,415.2813 408,423.7333 408,435.0902 " fill="none" id="java.lang.Runnable&lt;-it.polimi.ingswPSP35.server.ServerReader" style="stroke: #A80036; stroke-width: 1.0; stroke-dasharray: 7.0,7.0;"/><polygon fill="none" points="873,283.8162,880,263.8162,887,283.8162,873,283.8162" style="stroke: #A80036; stroke-width: 1.0;"/><!--MD5=[3b65d2971b5c08214ae581cfb8387eeb]
reverse link java.lang.Runnable to it.polimi.ingswPSP35.server.ServerWriter--><path d="M899.75,284.1843 C899.75,284.1843 899.75,494.2813 899.75,494.2813 C899.75,494.2813 843.529,494.2813 784.013,494.2813 " fill="none" id="java.lang.Runnable&lt;-it.polimi.ingswPSP35.server.ServerWriter" style="stroke: #A80036; stroke-width: 1.0; stroke-dasharray: 7.0,7.0;"/><polygon fill="none" points="892.75,284.1843,899.75,264.1843,906.75,284.1833,892.75,284.1843" style="stroke: #A80036; stroke-width: 1.0;"/><!--MD5=[58a0e7803d51dc9d075c04924ebe2e4e]
reverse link it.polimi.ingswPSP35.server.VirtualView to it.polimi.ingswPSP35.server.ClientList--><path d="M585,1024.2993 C585,1024.2993 585,1088.9932 585,1088.9932 " fill="none" id="it.polimi.ingswPSP35.server.VirtualView&lt;-it.polimi.ingswPSP35.server.ClientList" style="stroke: #A80036; stroke-width: 1.0;"/><polygon fill="#FFFFFF" points="585,1011.2993,581,1017.2993,585,1023.2993,589,1017.2993,585,1011.2993" style="stroke: #A80036; stroke-width: 1.0;"/><text fill="#000000" font-family="sans-serif" font-size="13" lengthAdjust="spacingAndGlyphs" textLength="4" x="586" y="1055.7764">.</text><!--MD5=[cfb88b5b373dcb7e03ecb752146088d1]
@startuml

title __SERVER's Class Diagram__\n

  namespace it.polimi.ingswPSP35.server {
    class it.polimi.ingswPSP35.server.ClientHandler {
        - clientSocket : Socket
        - gson : Gson
        - inboundMessages : LinkedBlockingQueue<Object>
        - outboundMessages : LinkedBlockingQueue<Object>
        - reader : Thread
        - username : String
        - writer : Thread
        + ClientHandler()
        + createPlayer()
        + deserialize()
        + disconnect()
        + getClientInput()
        + getNumberOfPlayers()
        + getUsername()
        + sendNotificationToClient()
        + sendObjectToClient()
    }
  }
  

  namespace it.polimi.ingswPSP35.server {
    class it.polimi.ingswPSP35.server.ClientList {
        + getClientFromPlayer()
    }
  }
  

  namespace it.polimi.ingswPSP35.server {
    class it.polimi.ingswPSP35.server.Lobby {
        ~ lobbySize : int
        + addClient()
        + initialize()
        + isFull()
        + startLobby()
    }
  }
  

  namespace it.polimi.ingswPSP35.server {
    class it.polimi.ingswPSP35.server.Server {
        {static} + SOCKET_PORT : int
        {static} - socket : ServerSocket
        {static} + main()
    }
  }
  

  namespace it.polimi.ingswPSP35.server {
    class it.polimi.ingswPSP35.server.Server.LobbyFiller {
        + getClient()
        + run()
        ~ LobbyFiller()
    }
  }
  

  namespace it.polimi.ingswPSP35.server {
    class it.polimi.ingswPSP35.server.ServerReader {
        {static} - PING : String
        - inboundMessages : LinkedBlockingQueue<Object>
        - input : InputStream
        + ServerReader()
        + run()
    }
  }
  

  namespace it.polimi.ingswPSP35.server {
    class it.polimi.ingswPSP35.server.ServerWriter {
        - outboundMessages : LinkedBlockingQueue<Object>
        - output : ObjectOutputStream
        + ServerWriter()
        + run()
        - flush()
    }
  }
  

  namespace it.polimi.ingswPSP35.server {
    class it.polimi.ingswPSP35.server.VirtualView {
        + VirtualView()
        + broadcast()
        + broadcastNotification()
        + disconnect()
        + getAnswer()
        + getPlayerList()
        + performAction()
        + sendNotificationToPlayer()
        + sendToPlayer()
        + update()
    }
  }
  
  skinparam linetype ortho
  it.polimi.ingswPSP35.server.ClientList -up-|> java.util.ArrayList
  it.polimi.ingswPSP35.server.ServerReader -up- it.polimi.ingswPSP35.server.ClientHandler
  it.polimi.ingswPSP35.server.ServerWriter -up- it.polimi.ingswPSP35.server.ClientHandler
  it.polimi.ingswPSP35.server.Lobby o- - it.polimi.ingswPSP35.server.ClientList
  it.polimi.ingswPSP35.server.Lobby o- - it.polimi.ingswPSP35.server.VirtualView
  it.polimi.ingswPSP35.server.Server +-down- it.polimi.ingswPSP35.server.Server.LobbyFiller
  it.polimi.ingswPSP35.server.Server.LobbyFiller .up.|> java.lang.Runnable
  it.polimi.ingswPSP35.server.Server.LobbyFiller o- - it.polimi.ingswPSP35.server.Lobby
  it.polimi.ingswPSP35.server.ServerReader .up.|> java.lang.Runnable
  it.polimi.ingswPSP35.server.ServerWriter .up.|> java.lang.Runnable
  it.polimi.ingswPSP35.server.VirtualView o- - it.polimi.ingswPSP35.server.ClientList


@enduml

PlantUML version 1.2020.09(Sun May 10 12:51:06 CEST 2020)
(GPL source distribution)
Java Runtime: OpenJDK Runtime Environment
JVM: OpenJDK 64-Bit Server VM
Java Version: 11.0.7+10-b765.53
Operating System: Windows 10
Default Encoding: Cp1252
Language: it
Country: IT
--></g></svg>