<?xml version="1.0" encoding="UTF-8" standalone="no"?><svg xmlns="http://www.w3.org/2000/svg" xmlns:xlink="http://www.w3.org/1999/xlink" contentScriptType="application/ecmascript" contentStyleType="text/css" height="514px" preserveAspectRatio="none" style="width:509px;height:514px;" version="1.1" viewBox="0 0 509 514" width="509.2px" zoomAndPan="magnify"><defs><filter height="300%" id="f1g0wkh344kp71" width="300%" x="-1" y="-1"><feGaussianBlur result="blurOut" stdDeviation="0.8"/><feColorMatrix in="blurOut" result="blurOut2" type="matrix" values="0 0 0 0 0 0 0 0 0 0 0 0 0 0 0 0 0 0 .4 0"/><feOffset dx="1.6" dy="1.6" in="blurOut2" result="blurOut3"/><feBlend in="SourceGraphic" in2="blurOut3" mode="normal"/></filter></defs><g><text fill="#000000" font-family="sans-serif" font-size="7.2" lengthAdjust="spacingAndGlyphs" text-decoration="underline" textLength="82.8" x="215.6" y="7.4742">SERVER's Class Diagram</text><text fill="#000000" font-family="sans-serif" font-size="7.2" lengthAdjust="spacingAndGlyphs" textLength="0" x="258" y="16.5305"/><!--MD5=[b96a9a473a257e29118e4c189bb9a890]
cluster it.polimi.ingswPSP35.server--><polygon fill="#FFFFFF" filter="url(#f1g0wkh344kp71)" points="63.2,80.9125,143.2,80.9125,146,90.3563,500.4,90.3563,500.4,509.3125,63.2,509.3125,63.2,80.9125" style="stroke: #000000; stroke-width: 0.6000000000000001;"/><line style="stroke: #000000; stroke-width: 0.6000000000000001;" x1="63.2" x2="146" y1="90.3563" y2="90.3563"/><text fill="#000000" font-family="sans-serif" font-size="5.6" font-weight="bold" lengthAdjust="spacingAndGlyphs" textLength="77.6" x="64.8" y="87.5258">it.polimi.ingswPSP35.server</text><!--MD5=[7db3c59d38ae5b37b484eb2df9368145]
cluster java.util--><polygon fill="#FFFFFF" filter="url(#f1g0wkh344kp71)" points="8.8,385.7125,33.2,385.7125,36,395.1563,53.6,395.1563,53.6,425.7125,8.8,425.7125,8.8,385.7125" style="stroke: #000000; stroke-width: 0.6000000000000001;"/><line style="stroke: #000000; stroke-width: 0.6000000000000001;" x1="8.8" x2="36" y1="395.1563" y2="395.1563"/><text fill="#000000" font-family="sans-serif" font-size="5.6" font-weight="bold" lengthAdjust="spacingAndGlyphs" textLength="22" x="10.4" y="392.3258">java.util</text><!--MD5=[aa8f7b917213fcc1c2766e2d59b49067]
cluster java.lang--><polygon fill="#FFFFFF" filter="url(#f1g0wkh344kp71)" points="223.2,27.7125,250.8,27.7125,253.6,37.1563,270.4,37.1563,270.4,67.7125,223.2,67.7125,223.2,27.7125" style="stroke: #000000; stroke-width: 0.6000000000000001;"/><line style="stroke: #000000; stroke-width: 0.6000000000000001;" x1="223.2" x2="253.6" y1="37.1563" y2="37.1563"/><text fill="#000000" font-family="sans-serif" font-size="5.6" font-weight="bold" lengthAdjust="spacingAndGlyphs" textLength="25.2" x="224.8" y="34.3258">java.lang</text><!--MD5=[aa094b2d04dde6ad08d83e76ad7ae037]
class it.polimi.ingswPSP35.server.ClientHandler--><rect fill="#FEFECE" filter="url(#f1g0wkh344kp71)" height="107.75" id="it.polimi.ingswPSP35.server.ClientHandler" style="stroke: #A80036; stroke-width: 0.6000000000000001;" width="110.4" x="383.6" y="95.3125"/><ellipse cx="421.9" cy="101.7125" fill="#ADD1B2" rx="4.4" ry="4.4" style="stroke: #A80036; stroke-width: 0.4;"/><path d="M422.7,100.3125 Q422.7813,100.1125 422.875,100.0125 Q422.9688,99.9125 423.075,99.9125 Q423.2625,99.9125 423.3813,100.025 Q423.5,100.1375 423.5,100.4 L423.5,101.025 Q423.5,101.2875 423.3875,101.4 Q423.275,101.5125 423.1,101.5125 Q422.9438,101.5125 422.8438,101.4438 Q422.7438,101.375 422.7,101.1938 Q422.6813,101.0688 422.6125,101 Q422.4875,100.8688 422.2625,100.7938 Q422.0375,100.7125 421.8125,100.7125 Q421.5313,100.7125 421.2938,100.825 Q421.0625,100.9375 420.8813,101.1875 Q420.7,101.4375 420.7,101.7813 L420.7,102.15 Q420.7,102.5625 421.0375,102.8375 Q421.375,103.1125 421.975,103.1125 Q422.3313,103.1125 422.5813,103.0313 Q422.725,102.9875 422.8875,102.8438 Q422.9938,102.7625 423.05,102.7375 Q423.1063,102.7125 423.175,102.7125 Q423.3063,102.7125 423.4,102.8188 Q423.5,102.9188 423.5,103.0625 Q423.5,103.2 423.3625,103.3625 Q423.1625,103.6 422.8438,103.7313 Q422.425,103.9125 421.9125,103.9125 Q421.3125,103.9125 420.8313,103.675 Q420.4438,103.4875 420.1688,103.0813 Q419.9,102.675 419.9,102.1938 L419.9,101.7563 Q419.9,101.2563 420.1375,100.8188 Q420.3813,100.3813 420.8,100.15 Q421.225,99.9125 421.7,99.9125 Q421.9875,99.9125 422.2375,100.0125 Q422.4875,100.1125 422.7,100.3125 Z "/><text fill="#000000" font-family="sans-serif" font-size="4.8" lengthAdjust="spacingAndGlyphs" textLength="30.4" x="430.1" y="103.6766">ClientHandler</text><line style="stroke: #A80036; stroke-width: 0.6000000000000001;" x1="384" x2="493.6" y1="108.1125" y2="108.1125"/><rect fill="none" height="2.4" style="stroke: #C82930; stroke-width: 0.4;" width="2.4" x="386.8" y="111.3125"/><text fill="#000000" font-family="sans-serif" font-size="4.4" lengthAdjust="spacingAndGlyphs" textLength="40" x="391.6" y="114.2801">clientSocket : Socket</text><rect fill="none" height="2.4" style="stroke: #C82930; stroke-width: 0.4;" width="2.4" x="386.8" y="116.8469"/><text fill="#000000" font-family="sans-serif" font-size="4.4" lengthAdjust="spacingAndGlyphs" textLength="23.6" x="391.6" y="119.8145">gson : Gson</text><rect fill="none" height="2.4" style="stroke: #C82930; stroke-width: 0.4;" width="2.4" x="386.8" y="122.3813"/><text fill="#000000" font-family="sans-serif" font-size="4.4" lengthAdjust="spacingAndGlyphs" textLength="97.2" x="391.6" y="125.3488">inboundMessages : LinkedBlockingQueue&lt;Object&gt;</text><rect fill="none" height="2.4" style="stroke: #C82930; stroke-width: 0.4;" width="2.4" x="386.8" y="127.9156"/><text fill="#000000" font-family="sans-serif" font-size="4.4" lengthAdjust="spacingAndGlyphs" textLength="100" x="391.6" y="130.8832">outboundMessages : LinkedBlockingQueue&lt;Object&gt;</text><rect fill="none" height="2.4" style="stroke: #C82930; stroke-width: 0.4;" width="2.4" x="386.8" y="133.45"/><text fill="#000000" font-family="sans-serif" font-size="4.4" lengthAdjust="spacingAndGlyphs" textLength="30" x="391.6" y="136.4176">reader : Thread</text><rect fill="none" height="2.4" style="stroke: #C82930; stroke-width: 0.4;" width="2.4" x="386.8" y="138.9844"/><text fill="#000000" font-family="sans-serif" font-size="4.4" lengthAdjust="spacingAndGlyphs" textLength="34" x="391.6" y="141.952">username : String</text><rect fill="none" height="2.4" style="stroke: #C82930; stroke-width: 0.4;" width="2.4" x="386.8" y="144.5188"/><text fill="#000000" font-family="sans-serif" font-size="4.4" lengthAdjust="spacingAndGlyphs" textLength="28.8" x="391.6" y="147.4863">writer : Thread</text><line style="stroke: #A80036; stroke-width: 0.6000000000000001;" x1="384" x2="493.6" y1="150.0531" y2="150.0531"/><ellipse cx="388" cy="154.4531" fill="#84BE84" rx="1.2" ry="1.2" style="stroke: #038048; stroke-width: 0.4;"/><text fill="#000000" font-family="sans-serif" font-size="4.4" lengthAdjust="spacingAndGlyphs" textLength="28.4" x="391.6" y="156.2207">ClientHandler()</text><ellipse cx="388" cy="159.9875" fill="#84BE84" rx="1.2" ry="1.2" style="stroke: #038048; stroke-width: 0.4;"/><text fill="#000000" font-family="sans-serif" font-size="4.4" lengthAdjust="spacingAndGlyphs" textLength="27.6" x="391.6" y="161.7551">createPlayer()</text><ellipse cx="388" cy="165.5219" fill="#84BE84" rx="1.2" ry="1.2" style="stroke: #038048; stroke-width: 0.4;"/><text fill="#000000" font-family="sans-serif" font-size="4.4" lengthAdjust="spacingAndGlyphs" textLength="24" x="391.6" y="167.2895">deserialize()</text><ellipse cx="388" cy="171.0563" fill="#84BE84" rx="1.2" ry="1.2" style="stroke: #038048; stroke-width: 0.4;"/><text fill="#000000" font-family="sans-serif" font-size="4.4" lengthAdjust="spacingAndGlyphs" textLength="24.4" x="391.6" y="172.8238">disconnect()</text><ellipse cx="388" cy="176.5906" fill="#84BE84" rx="1.2" ry="1.2" style="stroke: #038048; stroke-width: 0.4;"/><text fill="#000000" font-family="sans-serif" font-size="4.4" lengthAdjust="spacingAndGlyphs" textLength="28.8" x="391.6" y="178.3582">getClientInput()</text><ellipse cx="388" cy="182.125" fill="#84BE84" rx="1.2" ry="1.2" style="stroke: #038048; stroke-width: 0.4;"/><text fill="#000000" font-family="sans-serif" font-size="4.4" lengthAdjust="spacingAndGlyphs" textLength="43.2" x="391.6" y="183.8926">getNumberOfPlayers()</text><ellipse cx="388" cy="187.6594" fill="#84BE84" rx="1.2" ry="1.2" style="stroke: #038048; stroke-width: 0.4;"/><text fill="#000000" font-family="sans-serif" font-size="4.4" lengthAdjust="spacingAndGlyphs" textLength="28.8" x="391.6" y="189.427">getUsername()</text><ellipse cx="388" cy="193.1938" fill="#84BE84" rx="1.2" ry="1.2" style="stroke: #038048; stroke-width: 0.4;"/><text fill="#000000" font-family="sans-serif" font-size="4.4" lengthAdjust="spacingAndGlyphs" textLength="49.2" x="391.6" y="194.9613">sendNotificationToClient()</text><ellipse cx="388" cy="198.7281" fill="#84BE84" rx="1.2" ry="1.2" style="stroke: #038048; stroke-width: 0.4;"/><text fill="#000000" font-family="sans-serif" font-size="4.4" lengthAdjust="spacingAndGlyphs" textLength="40.4" x="391.6" y="200.4957">sendObjectToClient()</text><!--MD5=[32ae0ad0dfde1336bb6d9aea67e11a46]
class it.polimi.ingswPSP35.server.ClientList--><rect fill="#FEFECE" filter="url(#f1g0wkh344kp71)" height="24.7344" id="it.polimi.ingswPSP35.server.ClientList" style="stroke: #A80036; stroke-width: 0.6000000000000001;" width="51.6" x="119.8" y="478.1125"/><ellipse cx="133.9" cy="484.5125" fill="#ADD1B2" rx="4.4" ry="4.4" style="stroke: #A80036; stroke-width: 0.4;"/><path d="M134.7,483.1125 Q134.7813,482.9125 134.875,482.8125 Q134.9688,482.7125 135.075,482.7125 Q135.2625,482.7125 135.3813,482.825 Q135.5,482.9375 135.5,483.2 L135.5,483.825 Q135.5,484.0875 135.3875,484.2 Q135.275,484.3125 135.1,484.3125 Q134.9438,484.3125 134.8438,484.2438 Q134.7438,484.175 134.7,483.9938 Q134.6813,483.8688 134.6125,483.8 Q134.4875,483.6688 134.2625,483.5938 Q134.0375,483.5125 133.8125,483.5125 Q133.5313,483.5125 133.2938,483.625 Q133.0625,483.7375 132.8813,483.9875 Q132.7,484.2375 132.7,484.5813 L132.7,484.95 Q132.7,485.3625 133.0375,485.6375 Q133.375,485.9125 133.975,485.9125 Q134.3313,485.9125 134.5813,485.8313 Q134.725,485.7875 134.8875,485.6438 Q134.9938,485.5625 135.05,485.5375 Q135.1063,485.5125 135.175,485.5125 Q135.3063,485.5125 135.4,485.6188 Q135.5,485.7188 135.5,485.8625 Q135.5,486 135.3625,486.1625 Q135.1625,486.4 134.8438,486.5313 Q134.425,486.7125 133.9125,486.7125 Q133.3125,486.7125 132.8313,486.475 Q132.4438,486.2875 132.1688,485.8813 Q131.9,485.475 131.9,484.9938 L131.9,484.5563 Q131.9,484.0563 132.1375,483.6188 Q132.3813,483.1813 132.8,482.95 Q133.225,482.7125 133.7,482.7125 Q133.9875,482.7125 134.2375,482.8125 Q134.4875,482.9125 134.7,483.1125 Z "/><text fill="#000000" font-family="sans-serif" font-size="4.8" lengthAdjust="spacingAndGlyphs" textLength="20.8" x="141.3" y="486.4766">ClientList</text><line style="stroke: #A80036; stroke-width: 0.6000000000000001;" x1="120.2" x2="171" y1="490.9125" y2="490.9125"/><line style="stroke: #A80036; stroke-width: 0.6000000000000001;" x1="120.2" x2="171" y1="494.1125" y2="494.1125"/><ellipse cx="124.2" cy="498.5125" fill="#84BE84" rx="1.2" ry="1.2" style="stroke: #038048; stroke-width: 0.4;"/><text fill="#000000" font-family="sans-serif" font-size="4.4" lengthAdjust="spacingAndGlyphs" textLength="41.2" x="127.8" y="500.2801">getClientFromPlayer()</text><!--MD5=[19a597428f6963c33ad374d84a8c30ec]
class it.polimi.ingswPSP35.server.Lobby--><rect fill="#FEFECE" filter="url(#f1g0wkh344kp71)" height="46.8719" id="it.polimi.ingswPSP35.server.Lobby" style="stroke: #A80036; stroke-width: 0.6000000000000001;" width="37.2" x="174.2" y="294.5125"/><ellipse cx="185.24" cy="300.9125" fill="#ADD1B2" rx="4.4" ry="4.4" style="stroke: #A80036; stroke-width: 0.4;"/><path d="M186.04,299.5125 Q186.1213,299.3125 186.215,299.2125 Q186.3088,299.1125 186.415,299.1125 Q186.6025,299.1125 186.7213,299.225 Q186.84,299.3375 186.84,299.6 L186.84,300.225 Q186.84,300.4875 186.7275,300.6 Q186.615,300.7125 186.44,300.7125 Q186.2838,300.7125 186.1838,300.6438 Q186.0838,300.575 186.04,300.3938 Q186.0213,300.2688 185.9525,300.2 Q185.8275,300.0688 185.6025,299.9938 Q185.3775,299.9125 185.1525,299.9125 Q184.8713,299.9125 184.6338,300.025 Q184.4025,300.1375 184.2213,300.3875 Q184.04,300.6375 184.04,300.9813 L184.04,301.35 Q184.04,301.7625 184.3775,302.0375 Q184.715,302.3125 185.315,302.3125 Q185.6713,302.3125 185.9213,302.2313 Q186.065,302.1875 186.2275,302.0438 Q186.3338,301.9625 186.39,301.9375 Q186.4463,301.9125 186.515,301.9125 Q186.6463,301.9125 186.74,302.0188 Q186.84,302.1188 186.84,302.2625 Q186.84,302.4 186.7025,302.5625 Q186.5025,302.8 186.1838,302.9313 Q185.765,303.1125 185.2525,303.1125 Q184.6525,303.1125 184.1713,302.875 Q183.7838,302.6875 183.5088,302.2813 Q183.24,301.875 183.24,301.3938 L183.24,300.9563 Q183.24,300.4563 183.4775,300.0188 Q183.7213,299.5813 184.14,299.35 Q184.565,299.1125 185.04,299.1125 Q185.3275,299.1125 185.5775,299.2125 Q185.8275,299.3125 186.04,299.5125 Z "/><text fill="#000000" font-family="sans-serif" font-size="4.8" lengthAdjust="spacingAndGlyphs" textLength="13.2" x="191.96" y="302.8766">Lobby</text><line style="stroke: #A80036; stroke-width: 0.6000000000000001;" x1="174.6" x2="211" y1="307.3125" y2="307.3125"/><polygon fill="none" points="178.6,310.1125,177,312.5125,180.2,312.5125" style="stroke: #1963A0; stroke-width: 0.4;"/><text fill="#000000" font-family="sans-serif" font-size="4.4" lengthAdjust="spacingAndGlyphs" textLength="26.8" x="182.2" y="313.4801">lobbySize : int</text><line style="stroke: #A80036; stroke-width: 0.6000000000000001;" x1="174.6" x2="211" y1="316.0469" y2="316.0469"/><ellipse cx="178.6" cy="320.4469" fill="#84BE84" rx="1.2" ry="1.2" style="stroke: #038048; stroke-width: 0.4;"/><text fill="#000000" font-family="sans-serif" font-size="4.4" lengthAdjust="spacingAndGlyphs" textLength="20.8" x="182.2" y="322.2145">addClient()</text><ellipse cx="178.6" cy="325.9813" fill="#84BE84" rx="1.2" ry="1.2" style="stroke: #038048; stroke-width: 0.4;"/><text fill="#000000" font-family="sans-serif" font-size="4.4" lengthAdjust="spacingAndGlyphs" textLength="18" x="182.2" y="327.7488">initialize()</text><ellipse cx="178.6" cy="331.5156" fill="#84BE84" rx="1.2" ry="1.2" style="stroke: #038048; stroke-width: 0.4;"/><text fill="#000000" font-family="sans-serif" font-size="4.4" lengthAdjust="spacingAndGlyphs" textLength="12.8" x="182.2" y="333.2832">isFull()</text><ellipse cx="178.6" cy="337.05" fill="#84BE84" rx="1.2" ry="1.2" style="stroke: #038048; stroke-width: 0.4;"/><text fill="#000000" font-family="sans-serif" font-size="4.4" lengthAdjust="spacingAndGlyphs" textLength="24" x="182.2" y="338.8176">startLobby()</text><!--MD5=[fb896a30d0841a906d0ef033df60705f]
class it.polimi.ingswPSP35.server.Server--><rect fill="#FEFECE" filter="url(#f1g0wkh344kp71)" height="35.8031" id="it.polimi.ingswPSP35.server.Server" style="stroke: #A80036; stroke-width: 0.6000000000000001;" width="53.2" x="316.2" y="131.1125"/><ellipse cx="334.1" cy="137.5125" fill="#ADD1B2" rx="4.4" ry="4.4" style="stroke: #A80036; stroke-width: 0.4;"/><path d="M334.9,136.1125 Q334.9813,135.9125 335.075,135.8125 Q335.1688,135.7125 335.275,135.7125 Q335.4625,135.7125 335.5813,135.825 Q335.7,135.9375 335.7,136.2 L335.7,136.825 Q335.7,137.0875 335.5875,137.2 Q335.475,137.3125 335.3,137.3125 Q335.1438,137.3125 335.0438,137.2438 Q334.9438,137.175 334.9,136.9938 Q334.8813,136.8688 334.8125,136.8 Q334.6875,136.6688 334.4625,136.5938 Q334.2375,136.5125 334.0125,136.5125 Q333.7313,136.5125 333.4938,136.625 Q333.2625,136.7375 333.0813,136.9875 Q332.9,137.2375 332.9,137.5813 L332.9,137.95 Q332.9,138.3625 333.2375,138.6375 Q333.575,138.9125 334.175,138.9125 Q334.5313,138.9125 334.7813,138.8313 Q334.925,138.7875 335.0875,138.6438 Q335.1938,138.5625 335.25,138.5375 Q335.3063,138.5125 335.375,138.5125 Q335.5063,138.5125 335.6,138.6188 Q335.7,138.7188 335.7,138.8625 Q335.7,139 335.5625,139.1625 Q335.3625,139.4 335.0438,139.5313 Q334.625,139.7125 334.1125,139.7125 Q333.5125,139.7125 333.0313,139.475 Q332.6438,139.2875 332.3688,138.8813 Q332.1,138.475 332.1,137.9938 L332.1,137.5563 Q332.1,137.0563 332.3375,136.6188 Q332.5813,136.1813 333,135.95 Q333.425,135.7125 333.9,135.7125 Q334.1875,135.7125 334.4375,135.8125 Q334.6875,135.9125 334.9,136.1125 Z "/><text fill="#000000" font-family="sans-serif" font-size="4.8" lengthAdjust="spacingAndGlyphs" textLength="14" x="342.3" y="139.4766">Server</text><line style="stroke: #A80036; stroke-width: 0.6000000000000001;" x1="316.6" x2="369" y1="143.9125" y2="143.9125"/><ellipse cx="320.6" cy="148.3125" fill="none" rx="1.2" ry="1.2" style="stroke: #038048; stroke-width: 0.4;"/><text fill="#000000" font-family="sans-serif" font-size="4.4" lengthAdjust="spacingAndGlyphs" text-decoration="underline" textLength="37.6" x="324.2" y="150.0801">SOCKET_PORT : int</text><rect fill="none" height="2.4" style="stroke: #C82930; stroke-width: 0.4;" width="2.4" x="319.4" y="152.6469"/><text fill="#000000" font-family="sans-serif" font-size="4.4" lengthAdjust="spacingAndGlyphs" text-decoration="underline" textLength="42.8" x="324.2" y="155.6145">socket : ServerSocket</text><line style="stroke: #A80036; stroke-width: 0.6000000000000001;" x1="316.6" x2="369" y1="158.1813" y2="158.1813"/><ellipse cx="320.6" cy="162.5813" fill="#84BE84" rx="1.2" ry="1.2" style="stroke: #038048; stroke-width: 0.4;"/><text fill="#000000" font-family="sans-serif" font-size="4.4" lengthAdjust="spacingAndGlyphs" text-decoration="underline" textLength="12" x="324.2" y="164.3488">main()</text><!--MD5=[b5b8262979331c5b65287b0659eaefbf]
class it.polimi.ingswPSP35.server.Server.LobbyFiller--><rect fill="#FEFECE" filter="url(#f1g0wkh344kp71)" height="35.8031" id="it.polimi.ingswPSP35.server.Server.LobbyFiller" style="stroke: #A80036; stroke-width: 0.6000000000000001;" width="52" x="316.8" y="227.3125"/><ellipse cx="322.8" cy="233.7125" fill="#ADD1B2" rx="4.4" ry="4.4" style="stroke: #A80036; stroke-width: 0.4;"/><path d="M323.6,232.3125 Q323.6813,232.1125 323.775,232.0125 Q323.8688,231.9125 323.975,231.9125 Q324.1625,231.9125 324.2813,232.025 Q324.4,232.1375 324.4,232.4 L324.4,233.025 Q324.4,233.2875 324.2875,233.4 Q324.175,233.5125 324,233.5125 Q323.8438,233.5125 323.7438,233.4438 Q323.6438,233.375 323.6,233.1938 Q323.5813,233.0688 323.5125,233 Q323.3875,232.8688 323.1625,232.7938 Q322.9375,232.7125 322.7125,232.7125 Q322.4313,232.7125 322.1938,232.825 Q321.9625,232.9375 321.7813,233.1875 Q321.6,233.4375 321.6,233.7813 L321.6,234.15 Q321.6,234.5625 321.9375,234.8375 Q322.275,235.1125 322.875,235.1125 Q323.2313,235.1125 323.4813,235.0313 Q323.625,234.9875 323.7875,234.8438 Q323.8938,234.7625 323.95,234.7375 Q324.0063,234.7125 324.075,234.7125 Q324.2063,234.7125 324.3,234.8188 Q324.4,234.9188 324.4,235.0625 Q324.4,235.2 324.2625,235.3625 Q324.0625,235.6 323.7438,235.7313 Q323.325,235.9125 322.8125,235.9125 Q322.2125,235.9125 321.7313,235.675 Q321.3438,235.4875 321.0688,235.0813 Q320.8,234.675 320.8,234.1938 L320.8,233.7563 Q320.8,233.2563 321.0375,232.8188 Q321.2813,232.3813 321.7,232.15 Q322.125,231.9125 322.6,231.9125 Q322.8875,231.9125 323.1375,232.0125 Q323.3875,232.1125 323.6,232.3125 Z "/><text fill="#000000" font-family="sans-serif" font-size="4.8" lengthAdjust="spacingAndGlyphs" textLength="39.2" x="328.4" y="235.6766">Server.LobbyFiller</text><line style="stroke: #A80036; stroke-width: 0.6000000000000001;" x1="317.2" x2="368.4" y1="240.1125" y2="240.1125"/><line style="stroke: #A80036; stroke-width: 0.6000000000000001;" x1="317.2" x2="368.4" y1="243.3125" y2="243.3125"/><ellipse cx="321.2" cy="247.7125" fill="#84BE84" rx="1.2" ry="1.2" style="stroke: #038048; stroke-width: 0.4;"/><text fill="#000000" font-family="sans-serif" font-size="4.4" lengthAdjust="spacingAndGlyphs" textLength="19.6" x="324.8" y="249.4801">getClient()</text><ellipse cx="321.2" cy="253.2469" fill="#84BE84" rx="1.2" ry="1.2" style="stroke: #038048; stroke-width: 0.4;"/><text fill="#000000" font-family="sans-serif" font-size="4.4" lengthAdjust="spacingAndGlyphs" textLength="9.6" x="324.8" y="255.0145">run()</text><polygon fill="#4177AF" points="321.2,257.1813,319.6,259.5813,322.8,259.5813" style="stroke: #1963A0; stroke-width: 0.4;"/><text fill="#000000" font-family="sans-serif" font-size="4.4" lengthAdjust="spacingAndGlyphs" textLength="24" x="324.8" y="260.5488">LobbyFiller()</text><!--MD5=[46f83a4a21cba2027dfe7715d8555853]
class it.polimi.ingswPSP35.server.ServerReader--><rect fill="#FEFECE" filter="url(#f1g0wkh344kp71)" height="46.8719" id="it.polimi.ingswPSP35.server.ServerReader" style="stroke: #A80036; stroke-width: 0.6000000000000001;" width="107.6" x="69.8" y="125.7125"/><ellipse cx="106.7" cy="132.1125" fill="#ADD1B2" rx="4.4" ry="4.4" style="stroke: #A80036; stroke-width: 0.4;"/><path d="M107.5,130.7125 Q107.5813,130.5125 107.675,130.4125 Q107.7688,130.3125 107.875,130.3125 Q108.0625,130.3125 108.1813,130.425 Q108.3,130.5375 108.3,130.8 L108.3,131.425 Q108.3,131.6875 108.1875,131.8 Q108.075,131.9125 107.9,131.9125 Q107.7438,131.9125 107.6438,131.8438 Q107.5438,131.775 107.5,131.5938 Q107.4813,131.4688 107.4125,131.4 Q107.2875,131.2688 107.0625,131.1938 Q106.8375,131.1125 106.6125,131.1125 Q106.3313,131.1125 106.0938,131.225 Q105.8625,131.3375 105.6813,131.5875 Q105.5,131.8375 105.5,132.1813 L105.5,132.55 Q105.5,132.9625 105.8375,133.2375 Q106.175,133.5125 106.775,133.5125 Q107.1313,133.5125 107.3813,133.4313 Q107.525,133.3875 107.6875,133.2438 Q107.7938,133.1625 107.85,133.1375 Q107.9063,133.1125 107.975,133.1125 Q108.1063,133.1125 108.2,133.2188 Q108.3,133.3188 108.3,133.4625 Q108.3,133.6 108.1625,133.7625 Q107.9625,134 107.6438,134.1313 Q107.225,134.3125 106.7125,134.3125 Q106.1125,134.3125 105.6313,134.075 Q105.2438,133.8875 104.9688,133.4813 Q104.7,133.075 104.7,132.5938 L104.7,132.1563 Q104.7,131.6563 104.9375,131.2188 Q105.1813,130.7813 105.6,130.55 Q106.025,130.3125 106.5,130.3125 Q106.7875,130.3125 107.0375,130.4125 Q107.2875,130.5125 107.5,130.7125 Z "/><text fill="#000000" font-family="sans-serif" font-size="4.8" lengthAdjust="spacingAndGlyphs" textLength="30.4" x="114.9" y="134.0766">ServerReader</text><line style="stroke: #A80036; stroke-width: 0.6000000000000001;" x1="70.2" x2="177" y1="138.5125" y2="138.5125"/><rect fill="none" height="2.4" style="stroke: #C82930; stroke-width: 0.4;" width="2.4" x="73" y="141.7125"/><text fill="#000000" font-family="sans-serif" font-size="4.4" lengthAdjust="spacingAndGlyphs" text-decoration="underline" textLength="24" x="77.8" y="144.6801">PING : String</text><rect fill="none" height="2.4" style="stroke: #C82930; stroke-width: 0.4;" width="2.4" x="73" y="147.2469"/><text fill="#000000" font-family="sans-serif" font-size="4.4" lengthAdjust="spacingAndGlyphs" textLength="97.2" x="77.8" y="150.2145">inboundMessages : LinkedBlockingQueue&lt;Object&gt;</text><rect fill="none" height="2.4" style="stroke: #C82930; stroke-width: 0.4;" width="2.4" x="73" y="152.7813"/><text fill="#000000" font-family="sans-serif" font-size="4.4" lengthAdjust="spacingAndGlyphs" textLength="35.6" x="77.8" y="155.7488">input : InputStream</text><line style="stroke: #A80036; stroke-width: 0.6000000000000001;" x1="70.2" x2="177" y1="158.3156" y2="158.3156"/><ellipse cx="74.2" cy="162.7156" fill="#84BE84" rx="1.2" ry="1.2" style="stroke: #038048; stroke-width: 0.4;"/><text fill="#000000" font-family="sans-serif" font-size="4.4" lengthAdjust="spacingAndGlyphs" textLength="30.4" x="77.8" y="164.4832">ServerReader()</text><ellipse cx="74.2" cy="168.25" fill="#84BE84" rx="1.2" ry="1.2" style="stroke: #038048; stroke-width: 0.4;"/><text fill="#000000" font-family="sans-serif" font-size="4.4" lengthAdjust="spacingAndGlyphs" textLength="9.6" x="77.8" y="170.0176">run()</text><!--MD5=[e6f544fe0f5dde0fff6cf3489ecc06ed]
class it.polimi.ingswPSP35.server.ServerWriter--><rect fill="#FEFECE" filter="url(#f1g0wkh344kp71)" height="46.8719" id="it.polimi.ingswPSP35.server.ServerWriter" style="stroke: #A80036; stroke-width: 0.6000000000000001;" width="110.4" x="191.6" y="125.7125"/><ellipse cx="231.7" cy="132.1125" fill="#ADD1B2" rx="4.4" ry="4.4" style="stroke: #A80036; stroke-width: 0.4;"/><path d="M232.5,130.7125 Q232.5813,130.5125 232.675,130.4125 Q232.7688,130.3125 232.875,130.3125 Q233.0625,130.3125 233.1813,130.425 Q233.3,130.5375 233.3,130.8 L233.3,131.425 Q233.3,131.6875 233.1875,131.8 Q233.075,131.9125 232.9,131.9125 Q232.7438,131.9125 232.6438,131.8438 Q232.5438,131.775 232.5,131.5938 Q232.4813,131.4688 232.4125,131.4 Q232.2875,131.2688 232.0625,131.1938 Q231.8375,131.1125 231.6125,131.1125 Q231.3313,131.1125 231.0938,131.225 Q230.8625,131.3375 230.6813,131.5875 Q230.5,131.8375 230.5,132.1813 L230.5,132.55 Q230.5,132.9625 230.8375,133.2375 Q231.175,133.5125 231.775,133.5125 Q232.1313,133.5125 232.3813,133.4313 Q232.525,133.3875 232.6875,133.2438 Q232.7938,133.1625 232.85,133.1375 Q232.9063,133.1125 232.975,133.1125 Q233.1063,133.1125 233.2,133.2188 Q233.3,133.3188 233.3,133.4625 Q233.3,133.6 233.1625,133.7625 Q232.9625,134 232.6438,134.1313 Q232.225,134.3125 231.7125,134.3125 Q231.1125,134.3125 230.6313,134.075 Q230.2438,133.8875 229.9688,133.4813 Q229.7,133.075 229.7,132.5938 L229.7,132.1563 Q229.7,131.6563 229.9375,131.2188 Q230.1813,130.7813 230.6,130.55 Q231.025,130.3125 231.5,130.3125 Q231.7875,130.3125 232.0375,130.4125 Q232.2875,130.5125 232.5,130.7125 Z "/><text fill="#000000" font-family="sans-serif" font-size="4.8" lengthAdjust="spacingAndGlyphs" textLength="26.8" x="239.9" y="134.0766">ServerWriter</text><line style="stroke: #A80036; stroke-width: 0.6000000000000001;" x1="192" x2="301.6" y1="138.5125" y2="138.5125"/><rect fill="none" height="2.4" style="stroke: #C82930; stroke-width: 0.4;" width="2.4" x="194.8" y="141.7125"/><text fill="#000000" font-family="sans-serif" font-size="4.4" lengthAdjust="spacingAndGlyphs" textLength="100" x="199.6" y="144.6801">outboundMessages : LinkedBlockingQueue&lt;Object&gt;</text><rect fill="none" height="2.4" style="stroke: #C82930; stroke-width: 0.4;" width="2.4" x="194.8" y="147.2469"/><text fill="#000000" font-family="sans-serif" font-size="4.4" lengthAdjust="spacingAndGlyphs" textLength="54.4" x="199.6" y="150.2145">output : ObjectOutputStream</text><line style="stroke: #A80036; stroke-width: 0.6000000000000001;" x1="192" x2="301.6" y1="152.7813" y2="152.7813"/><ellipse cx="196" cy="157.1813" fill="#84BE84" rx="1.2" ry="1.2" style="stroke: #038048; stroke-width: 0.4;"/><text fill="#000000" font-family="sans-serif" font-size="4.4" lengthAdjust="spacingAndGlyphs" textLength="28" x="199.6" y="158.9488">ServerWriter()</text><ellipse cx="196" cy="162.7156" fill="#84BE84" rx="1.2" ry="1.2" style="stroke: #038048; stroke-width: 0.4;"/><text fill="#000000" font-family="sans-serif" font-size="4.4" lengthAdjust="spacingAndGlyphs" textLength="9.6" x="199.6" y="164.4832">run()</text><rect fill="#F24D5C" height="2.4" style="stroke: #C82930; stroke-width: 0.4;" width="2.4" x="194.8" y="167.05"/><text fill="#000000" font-family="sans-serif" font-size="4.4" lengthAdjust="spacingAndGlyphs" textLength="12.8" x="199.6" y="170.0176">flush()</text><!--MD5=[f571c992ff08e12f4969d4e643b5ec37]
class it.polimi.ingswPSP35.server.VirtualView--><rect fill="#FEFECE" filter="url(#f1g0wkh344kp71)" height="74.5438" id="it.polimi.ingswPSP35.server.VirtualView" style="stroke: #A80036; stroke-width: 0.6000000000000001;" width="61.2" x="162.2" y="372.5125"/><ellipse cx="179.18" cy="378.9125" fill="#ADD1B2" rx="4.4" ry="4.4" style="stroke: #A80036; stroke-width: 0.4;"/><path d="M179.98,377.5125 Q180.0613,377.3125 180.155,377.2125 Q180.2488,377.1125 180.355,377.1125 Q180.5425,377.1125 180.6613,377.225 Q180.78,377.3375 180.78,377.6 L180.78,378.225 Q180.78,378.4875 180.6675,378.6 Q180.555,378.7125 180.38,378.7125 Q180.2238,378.7125 180.1238,378.6438 Q180.0238,378.575 179.98,378.3938 Q179.9613,378.2688 179.8925,378.2 Q179.7675,378.0688 179.5425,377.9938 Q179.3175,377.9125 179.0925,377.9125 Q178.8113,377.9125 178.5738,378.025 Q178.3425,378.1375 178.1613,378.3875 Q177.98,378.6375 177.98,378.9813 L177.98,379.35 Q177.98,379.7625 178.3175,380.0375 Q178.655,380.3125 179.255,380.3125 Q179.6113,380.3125 179.8613,380.2313 Q180.005,380.1875 180.1675,380.0438 Q180.2738,379.9625 180.33,379.9375 Q180.3863,379.9125 180.455,379.9125 Q180.5863,379.9125 180.68,380.0188 Q180.78,380.1188 180.78,380.2625 Q180.78,380.4 180.6425,380.5625 Q180.4425,380.8 180.1238,380.9313 Q179.705,381.1125 179.1925,381.1125 Q178.5925,381.1125 178.1113,380.875 Q177.7238,380.6875 177.4488,380.2813 Q177.18,379.875 177.18,379.3938 L177.18,378.9563 Q177.18,378.4563 177.4175,378.0188 Q177.6613,377.5813 178.08,377.35 Q178.505,377.1125 178.98,377.1125 Q179.2675,377.1125 179.5175,377.2125 Q179.7675,377.3125 179.98,377.5125 Z "/><text fill="#000000" font-family="sans-serif" font-size="4.8" lengthAdjust="spacingAndGlyphs" textLength="24" x="187.22" y="380.8766">VirtualView</text><line style="stroke: #A80036; stroke-width: 0.6000000000000001;" x1="162.6" x2="223" y1="385.3125" y2="385.3125"/><line style="stroke: #A80036; stroke-width: 0.6000000000000001;" x1="162.6" x2="223" y1="388.5125" y2="388.5125"/><ellipse cx="166.6" cy="392.9125" fill="#84BE84" rx="1.2" ry="1.2" style="stroke: #038048; stroke-width: 0.4;"/><text fill="#000000" font-family="sans-serif" font-size="4.4" lengthAdjust="spacingAndGlyphs" textLength="26" x="170.2" y="394.6801">VirtualView()</text><ellipse cx="166.6" cy="398.4469" fill="#84BE84" rx="1.2" ry="1.2" style="stroke: #038048; stroke-width: 0.4;"/><text fill="#000000" font-family="sans-serif" font-size="4.4" lengthAdjust="spacingAndGlyphs" textLength="22.8" x="170.2" y="400.2145">broadcast()</text><ellipse cx="166.6" cy="403.9813" fill="#84BE84" rx="1.2" ry="1.2" style="stroke: #038048; stroke-width: 0.4;"/><text fill="#000000" font-family="sans-serif" font-size="4.4" lengthAdjust="spacingAndGlyphs" textLength="44" x="170.2" y="405.7488">broadcastNotification()</text><ellipse cx="166.6" cy="409.5156" fill="#84BE84" rx="1.2" ry="1.2" style="stroke: #038048; stroke-width: 0.4;"/><text fill="#000000" font-family="sans-serif" font-size="4.4" lengthAdjust="spacingAndGlyphs" textLength="24.4" x="170.2" y="411.2832">disconnect()</text><ellipse cx="166.6" cy="415.05" fill="#84BE84" rx="1.2" ry="1.2" style="stroke: #038048; stroke-width: 0.4;"/><text fill="#000000" font-family="sans-serif" font-size="4.4" lengthAdjust="spacingAndGlyphs" textLength="25.2" x="170.2" y="416.8176">getAnswer()</text><ellipse cx="166.6" cy="420.5844" fill="#84BE84" rx="1.2" ry="1.2" style="stroke: #038048; stroke-width: 0.4;"/><text fill="#000000" font-family="sans-serif" font-size="4.4" lengthAdjust="spacingAndGlyphs" textLength="28" x="170.2" y="422.352">getPlayerList()</text><ellipse cx="166.6" cy="426.1188" fill="#84BE84" rx="1.2" ry="1.2" style="stroke: #038048; stroke-width: 0.4;"/><text fill="#000000" font-family="sans-serif" font-size="4.4" lengthAdjust="spacingAndGlyphs" textLength="30.8" x="170.2" y="427.8863">performAction()</text><ellipse cx="166.6" cy="431.6531" fill="#84BE84" rx="1.2" ry="1.2" style="stroke: #038048; stroke-width: 0.4;"/><text fill="#000000" font-family="sans-serif" font-size="4.4" lengthAdjust="spacingAndGlyphs" textLength="50.8" x="170.2" y="433.4207">sendNotificationToPlayer()</text><ellipse cx="166.6" cy="437.1875" fill="#84BE84" rx="1.2" ry="1.2" style="stroke: #038048; stroke-width: 0.4;"/><text fill="#000000" font-family="sans-serif" font-size="4.4" lengthAdjust="spacingAndGlyphs" textLength="29.6" x="170.2" y="438.9551">sendToPlayer()</text><ellipse cx="166.6" cy="442.7219" fill="#84BE84" rx="1.2" ry="1.2" style="stroke: #038048; stroke-width: 0.4;"/><text fill="#000000" font-family="sans-serif" font-size="4.4" lengthAdjust="spacingAndGlyphs" textLength="16.4" x="170.2" y="444.4895">update()</text><!--MD5=[8479184e23c2bec09445fccfd361f5d2]
class java.util.ArrayList--><rect fill="#FEFECE" filter="url(#f1g0wkh344kp71)" height="19.2" id="java.util.ArrayList" style="stroke: #A80036; stroke-width: 0.6000000000000001;" width="31.6" x="15.4" y="400.1125"/><ellipse cx="21.4" cy="406.5125" fill="#ADD1B2" rx="4.4" ry="4.4" style="stroke: #A80036; stroke-width: 0.4;"/><path d="M22.2,405.1125 Q22.2813,404.9125 22.375,404.8125 Q22.4688,404.7125 22.575,404.7125 Q22.7625,404.7125 22.8813,404.825 Q23,404.9375 23,405.2 L23,405.825 Q23,406.0875 22.8875,406.2 Q22.775,406.3125 22.6,406.3125 Q22.4438,406.3125 22.3438,406.2438 Q22.2438,406.175 22.2,405.9938 Q22.1813,405.8688 22.1125,405.8 Q21.9875,405.6688 21.7625,405.5938 Q21.5375,405.5125 21.3125,405.5125 Q21.0313,405.5125 20.7938,405.625 Q20.5625,405.7375 20.3813,405.9875 Q20.2,406.2375 20.2,406.5813 L20.2,406.95 Q20.2,407.3625 20.5375,407.6375 Q20.875,407.9125 21.475,407.9125 Q21.8313,407.9125 22.0813,407.8313 Q22.225,407.7875 22.3875,407.6438 Q22.4938,407.5625 22.55,407.5375 Q22.6063,407.5125 22.675,407.5125 Q22.8063,407.5125 22.9,407.6188 Q23,407.7188 23,407.8625 Q23,408 22.8625,408.1625 Q22.6625,408.4 22.3438,408.5313 Q21.925,408.7125 21.4125,408.7125 Q20.8125,408.7125 20.3313,408.475 Q19.9438,408.2875 19.6688,407.8813 Q19.4,407.475 19.4,406.9938 L19.4,406.5563 Q19.4,406.0563 19.6375,405.6188 Q19.8813,405.1813 20.3,404.95 Q20.725,404.7125 21.2,404.7125 Q21.4875,404.7125 21.7375,404.8125 Q21.9875,404.9125 22.2,405.1125 Z "/><text fill="#000000" font-family="sans-serif" font-size="4.8" lengthAdjust="spacingAndGlyphs" textLength="18.8" x="27" y="408.4766">ArrayList</text><line style="stroke: #A80036; stroke-width: 0.6000000000000001;" x1="15.8" x2="46.6" y1="412.9125" y2="412.9125"/><line style="stroke: #A80036; stroke-width: 0.6000000000000001;" x1="15.8" x2="46.6" y1="416.1125" y2="416.1125"/><!--MD5=[8dac795f9edbf65a524ac462449c98fb]
class java.lang.Runnable--><rect fill="#FEFECE" filter="url(#f1g0wkh344kp71)" height="19.2" id="java.lang.Runnable" style="stroke: #A80036; stroke-width: 0.6000000000000001;" width="34.4" x="229.6" y="42.1125"/><ellipse cx="235.6" cy="48.5125" fill="#ADD1B2" rx="4.4" ry="4.4" style="stroke: #A80036; stroke-width: 0.4;"/><path d="M236.4,47.1125 Q236.4813,46.9125 236.575,46.8125 Q236.6688,46.7125 236.775,46.7125 Q236.9625,46.7125 237.0813,46.825 Q237.2,46.9375 237.2,47.2 L237.2,47.825 Q237.2,48.0875 237.0875,48.2 Q236.975,48.3125 236.8,48.3125 Q236.6438,48.3125 236.5438,48.2438 Q236.4438,48.175 236.4,47.9938 Q236.3813,47.8688 236.3125,47.8 Q236.1875,47.6688 235.9625,47.5938 Q235.7375,47.5125 235.5125,47.5125 Q235.2313,47.5125 234.9938,47.625 Q234.7625,47.7375 234.5813,47.9875 Q234.4,48.2375 234.4,48.5813 L234.4,48.95 Q234.4,49.3625 234.7375,49.6375 Q235.075,49.9125 235.675,49.9125 Q236.0313,49.9125 236.2813,49.8313 Q236.425,49.7875 236.5875,49.6438 Q236.6938,49.5625 236.75,49.5375 Q236.8063,49.5125 236.875,49.5125 Q237.0063,49.5125 237.1,49.6188 Q237.2,49.7188 237.2,49.8625 Q237.2,50 237.0625,50.1625 Q236.8625,50.4 236.5438,50.5313 Q236.125,50.7125 235.6125,50.7125 Q235.0125,50.7125 234.5313,50.475 Q234.1438,50.2875 233.8688,49.8813 Q233.6,49.475 233.6,48.9938 L233.6,48.5563 Q233.6,48.0563 233.8375,47.6188 Q234.0813,47.1813 234.5,46.95 Q234.925,46.7125 235.4,46.7125 Q235.6875,46.7125 235.9375,46.8125 Q236.1875,46.9125 236.4,47.1125 Z "/><text fill="#000000" font-family="sans-serif" font-size="4.8" lengthAdjust="spacingAndGlyphs" textLength="21.6" x="241.2" y="50.4766">Runnable</text><line style="stroke: #A80036; stroke-width: 0.6000000000000001;" x1="230" x2="263.6" y1="54.9125" y2="54.9125"/><line style="stroke: #A80036; stroke-width: 0.6000000000000001;" x1="230" x2="263.6" y1="58.1125" y2="58.1125"/><!--MD5=[909053b659b0784789ed9548a9840358]
reverse link java.util.ArrayList to it.polimi.ingswPSP35.server.ClientList--><path d="M31.2,427.4589 C31.2,427.4589 31.2,490.5125 31.2,490.5125 C31.2,490.5125 86.0428,490.5125 119.7836,490.5125 " fill="none" id="java.util.ArrayList&lt;-it.polimi.ingswPSP35.server.ClientList" style="stroke: #A80036; stroke-width: 0.4;"/><polygon fill="none" points="28.4,427.4589,31.2,419.4589,34,427.4589,28.4,427.4589" style="stroke: #A80036; stroke-width: 0.4;"/><!--MD5=[b6cc1ac3185f422b87467739d81c030d]
reverse link it.polimi.ingswPSP35.server.Lobby to it.polimi.ingswPSP35.server.ClientList--><path d="M168.8992,318.1125 C168.8992,318.1125 141,318.1125 141,318.1125 C141,318.1125 141,438.3029 141,477.9751 " fill="none" id="it.polimi.ingswPSP35.server.Lobby&lt;-it.polimi.ingswPSP35.server.ClientList" style="stroke: #A80036; stroke-width: 0.4;"/><polygon fill="#FFFFFF" points="174.0992,318.1125,171.6992,316.5125,169.2992,318.1125,171.6992,319.7125,174.0992,318.1125" style="stroke: #A80036; stroke-width: 0.4;"/><text fill="#000000" font-family="sans-serif" font-size="5.2" lengthAdjust="spacingAndGlyphs" textLength="1.6" x="146" y="411.9105">.</text><!--MD5=[3274142ba4564effa258c566ecf0bf7a]
reverse link it.polimi.ingswPSP35.server.Lobby to it.polimi.ingswPSP35.server.VirtualView--><path d="M192.8,346.5149 C192.8,346.5149 192.8,372.4389 192.8,372.4389 " fill="none" id="it.polimi.ingswPSP35.server.Lobby&lt;-it.polimi.ingswPSP35.server.VirtualView" style="stroke: #A80036; stroke-width: 0.4;"/><polygon fill="#FFFFFF" points="192.8,341.3149,191.2,343.7149,192.8,346.1149,194.4,343.7149,192.8,341.3149" style="stroke: #A80036; stroke-width: 0.4;"/><text fill="#000000" font-family="sans-serif" font-size="5.2" lengthAdjust="spacingAndGlyphs" textLength="1.6" x="193.2" y="359.1105">.</text><!--MD5=[e4810ee140f00835f41ae9231bf1335e]
reverse link it.polimi.ingswPSP35.server.Server to it.polimi.ingswPSP35.server.Server.LobbyFiller--><path d="M342.8,173.2069 C342.8,173.2069 342.8,227.2993 342.8,227.2993 " fill="none" id="it.polimi.ingswPSP35.server.Server&lt;-it.polimi.ingswPSP35.server.Server.LobbyFiller" style="stroke: #A80036; stroke-width: 0.4;"/><ellipse cx="342.8" cy="170.4069" fill="#FFFFFF" rx="3.2" ry="3.2" style="stroke: #A80036; stroke-width: 0.4;"/><line style="stroke: #A80036; stroke-width: 0.4;" x1="342.8" x2="342.8" y1="173.6069" y2="167.2069"/><line style="stroke: #A80036; stroke-width: 0.4;" x1="339.6" x2="346" y1="170.4069" y2="170.4069"/><!--MD5=[8329ff41f6db9a82c8d58f91d35578cd]
reverse link java.lang.Runnable to it.polimi.ingswPSP35.server.Server.LobbyFiller--><path d="M272.154,51.7125 C272.154,51.7125 309.1,51.7125 309.1,51.7125 C309.1,51.7125 309.1,239.3125 309.1,239.3125 C309.1,239.3125 312.3092,239.3125 316.7472,239.3125 " fill="none" id="java.lang.Runnable&lt;-it.polimi.ingswPSP35.server.Server.LobbyFiller" style="stroke: #A80036; stroke-width: 0.4; stroke-dasharray: 7.0,7.0;"/><polygon fill="none" points="272.154,54.5125,264.154,51.7125,272.154,48.9125,272.154,54.5125" style="stroke: #A80036; stroke-width: 0.4;"/><!--MD5=[1e4ccb3fd088a43ef449fc95e3f52e63]
reverse link it.polimi.ingswPSP35.server.Server.LobbyFiller to it.polimi.ingswPSP35.server.Lobby--><path d="M311.5188,251.3125 C311.5188,251.3125 201.5,251.3125 201.5,251.3125 C201.5,251.3125 201.5,275.2573 201.5,294.4317 " fill="none" id="it.polimi.ingswPSP35.server.Server.LobbyFiller&lt;-it.polimi.ingswPSP35.server.Lobby" style="stroke: #A80036; stroke-width: 0.4;"/><polygon fill="#FFFFFF" points="316.7188,251.3125,314.3188,249.7125,311.9188,251.3125,314.3188,252.9125,316.7188,251.3125" style="stroke: #A80036; stroke-width: 0.4;"/><text fill="#000000" font-family="sans-serif" font-size="5.2" lengthAdjust="spacingAndGlyphs" textLength="1.6" x="293.2" y="281.1105">.</text><!--MD5=[f0a8acc29499a2338feb57446d3e9984]
reverse link java.lang.Runnable to it.polimi.ingswPSP35.server.ServerReader--><path d="M221.54,51.7125 C221.54,51.7125 123.6,51.7125 123.6,51.7125 C123.6,51.7125 123.6,96.8365 123.6,125.6589 " fill="none" id="java.lang.Runnable&lt;-it.polimi.ingswPSP35.server.ServerReader" style="stroke: #A80036; stroke-width: 0.4; stroke-dasharray: 7.0,7.0;"/><polygon fill="none" points="221.54,48.9125,229.54,51.7125,221.54,54.5125,221.54,48.9125" style="stroke: #A80036; stroke-width: 0.4;"/><!--MD5=[3b65d2971b5c08214ae581cfb8387eeb]
reverse link java.lang.Runnable to it.polimi.ingswPSP35.server.ServerWriter--><path d="M246.8,69.4085 C246.8,69.4085 246.8,125.6957 246.8,125.6957 " fill="none" id="java.lang.Runnable&lt;-it.polimi.ingswPSP35.server.ServerWriter" style="stroke: #A80036; stroke-width: 0.4; stroke-dasharray: 7.0,7.0;"/><polygon fill="none" points="244,69.4085,246.8,61.4085,249.6,69.4085,244,69.4085" style="stroke: #A80036; stroke-width: 0.4;"/><!--MD5=[58a0e7803d51dc9d075c04924ebe2e4e]
reverse link it.polimi.ingswPSP35.server.VirtualView to it.polimi.ingswPSP35.server.ClientList--><path d="M166.8,452.1197 C166.8,452.1197 166.8,477.9973 166.8,477.9973 " fill="none" id="it.polimi.ingswPSP35.server.VirtualView&lt;-it.polimi.ingswPSP35.server.ClientList" style="stroke: #A80036; stroke-width: 0.4;"/><polygon fill="#FFFFFF" points="166.8,446.9197,165.2,449.3197,166.8,451.7197,168.4,449.3197,166.8,446.9197" style="stroke: #A80036; stroke-width: 0.4;"/><text fill="#000000" font-family="sans-serif" font-size="5.2" lengthAdjust="spacingAndGlyphs" textLength="1.6" x="177.6" y="464.7105">.</text><!--MD5=[3a10ad1d5e0a6551c6417825031d6939]
@startuml

title __SERVER's Class Diagram__\n

  namespace it.polimi.ingswPSP35.server {
    class it.polimi.ingswPSP35.server.ClientHandler {
        - clientSocket : Socket
        - gson : Gson
        - inboundMessages : LinkedBlockingQueue<Object>
        - outboundMessages : LinkedBlockingQueue<Object>
        - reader : Thread
        - username : String
        - writer : Thread
        + ClientHandler()
        + createPlayer()
        + deserialize()
        + disconnect()
        + getClientInput()
        + getNumberOfPlayers()
        + getUsername()
        + sendNotificationToClient()
        + sendObjectToClient()
    }
  }
  

  namespace it.polimi.ingswPSP35.server {
    class it.polimi.ingswPSP35.server.ClientList {
        + getClientFromPlayer()
    }
  }
  

  namespace it.polimi.ingswPSP35.server {
    class it.polimi.ingswPSP35.server.Lobby {
        ~ lobbySize : int
        + addClient()
        + initialize()
        + isFull()
        + startLobby()
    }
  }
  

  namespace it.polimi.ingswPSP35.server {
    class it.polimi.ingswPSP35.server.Server {
        {static} + SOCKET_PORT : int
        {static} - socket : ServerSocket
        {static} + main()
    }
  }
  

  namespace it.polimi.ingswPSP35.server {
    class it.polimi.ingswPSP35.server.Server.LobbyFiller {
        + getClient()
        + run()
        ~ LobbyFiller()
    }
  }
  

  namespace it.polimi.ingswPSP35.server {
    class it.polimi.ingswPSP35.server.ServerReader {
        {static} - PING : String
        - inboundMessages : LinkedBlockingQueue<Object>
        - input : InputStream
        + ServerReader()
        + run()
    }
  }
  

  namespace it.polimi.ingswPSP35.server {
    class it.polimi.ingswPSP35.server.ServerWriter {
        - outboundMessages : LinkedBlockingQueue<Object>
        - output : ObjectOutputStream
        + ServerWriter()
        + run()
        - flush()
    }
  }
  

  namespace it.polimi.ingswPSP35.server {
    class it.polimi.ingswPSP35.server.VirtualView {
        + VirtualView()
        + broadcast()
        + broadcastNotification()
        + disconnect()
        + getAnswer()
        + getPlayerList()
        + performAction()
        + sendNotificationToPlayer()
        + sendToPlayer()
        + update()
    }
  }
  
  skinparam linetype ortho
  it.polimi.ingswPSP35.server.ClientList -up-|> java.util.ArrayList
  it.polimi.ingswPSP35.server.Lobby o- - it.polimi.ingswPSP35.server.ClientList : .
  it.polimi.ingswPSP35.server.Lobby o- - it.polimi.ingswPSP35.server.VirtualView : .
  it.polimi.ingswPSP35.server.Server +-down- it.polimi.ingswPSP35.server.Server.LobbyFiller
  it.polimi.ingswPSP35.server.Server.LobbyFiller .up.|> java.lang.Runnable
  it.polimi.ingswPSP35.server.Server.LobbyFiller o- - it.polimi.ingswPSP35.server.Lobby : .
  it.polimi.ingswPSP35.server.ServerReader .up.|> java.lang.Runnable
  it.polimi.ingswPSP35.server.ServerWriter .up.|> java.lang.Runnable
  it.polimi.ingswPSP35.server.VirtualView o- - it.polimi.ingswPSP35.server.ClientList : .


@enduml

PlantUML version 1.2020.09(Sun May 10 12:51:06 CEST 2020)
(GPL source distribution)
Java Runtime: OpenJDK Runtime Environment
JVM: OpenJDK 64-Bit Server VM
Java Version: 11.0.7+10-b765.53
Operating System: Windows 10
Default Encoding: Cp1252
Language: it
Country: IT
--></g></svg>